<svg id="Capa_1" data-name="Capa 1" xmlns="http://www.w3.org/2000/svg" viewBox="0 0 55 56"><title>coin</title><path d="M31,56C17.47,56,6.5,43.46,6.5,28S17.47,0,31,0,55.5,12.54,55.5,28,44.53,56,31,56" transform="translate(-0.5)" style="fill:#ffd949"/><path d="M6.5,28C6.5,13.7,15.89,1.91,28,.22A21.18,21.18,0,0,0,25,0C11.47,0,.5,12.54.5,28s11,28,24.5,28a21.18,21.18,0,0,0,3-.22C15.89,54.09,6.5,42.3,6.5,28" transform="translate(-0.5)" style="fill:#f4bf1a"/><path d="M31.08,50.52H31a18.35,18.35,0,0,1-2.1-.12A1,1,0,0,1,28,49.29a1,1,0,0,1,1.11-.88,14.4,14.4,0,0,0,1.86.11,1,1,0,0,1,1,1,1,1,0,0,1-1,1m5.82-1.07A1,1,0,0,1,36,48.8a1,1,0,0,1,.59-1.29,16.05,16.05,0,0,0,1.7-.76,1,1,0,0,1,1.35.44,1,1,0,0,1-.43,1.34,18.1,18.1,0,0,1-1.92.85.84.84,0,0,1-.35.07m-13.54-.77a.93.93,0,0,1-.45-.11,20.57,20.57,0,0,1-1.81-1,1,1,0,0,1,1.1-1.68,15.48,15.48,0,0,0,1.62.94,1,1,0,0,1-.46,1.89m20.11-3.56a1,1,0,0,1-.7-.29,1,1,0,0,1,0-1.41A18.73,18.73,0,0,0,44,42a1,1,0,0,1,1.41-.15,1,1,0,0,1,.14,1.41c-.44.54-.9,1.06-1.38,1.55a1,1,0,0,1-.72.29m-26.21-1.4a1,1,0,0,1-.78-.37c-.43-.53-.85-1.09-1.24-1.66a1,1,0,0,1,.28-1.39,1,1,0,0,1,1.38.27c.36.52.74,1,1.13,1.51a1,1,0,0,1-.77,1.64m30.61-5.14a1.14,1.14,0,0,1-.4-.08A1,1,0,0,1,47,37.18c.25-.57.48-1.17.68-1.77a1,1,0,0,1,1.27-.63,1,1,0,0,1,.63,1.27c-.22.65-.47,1.3-.74,1.93a1,1,0,0,1-.92.6M13.44,36.81a1,1,0,0,1-.94-.68c-.22-.64-.42-1.31-.59-2a1,1,0,0,1,.73-1.21,1,1,0,0,1,1.21.73c.16.61.34,1.23.54,1.82a1,1,0,0,1-.62,1.27,1.26,1.26,0,0,1-.33.05m36.32-5.89h-.08a1,1,0,0,1-.92-1.07c.05-.61.07-1.23.07-1.84a1,1,0,0,1,1-1,1,1,0,0,1,1,1V28c0,.67,0,1.33-.07,2a1,1,0,0,1-1,.93M12.17,29a1,1,0,0,1-1-1v0c0-.68,0-1.37.08-2a1,1,0,0,1,1.07-.91,1,1,0,0,1,.92,1.07c-.05.62-.07,1.25-.07,1.88a1,1,0,0,1-1,1m36.93-6a1,1,0,0,1-1-.76c-.15-.61-.33-1.22-.54-1.82a1,1,0,0,1,1.9-.65c.22.65.42,1.32.58,2a1,1,0,0,1-1,1.25M13.43,21.23a1.19,1.19,0,0,1-.32-.05,1,1,0,0,1-.63-1.27c.22-.65.48-1.3.75-1.93a1,1,0,0,1,1.83.8c-.25.58-.48,1.17-.68,1.77a1,1,0,0,1-1,.68M45.9,15.84a1,1,0,0,1-.83-.44,18.54,18.54,0,0,0-1.13-1.51,1,1,0,0,1,1.55-1.28c.43.53.85,1.09,1.24,1.67a1,1,0,0,1-.27,1.39,1,1,0,0,1-.56.17M17.23,14.32a1,1,0,0,1-.63-.23,1,1,0,0,1-.15-1.41,20.65,20.65,0,0,1,1.4-1.54,1,1,0,0,1,1.41,1.41c-.43.44-.86.91-1.26,1.4a1,1,0,0,1-.77.37m23.08-4a1,1,0,0,1-.54-.17,17.54,17.54,0,0,0-1.63-.93,1,1,0,1,1,.91-1.78,20.57,20.57,0,0,1,1.81,1,1,1,0,0,1,.29,1.38,1,1,0,0,1-.84.46m-17-.95a1,1,0,0,1-.46-1.89,18.1,18.1,0,0,1,1.92-.85,1,1,0,1,1,.7,1.88,14.31,14.31,0,0,0-1.71.75,1,1,0,0,1-.45.11m9.61-1.75h-.12A15.86,15.86,0,0,0,31,7.48a1,1,0,0,1-1-1,1,1,0,0,1,1-1h0a20.11,20.11,0,0,1,2,.11,1,1,0,0,1-.11,2" transform="translate(-0.5)" style="fill:#f4bf1a"/><path d="M6.5,29H.5c0,.67.06,1.34.12,2h6c-.06-.66-.1-1.33-.12-2" transform="translate(-0.5)" style="fill:#dca815"/><path d="M6.73,24h-6c-.08.66-.14,1.33-.18,2h6c0-.67.09-1.34.18-2" transform="translate(-0.5)" style="fill:#dca815"/><path d="M7.05,34h-6c.13.68.28,1.34.45,2h6c-.17-.66-.32-1.32-.45-2" transform="translate(-0.5)" style="fill:#dca815"/><path d="M8.45,39h-6c.26.68.54,1.35.84,2h6c-.3-.65-.58-1.32-.83-2" transform="translate(-0.5)" style="fill:#dca815"/><path d="M7.77,19h-6c-.2.66-.38,1.32-.53,2h6c.15-.68.32-1.34.51-2" transform="translate(-0.5)" style="fill:#dca815"/><path d="M9.76,14h-6c-.33.65-.64,1.32-.92,2h6c.29-.68.59-1.35.92-2" transform="translate(-0.5)" style="fill:#dca815"/><path d="M13.85,8h-6c-.57.64-1.11,1.3-1.62,2h6c.51-.7,1.06-1.36,1.63-2" transform="translate(-0.5)" style="fill:#dca815"/><path d="M20,3H14A23.41,23.41,0,0,0,11,5h6A24.16,24.16,0,0,1,20,3" transform="translate(-0.5)" style="fill:#dca815"/><path d="M11.52,45h-6c.46.69,1,1.36,1.47,2h6c-.51-.64-1-1.31-1.47-2" transform="translate(-0.5)" style="fill:#dca815"/><path d="M9.83,50a26.75,26.75,0,0,0,2.53,2h6a25.35,25.35,0,0,1-2.54-2Z" transform="translate(-0.5)" style="fill:#dca815"/><g id="svg_1" data-name="svg 1"><path id="svg_2" data-name="svg 2" d="M42.51,40.34l-.09-.54c0-.23-.06-.47-.1-.71s-.14-.7-.2-1.05-.19-.93-.3-1.39-.3-1.19-.47-1.79-.45-1.49-.7-2.22-.46-1.25-.7-1.86-.51-1.2-.78-1.78-.47-.93-.72-1.39l-.73-1.26c-.36-.6-.74-1.2-1.11-1.8l-1.14-1.79c-.28-.43-.55-.86-.82-1.3a1.18,1.18,0,0,0-.17-.22.09.09,0,0,1,0-.13c.06,0,.08,0,.11,0a2,2,0,0,0,.11.2c.09.13.2.15.31,0s.34-.29.51-.43.5-.43.74-.66a15.2,15.2,0,0,0,1.11-1.16,5.91,5.91,0,0,0,.57-.84.09.09,0,0,0,0-.11.12.12,0,0,0-.11,0,4.94,4.94,0,0,1-.78.19c-.26.06-.52.11-.79.15a3.85,3.85,0,0,1-.49.07l-.5.07c-.11,0-.21,0-.32,0a4.21,4.21,0,0,1-.71,0,.11.11,0,0,1-.08-.08s0-.06,0-.08.23-.21.33-.33a3.23,3.23,0,0,0,.25-.29,6.05,6.05,0,0,0,.53-.79A1.94,1.94,0,0,0,35.61,16a.94.94,0,0,0-.26-.57,2.55,2.55,0,0,0-.69-.47,10.56,10.56,0,0,0-1.07-.52L32.44,14l-1.57-.61-1.33-.53c-.45-.19-.91-.39-1.35-.6a7.76,7.76,0,0,1-1.1-.59h0a.22.22,0,0,0,.07.2l.66.81c.25.29.51.56.77.84s.41.42.63.62a6,6,0,0,0,.48.4,4.08,4.08,0,0,0,.92.55,2.73,2.73,0,0,0,.57.19,4.52,4.52,0,0,1,.71.23,4.66,4.66,0,0,1,.77.47.12.12,0,0,1,.07.14.17.17,0,0,1-.12.1,3.06,3.06,0,0,0-.43.13l-1.66.56-1,.37c-.61.24-1.24.46-1.85.72a5.35,5.35,0,0,0-1,.59l-1,.76-.85.65-.84.64-.87.66a.19.19,0,0,0-.1.14.48.48,0,0,0,.07.31c.14.32.28.63.39,1a.84.84,0,0,0,.53.54l1.24.44,2,.72,1.6.58.75.26s.11,0,.1.1-.08.07-.13.06a2.42,2.42,0,0,0-.47,0c-.26,0-.52,0-.77,0s-.19.07-.17.19.07.45.11.67.09.53.13.8l.12.84c.06.33.1.66.16,1l.15,1c.06.39.12.78.19,1.17s.11.67.17,1c0,0,0,.12,0,.13s-.08-.06-.1-.11c-.09-.36-.2-.71-.31-1.07-.16-.57-.33-1.13-.5-1.7s-.25-.84-.37-1.26c0-.11-.08-.13-.17-.06l-.53.45c-.26.23-.53.45-.8.66s-.83.63-1.26.93a13.36,13.36,0,0,1-1.32.77q-.7.36-1.44.66a.46.46,0,0,1-.2.05,1.68,1.68,0,0,1-.65-.26,2.4,2.4,0,0,1-.69-.62,3.9,3.9,0,0,1-.82-2,2.69,2.69,0,0,1,0-.85,2.16,2.16,0,0,1,.15-.45.5.5,0,0,0-.24.21,4.52,4.52,0,0,0-.47.86A3.42,3.42,0,0,0,19,29.54a3.23,3.23,0,0,0,.07.69,3.8,3.8,0,0,0,.34,1.05,3.47,3.47,0,0,0,.82,1,4.58,4.58,0,0,0,.74.5c.25.14.52.23.78.35a.24.24,0,0,1,.14.28c0,.23-.09.47-.14.7s-.12.63-.18.94-.1.55-.14.82-.09.55-.13.82-.06.41-.09.62-.08.44-.1.67,0,.43-.08.65l-.06.82A4.86,4.86,0,0,0,21,40a.72.72,0,0,0,.07.38h1.21l.06-.08c.06-.12.12-.25.19-.36a11.73,11.73,0,0,1,.84-1.24c.22-.28.44-.54.68-.79a8.39,8.39,0,0,1,.75-.71c.19-.16.39-.31.59-.45a6.61,6.61,0,0,1,1-.57,6.08,6.08,0,0,1,.93-.34,6.91,6.91,0,0,1,.91-.15.16.16,0,0,1,.19.17,4.26,4.26,0,0,1-.06.5c0,.13,0,.26-.05.4s-.05.4-.08.6,0,.3,0,.46-.05.33-.07.5,0,.34-.05.52-.05.39-.07.59,0,.26,0,.39a3.52,3.52,0,0,0,0,.56h1.81l0,0a9,9,0,0,1,.89-1.46,9.91,9.91,0,0,1,1.95-2,7.45,7.45,0,0,1,1-.6A5.9,5.9,0,0,1,35,35.83a5.82,5.82,0,0,1,.92-.13c.26,0,.52,0,.77,0a.74.74,0,0,1,.46.14l.36.29c.25.2.48.41.71.63a6.76,6.76,0,0,1,.52.55c.15.17.3.34.44.53a6.93,6.93,0,0,1,.48.72,6.4,6.4,0,0,1,.63,1.32l.18.54s.06,0,.1,0h1.95ZM27.44,31.6c-.24.13-.48.26-.73.38l-.66.3-.24.1a.26.26,0,0,1-.09,0l-.63.91c-.39.57-.77,1.15-1.13,1.73s-.54.91-.79,1.37a13.38,13.38,0,0,0-.79,1.72,6.27,6.27,0,0,0-.26.84h0l0,.09s0,.08,0,.12a.13.13,0,0,1,0-.12h0s0-.06,0-.09h0v-.1h0s0-.08,0-.12v-.06s0-.08,0-.11v-.06h0s0-.08,0-.11v-.07s0-.07,0-.1V38.2s0-.06,0-.08v-.07h0s0-.06,0-.09v-.07h0s0-.07,0-.1v-.07s0-.06,0-.08v-.06h0s0-.07,0-.1v0s0-.06,0-.08v-.07s0-.06,0-.09v0s0-.06,0-.09v0s0-.06,0-.08v-.05s0-.06,0-.09v-.05h0s0-.06,0-.09v0s0-.06,0-.08v0h0s0-.06,0-.08a1.11,1.11,0,0,0,0-.17h0s0-.06,0-.09a2.36,2.36,0,0,0,0-.28h0s0-.06,0-.08v0s0-.06,0-.09.05-.27.07-.4.07-.44.11-.66.09-.51.15-.76S23,33.25,23,33c0-.07-.08,0-.12,0h0s-.09,0-.13,0h-.09s-.06,0-.09,0a3.29,3.29,0,0,1-2.66-1.95,2.91,2.91,0,0,0,2.07.93h.42s.06,0,.09,0a3,3,0,0,0,.92-.23,7.4,7.4,0,0,0,1-.46,13.35,13.35,0,0,0,1.35-.85c.23-.17.46-.35.68-.54a2.58,2.58,0,0,0,.34-.32.91.91,0,0,1,.17-.17l.13-.12c.06.3.11.59.16.88s.07.35.11.53.1.57.17.85C27.57,31.53,27.51,31.57,27.44,31.6Zm13.82,7.84c-.28-.47-.57-.94-.87-1.4s-.81-1.19-1.25-1.77c-.16-.22-.34-.44-.52-.65s-.45-.51-.68-.77-.52-.51-.79-.75a4.69,4.69,0,0,0-1-.7,1.78,1.78,0,0,0-.93-.23,1.89,1.89,0,0,0-.7.17,4.69,4.69,0,0,0-.83.5,5.85,5.85,0,0,0-.54.45c-.16.15-.32.28-.46.43s-.54.56-.79.85c-.47.55-.9,1.12-1.33,1.7-.31.43-.61.87-.9,1.31-.17.24-.32.49-.47.73,0,0,0,0,0,0,0-.18.05-.35.08-.53s.05-.35.07-.53.06-.35.08-.53.05-.37.08-.55.05-.36.07-.54l.06-.46c0-.17,0-.33.07-.5s0-.24,0-.36.05-.35.06-.53,0-.27,0-.4.05-.44.07-.67,0-.27,0-.4,0-.06,0-.09V33h0s0-.06,0-.09v-.2h0a.21.21,0,0,1,0-.11v-.29h0a.33.33,0,0,1,0-.17V30.78a.4.4,0,0,1,0-.19v-.34s0-.08,0-.12v-.24s0-.06,0-.09v-.2s0-.06,0-.09v-.15h0s0-.06,0-.09c0-.25,0-.5-.07-.75s-.05-.43-.07-.64-.07-.46-.11-.69l-.09-.47s0,0,0-.07c.25-.08.5-.18.75-.27L31.38,26c.07,0,.06,0,.08.06s.2.34.31.51l.79,1.3.74,1.22.42.69s0,0,0,0a.75.75,0,0,0,0-.26c0-.2.05-.4.07-.6l0-.38c0-.2,0-.4.07-.6s0-.26,0-.39l.06-.63c0-.13,0-.27,0-.41s0-.38.07-.58l0-.4s0-.08,0-.08.08,0,.12,0h.28s.08,0,.12,0h.29s.08,0,.12,0h.29s.08,0,.12,0h.29s.08,0,.12,0,.1.11.14.17a19.77,19.77,0,0,1,1,1.82c.21.44.4.89.59,1.34s.35.83.51,1.25l.44,1.14c.28.75.55,1.51.8,2.28l.46,1.38c.15.45.29.9.43,1.35.18.61.37,1.22.55,1.83s.29,1,.43,1.51a.07.07,0,0,1,0,0A.1.1,0,0,1,41.26,39.44Z" transform="translate(-0.5)" style="fill:#f4bf1a"/></g></svg>