<?xml version="1.0" encoding="UTF-8" standalone="no"?>
<svg
   xmlns:dc="http://purl.org/dc/elements/1.1/"
   xmlns:cc="http://creativecommons.org/ns#"
   xmlns:rdf="http://www.w3.org/1999/02/22-rdf-syntax-ns#"
   xmlns:svg="http://www.w3.org/2000/svg"
   xmlns="http://www.w3.org/2000/svg"
   id="svg102"
   version="1.1"
   viewBox="0 0 811.874 1373.754"
   height="1373.754"
   width="811.874">
  <metadata
     id="metadata108">
    <rdf:RDF>
      <cc:Work
         rdf:about="">
        <dc:format>image/svg+xml</dc:format>
        <dc:type
           rdf:resource="http://purl.org/dc/dcmitype/StillImage" />
      </cc:Work>
    </rdf:RDF>
  </metadata>
  <defs
     id="defs106" />
  <g
     transform="translate(-503.103 -227.363)"
     data-name="Group 127"
     id="Group_127">
    <g
       transform="translate(518.734 1189.19)"
       data-name="Group 115"
       id="Group_115">
      <path
         fill="#8c2be2"
         transform="translate(-388.353 86.584)"
         d="M530.535,313.936c4.288,2.473,4.288,6.5,0,8.977a17.214,17.214,0,0,1-15.545,0c-4.3-2.473-4.3-6.5,0-8.977A17.21,17.21,0,0,1,530.535,313.936Z"
         data-name="Path 117"
         id="Path_117" />
      <ellipse
         fill="#8c2be2"
         transform="translate(82.762 375.191)"
         ry="6.348"
         rx="10.994"
         cy="6.348"
         cx="10.994"
         data-name="Ellipse 9"
         id="Ellipse_9" />
      <path
         fill="#8c2be2"
         transform="translate(-464.586 42.566)"
         d="M525.46,311.013c4.3,2.489,4.3,6.5,0,8.977a17.113,17.113,0,0,1-15.545,0c-4.288-2.473-4.288-6.488,0-8.977A17.212,17.212,0,0,1,525.46,311.013Z"
         data-name="Path 118"
         id="Path_118" />
      <ellipse
         fill="#8c2be2"
         transform="translate(1.467 328.255)"
         ry="6.347"
         rx="10.993"
         cy="6.347"
         cx="10.993"
         data-name="Ellipse 10"
         id="Ellipse_10" />
      <ellipse
         fill="#8c2be2"
         transform="translate(0 285.377)"
         ry="6.348"
         rx="10.994"
         cy="6.348"
         cx="10.994"
         data-name="Ellipse 11"
         id="Ellipse_11" />
      <path
         fill="#8c2be2"
         transform="translate(-465.956 -41.656)"
         d="M525.369,305.432c4.288,2.473,4.288,6.488,0,8.961a17.112,17.112,0,0,1-15.545,0c-4.288-2.473-4.288-6.488,0-8.961A17.114,17.114,0,0,1,525.369,305.432Z"
         data-name="Path 119"
         id="Path_119" />
      <path
         fill="#8c2be2"
         transform="translate(-311.705 87.113)"
         d="M520.051,313.984c4.288-2.489,11.257-2.489,15.561-.016,4.288,2.474,4.3,6.488.016,8.978a17.163,17.163,0,0,1-15.545.015C515.779,320.488,515.779,316.474,520.051,313.984Z"
         data-name="Path 120"
         id="Path_120" />
      <path
         fill="#8c2be2"
         transform="translate(-273.556 65.094)"
         d="M538.157,312.509c4.288,2.473,4.288,6.5,0,8.977a17.213,17.213,0,0,1-15.545,0c-4.3-2.473-4.3-6.5,0-8.977A17.209,17.209,0,0,1,538.157,312.509Z"
         data-name="Path 121"
         id="Path_121" />
      <ellipse
         fill="#8c2be2"
         transform="translate(286.481 352.273)"
         ry="6.347"
         rx="10.994"
         cy="6.347"
         cx="10.994"
         data-name="Ellipse 12"
         id="Ellipse_12" />
      <path
         fill="#8c2be2"
         transform="translate(-197.315 21.076)"
         d="M543.208,309.586c4.3,2.489,4.3,6.5,0,8.977a17.213,17.213,0,0,1-15.545,0c-4.288-2.473-4.288-6.488,0-8.977A17.212,17.212,0,0,1,543.208,309.586Z"
         data-name="Path 122"
         id="Path_122" />
      <path
         fill="#8c2be2"
         transform="translate(-159.2 -0.936)"
         d="M545.739,308.136c4.3,2.473,4.3,6.488,0,8.977a17.214,17.214,0,0,1-15.545,0c-4.288-2.489-4.288-6.5,0-8.977A17.113,17.113,0,0,1,545.739,308.136Z"
         data-name="Path 123"
         id="Path_123" />
      <path
         fill="#8c2be2"
         transform="translate(-121.086 -22.942)"
         d="M548.286,306.663c4.288,2.489,4.288,6.5,0,8.977a17.149,17.149,0,0,1-15.562,0c-4.287-2.473-4.287-6.488,0-8.977A17.249,17.249,0,0,1,548.286,306.663Z"
         data-name="Path 124"
         id="Path_124" />
      <path
         fill="#8c2be2"
         transform="translate(-82.967 -44.943)"
         d="M550.812,305.2c4.288,2.473,4.288,6.5,0,8.977a17.211,17.211,0,0,1-15.545,0c-4.3-2.473-4.3-6.5,0-8.977A17.213,17.213,0,0,1,550.812,305.2Z"
         data-name="Path 125"
         id="Path_125" />
      <path
         fill="#8c2be2"
         transform="translate(-44.841 -66.956)"
         d="M553.333,303.752c4.288,2.473,4.288,6.488,0,8.977a17.214,17.214,0,0,1-15.545,0c-4.288-2.489-4.288-6.5,0-8.977A17.113,17.113,0,0,1,553.333,303.752Z"
         data-name="Path 126"
         id="Path_126" />
      <path
         fill="#8c2be2"
         transform="translate(-6.726 -88.961)"
         d="M555.864,302.278c4.288,2.489,4.288,6.5,0,8.977a17.115,17.115,0,0,1-15.545,0c-4.288-2.473-4.288-6.488,0-8.977A17.215,17.215,0,0,1,555.864,302.278Z"
         data-name="Path 127"
         id="Path_127" />
      <path
         fill="#8c2be2"
         transform="translate(31.388 -110.962)"
         d="M558.4,300.817c4.3,2.473,4.3,6.5,0,8.977a17.216,17.216,0,0,1-15.546,0c-4.287-2.473-4.287-6.5,0-8.977A17.216,17.216,0,0,1,558.4,300.817Z"
         data-name="Path 128"
         id="Path_128" />
      <ellipse
         fill="#8c2be2"
         transform="translate(611.67 164.527)"
         ry="6.347"
         rx="10.993"
         cy="6.347"
         cx="10.993"
         data-name="Ellipse 13"
         id="Ellipse_13" />
      <path
         fill="#8c2be2"
         transform="translate(107.622 -154.981)"
         d="M563.469,297.895c4.288,2.473,4.288,6.5,0,8.977a17.115,17.115,0,0,1-15.545,0c-4.3-2.473-4.3-6.5,0-8.977A17.212,17.212,0,0,1,563.469,297.895Z"
         data-name="Path 129"
         id="Path_129" />
      <ellipse
         fill="#8c2be2"
         transform="translate(692.966 117.589)"
         ry="6.347"
         rx="10.993"
         cy="6.347"
         cx="10.993"
         data-name="Ellipse 14"
         id="Ellipse_14" />
      <ellipse
         fill="#8c2be2"
         transform="translate(733.615 94.12)"
         ry="6.348"
         rx="10.993"
         cy="6.348"
         cx="10.993"
         data-name="Ellipse 15"
         id="Ellipse_15" />
      <path
         fill="#8c2be2"
         transform="translate(221.977 -220.999)"
         d="M571.051,293.51c4.288,2.473,4.288,6.5,0,8.977a17.212,17.212,0,0,1-15.545,0c-4.287-2.473-4.287-6.5,0-8.977A17.213,17.213,0,0,1,571.051,293.51Z"
         data-name="Path 130"
         id="Path_130" />
      <path
         fill="#8c2be2"
         transform="translate(-350.157 64.876)"
         d="M517.5,312.5c4.287-2.473,11.257-2.489,15.545-.016s4.319,6.5.031,8.977a17.163,17.163,0,0,1-15.545.016C513.232,319.006,513.216,314.991,517.5,312.5Z"
         data-name="Path 131"
         id="Path_131" />
      <path
         fill="#8c2be2"
         transform="translate(-312.002 42.852)"
         d="M535.6,311.031c4.288,2.489,4.288,6.5,0,8.977a17.216,17.216,0,0,1-15.546,0c-4.3-2.474-4.3-6.488,0-8.977A17.214,17.214,0,0,1,535.6,311.031Z"
         data-name="Path 132"
         id="Path_132" />
      <path
         fill="#8c2be2"
         transform="translate(-273.876 20.839)"
         d="M538.123,309.582c4.288,2.473,4.288,6.488,0,8.978a17.215,17.215,0,0,1-15.545,0c-4.287-2.49-4.287-6.5,0-8.978A17.116,17.116,0,0,1,538.123,309.582Z"
         data-name="Path 133"
         id="Path_133" />
      <ellipse
         fill="#8c2be2"
         transform="translate(286.13 305.09)"
         ry="6.348"
         rx="10.993"
         cy="6.348"
         cx="10.993"
         data-name="Ellipse 16"
         id="Ellipse_16" />
      <path
         fill="#8c2be2"
         transform="translate(-197.647 -23.168)"
         d="M543.187,306.648c4.3,2.473,4.3,6.5,0,8.977a17.215,17.215,0,0,1-15.545,0c-4.288-2.474-4.288-6.5,0-8.977A17.212,17.212,0,0,1,543.187,306.648Z"
         data-name="Path 134"
         id="Path_134" />
      <ellipse
         fill="#8c2be2"
         transform="translate(367.426 258.154)"
         ry="6.347"
         rx="10.993"
         cy="6.347"
         cx="10.993"
         data-name="Ellipse 17"
         id="Ellipse_17" />
      <path
         fill="#8c2be2"
         transform="translate(-121.414 -67.185)"
         d="M548.26,303.724c4.288,2.49,4.288,6.5,0,8.978a17.115,17.115,0,0,1-15.545,0c-4.3-2.473-4.3-6.488,0-8.978A17.215,17.215,0,0,1,548.26,303.724Z"
         data-name="Path 135"
         id="Path_135" />
      <path
         fill="#8c2be2"
         transform="translate(-83.299 -89.187)"
         d="M550.792,302.263c4.288,2.473,4.288,6.5,0,8.977a17.215,17.215,0,0,1-15.545,0c-4.3-2.474-4.3-6.5,0-8.977A17.212,17.212,0,0,1,550.792,302.263Z"
         data-name="Path 136"
         id="Path_136" />
      <path
         fill="#8c2be2"
         transform="translate(-45.173 -111.2)"
         d="M553.312,300.814c4.287,2.474,4.287,6.488,0,8.977a17.213,17.213,0,0,1-15.545,0c-4.288-2.489-4.288-6.5,0-8.977A17.115,17.115,0,0,1,553.312,300.814Z"
         data-name="Path 137"
         id="Path_137" />
      <path
         fill="#8c2be2"
         transform="translate(-7.058 -133.205)"
         d="M555.843,299.341c4.3,2.489,4.3,6.5,0,8.977a17.117,17.117,0,0,1-15.546,0c-4.288-2.473-4.288-6.488,0-8.977A17.212,17.212,0,0,1,555.843,299.341Z"
         data-name="Path 138"
         id="Path_138" />
      <path
         fill="#8c2be2"
         transform="translate(31.057 -155.206)"
         d="M558.373,297.88c4.3,2.473,4.3,6.488,0,8.977a17.214,17.214,0,0,1-15.545,0c-4.288-2.489-4.288-6.5,0-8.977A17.21,17.21,0,0,1,558.373,297.88Z"
         data-name="Path 139"
         id="Path_139" />
      <ellipse
         fill="#8c2be2"
         transform="translate(611.318 117.344)"
         ry="6.347"
         rx="10.993"
         cy="6.347"
         cx="10.993"
         data-name="Ellipse 18"
         id="Ellipse_18" />
      <path
         fill="#8c2be2"
         transform="translate(107.29 -199.224)"
         d="M563.448,294.957c4.287,2.473,4.287,6.5,0,8.977a17.216,17.216,0,0,1-15.546,0c-4.3-2.473-4.3-6.5,0-8.977A17.212,17.212,0,0,1,563.448,294.957Z"
         data-name="Path 140"
         id="Path_140" />
      <ellipse
         fill="#8c2be2"
         transform="translate(692.615 70.406)"
         ry="6.347"
         rx="10.993"
         cy="6.347"
         cx="10.993"
         data-name="Ellipse 19"
         id="Ellipse_19" />
      <ellipse
         fill="#8c2be2"
         transform="translate(733.262 46.938)"
         ry="6.347"
         rx="10.994"
         cy="6.347"
         cx="10.994"
         data-name="Ellipse 20"
         id="Ellipse_20" />
      <path
         fill="#8c2be2"
         transform="translate(221.645 -265.243)"
         d="M571.029,290.573c4.3,2.473,4.3,6.5,0,8.977a17.211,17.211,0,0,1-15.545,0c-4.288-2.473-4.288-6.5,0-8.977A17.209,17.209,0,0,1,571.029,290.573Z"
         data-name="Path 141"
         id="Path_141" />
      <path
         fill="#8c2be2"
         transform="translate(-388.271 42.869)"
         d="M514.972,311.047a17.165,17.165,0,0,1,15.545-.016c4.3,2.473,4.32,6.488.031,8.977a17.165,17.165,0,0,1-15.545.016C510.7,317.551,510.685,313.536,514.972,311.047Z"
         data-name="Path 142"
         id="Path_142" />
      <path
         fill="#8c2be2"
         transform="translate(-350.118 20.839)"
         d="M533.074,309.582c4.288,2.473,4.288,6.488,0,8.978a17.214,17.214,0,0,1-15.545,0c-4.3-2.49-4.3-6.5,0-8.978A17.115,17.115,0,0,1,533.074,309.582Z"
         data-name="Path 143"
         id="Path_143" />
      <path
         fill="#8c2be2"
         transform="translate(-312.002 -1.167)"
         d="M535.6,308.108c4.288,2.489,4.288,6.5,0,8.978a17.116,17.116,0,0,1-15.546,0c-4.3-2.474-4.3-6.488,0-8.978A17.216,17.216,0,0,1,535.6,308.108Z"
         data-name="Path 144"
         id="Path_144" />
      <path
         fill="#8c2be2"
         transform="translate(-273.876 -23.168)"
         d="M538.123,306.648c4.288,2.473,4.288,6.5,0,8.977a17.215,17.215,0,0,1-15.545,0c-4.287-2.474-4.287-6.5,0-8.977A17.212,17.212,0,0,1,538.123,306.648Z"
         data-name="Path 145"
         id="Path_145" />
      <path
         fill="#8c2be2"
         transform="translate(-235.761 -45.18)"
         d="M540.655,305.2c4.3,2.474,4.3,6.488,0,8.977a17.212,17.212,0,0,1-15.545,0c-4.288-2.489-4.288-6.5,0-8.977A17.115,17.115,0,0,1,540.655,305.2Z"
         data-name="Path 146"
         id="Path_146" />
      <path
         fill="#8c2be2"
         transform="translate(-197.647 -67.185)"
         d="M543.187,303.724c4.3,2.49,4.3,6.5,0,8.978a17.115,17.115,0,0,1-15.545,0c-4.288-2.473-4.288-6.488,0-8.978A17.215,17.215,0,0,1,543.187,303.724Z"
         data-name="Path 147"
         id="Path_147" />
      <ellipse
         fill="#8c2be2"
         transform="translate(367.428 211.217)"
         ry="6.347"
         rx="10.993"
         cy="6.347"
         cx="10.993"
         data-name="Ellipse 21"
         id="Ellipse_21" />
      <path
         fill="#8c2be2"
         transform="translate(-121.414 -111.2)"
         d="M548.26,300.814c4.288,2.474,4.288,6.488,0,8.977a17.213,17.213,0,0,1-15.545,0c-4.3-2.489-4.3-6.5,0-8.977A17.115,17.115,0,0,1,548.26,300.814Z"
         data-name="Path 148"
         id="Path_148" />
      <ellipse
         fill="#8c2be2"
         transform="translate(448.724 164.279)"
         ry="6.347"
         rx="10.993"
         cy="6.347"
         cx="10.993"
         data-name="Ellipse 22"
         id="Ellipse_22" />
      <ellipse
         fill="#8c2be2"
         transform="translate(489.373 140.811)"
         ry="6.347"
         rx="10.994"
         cy="6.347"
         cx="10.994"
         data-name="Ellipse 23"
         id="Ellipse_23" />
      <path
         fill="#8c2be2"
         transform="translate(-7.058 -177.219)"
         d="M555.843,296.43c4.3,2.474,4.3,6.488,0,8.961a17.115,17.115,0,0,1-15.546,0c-4.288-2.473-4.288-6.488,0-8.961A17.115,17.115,0,0,1,555.843,296.43Z"
         data-name="Path 149"
         id="Path_149" />
      <path
         fill="#8c2be2"
         transform="translate(31.057 -199.224)"
         d="M558.373,294.957c4.3,2.473,4.3,6.5,0,8.977a17.214,17.214,0,0,1-15.545,0c-4.288-2.473-4.288-6.5,0-8.977A17.21,17.21,0,0,1,558.373,294.957Z"
         data-name="Path 150"
         id="Path_150" />
      <path
         fill="#8c2be2"
         transform="translate(69.171 -221.236)"
         d="M560.92,293.507c4.287,2.473,4.287,6.488,0,8.977a17.248,17.248,0,0,1-15.561,0c-4.288-2.489-4.288-6.5,0-8.977A17.146,17.146,0,0,1,560.92,293.507Z"
         data-name="Path 151"
         id="Path_151" />
      <path
         fill="#8c2be2"
         transform="translate(107.29 -243.242)"
         d="M563.448,292.033c4.287,2.489,4.287,6.5,0,8.977a17.115,17.115,0,0,1-15.546,0c-4.3-2.473-4.3-6.488,0-8.977A17.216,17.216,0,0,1,563.448,292.033Z"
         data-name="Path 152"
         id="Path_152" />
      <ellipse
         fill="#8c2be2"
         transform="translate(692.615 23.47)"
         ry="6.347"
         rx="10.993"
         cy="6.347"
         cx="10.993"
         data-name="Ellipse 24"
         id="Ellipse_24" />
      <path
         fill="#8c2be2"
         transform="translate(-426.386 20.868)"
         d="M512.442,309.586a17.164,17.164,0,0,1,15.545-.016c4.3,2.473,4.32,6.488.032,8.977a17.213,17.213,0,0,1-15.545.016C508.17,316.089,508.154,312.059,512.442,309.586Z"
         data-name="Path 153"
         id="Path_153" />
      <path
         fill="#8c2be2"
         transform="translate(-388.236 -1.164)"
         d="M530.546,308.106c4.288,2.489,4.288,6.5,0,8.978a17.148,17.148,0,0,1-15.561,0c-4.288-2.474-4.288-6.488,0-8.961A17.2,17.2,0,0,1,530.546,308.106Z"
         data-name="Path 154"
         id="Path_154" />
      <path
         fill="#8c2be2"
         transform="translate(-350.118 -23.168)"
         d="M533.074,306.648c4.288,2.473,4.288,6.5,0,8.977a17.215,17.215,0,0,1-15.545,0c-4.3-2.474-4.3-6.5,0-8.977A17.212,17.212,0,0,1,533.074,306.648Z"
         data-name="Path 155"
         id="Path_155" />
      <path
         fill="#8c2be2"
         transform="translate(-312.002 -45.18)"
         d="M535.6,305.2c4.288,2.474,4.288,6.488,0,8.977a17.214,17.214,0,0,1-15.546,0c-4.3-2.489-4.3-6.5,0-8.977A17.117,17.117,0,0,1,535.6,305.2Z"
         data-name="Path 156"
         id="Path_156" />
      <ellipse
         fill="#8c2be2"
         transform="translate(245.482 234.685)"
         ry="6.347"
         rx="10.994"
         cy="6.347"
         cx="10.994"
         data-name="Ellipse 25"
         id="Ellipse_25" />
      <path
         fill="#8c2be2"
         transform="translate(-235.761 -89.187)"
         d="M540.655,302.263c4.3,2.473,4.3,6.5,0,8.977a17.214,17.214,0,0,1-15.545,0c-4.288-2.474-4.288-6.5,0-8.977A17.212,17.212,0,0,1,540.655,302.263Z"
         data-name="Path 157"
         id="Path_157" />
      <path
         fill="#8c2be2"
         transform="translate(-197.647 -111.2)"
         d="M543.187,300.814c4.3,2.474,4.3,6.488,0,8.977a17.213,17.213,0,0,1-15.545,0c-4.288-2.489-4.288-6.5,0-8.977A17.115,17.115,0,0,1,543.187,300.814Z"
         data-name="Path 158"
         id="Path_158" />
      <path
         fill="#8c2be2"
         transform="translate(-159.532 -133.205)"
         d="M545.734,299.341c4.288,2.489,4.288,6.5,0,8.977a17.149,17.149,0,0,1-15.562,0c-4.288-2.473-4.288-6.488,0-8.977A17.245,17.245,0,0,1,545.734,299.341Z"
         data-name="Path 159"
         id="Path_159" />
      <path
         fill="#8c2be2"
         transform="translate(-119.087 -153.867)"
         d="M545.933,296.541c4.288,2.473,4.288,6.488,0,8.977a17.215,17.215,0,0,1-15.545,0C526.084,303.029,541.629,294.067,545.933,296.541Z"
         data-name="Path 160"
         id="Path_160" />
      <path
         fill="#8c2be2"
         transform="translate(-83.299 -177.219)"
         d="M535.246,296.43a17.113,17.113,0,0,1,15.545,0c4.288,2.474,4.288,6.488,0,8.961a17.113,17.113,0,0,1-15.545,0c-4.3-2.473-4.3-6.488,0-8.961C539.535,293.94,530.942,298.9,535.246,296.43Z"
         data-name="Path 161"
         id="Path_161" />
      <path
         fill="#8c2be2"
         transform="translate(-45.173 -199.224)"
         d="M553.312,294.957c4.287,2.473,4.287,6.5,0,8.977a17.214,17.214,0,0,1-15.545,0c-4.288-2.473-4.288-6.5,0-8.977A17.21,17.21,0,0,1,553.312,294.957Z"
         data-name="Path 162"
         id="Path_162" />
      <ellipse
         fill="#8c2be2"
         transform="translate(530.022 70.406)"
         ry="6.348"
         rx="10.994"
         cy="6.348"
         cx="10.994"
         data-name="Ellipse 26"
         id="Ellipse_26" />
      <path
         fill="#8c2be2"
         transform="translate(31.057 -243.242)"
         d="M558.373,292.033c4.3,2.489,4.3,6.5,0,8.977a17.113,17.113,0,0,1-15.545,0c-4.288-2.473-4.288-6.488,0-8.977A17.214,17.214,0,0,1,558.373,292.033Z"
         data-name="Path 163"
         id="Path_163" />
      <ellipse
         fill="#8c2be2"
         transform="translate(611.318 23.47)"
         ry="6.347"
         rx="10.993"
         cy="6.347"
         cx="10.993"
         data-name="Ellipse 27"
         id="Ellipse_27" />
      <path
         fill="#8c2be2"
         transform="translate(107.29 -287.256)"
         d="M563.448,289.123c4.287,2.473,4.287,6.488,0,8.977a17.216,17.216,0,0,1-15.546,0c-4.3-2.489-4.3-6.5,0-8.977A17.115,17.115,0,0,1,563.448,289.123Z"
         data-name="Path 164"
         id="Path_164" />
      <path
         fill="#8c2be2"
         transform="translate(-464.501 -1.144)"
         d="M509.91,308.118a17.214,17.214,0,0,1,15.546-.016c4.3,2.473,4.319,6.5.031,8.977a17.162,17.162,0,0,1-15.545.016C505.639,314.622,505.623,310.607,509.91,308.118Z"
         data-name="Path 165"
         id="Path_165" />
      <path
         fill="#8c2be2"
         transform="translate(-426.351 -23.168)"
         d="M528,306.648c4.3,2.473,4.3,6.5,0,8.977a17.215,17.215,0,0,1-15.545,0c-4.288-2.474-4.288-6.5,0-8.977A17.212,17.212,0,0,1,528,306.648Z"
         data-name="Path 166"
         id="Path_166" />
      <path
         fill="#8c2be2"
         transform="translate(-4.738 -263.905)"
         d="M553.522,289.234c4.3,2.473,4.3,6.5,0,8.977a17.214,17.214,0,0,1-15.546,0C533.688,295.737,549.233,286.76,553.522,289.234Z"
         data-name="Path 167"
         id="Path_167" />
    </g>
    <g
       transform="translate(503.103 227.363)"
       data-name="Group 126"
       id="Group_126">
      <g
         transform="translate(13.072 507.244)"
         data-name="Group 119"
         id="Group_119">
        <g
           transform="translate(415.884 262.438)"
           data-name="Group 116"
           id="Group_116">
          <path
             fill="#5958d4"
             transform="translate(-523.52 -189.875)"
             d="M530.232,399.431l.065-118.468L689.09,372.645,689.01,491.1Z"
             data-name="Path 168"
             id="Path_168" />
          <path
             fill="#5958d4"
             transform="translate(-523.452 -268.031)"
             d="M530.237,359.126l145.051-83.353,158.776,91.671L689.015,450.8Z"
             data-name="Path 169"
             id="Path_169" />
          <path
             fill="#7979f7"
             transform="translate(-521.314 -230.259)"
             d="M530.379,360.273,673.15,278.281l158.776,91.67L685.534,449.505Z"
             data-name="Path 170"
             id="Path_170" />
          <path
             fill="#8c2be2"
             transform="translate(-529.815 -275.291)"
             d="M681.653,275.291,529.894,362.508l-.079,126.209L695.287,584.27l151.775-87.217.081-126.225ZM688.591,564.9,543.24,480.977l.08-102.955,145.351,83.909ZM550.048,366.395l131.589-75.606L826.973,374.7,695.384,450.3Z"
             data-name="Path 171"
             id="Path_171" />
        </g>
        <g
           transform="translate(207.564)"
           data-name="Group 117"
           id="Group_117">
          <path
             fill="#5958d4"
             transform="translate(-510.547 -173.518)"
             d="M517.26,767.8V264.622l158.776,91.665V859.469Z"
             data-name="Path 172"
             id="Path_172" />
          <path
             fill="#5958d4"
             transform="translate(-510.542 -251.686)"
             d="M517.261,342.785l145.051-83.354L821.089,351.1l-145.05,83.355Z"
             data-name="Path 173"
             id="Path_173" />
          <path
             fill="#7979f7"
             transform="translate(-508.403 -213.913)"
             d="M517.4,343.93l142.77-81.99L818.95,353.61,672.557,433.162Z"
             data-name="Path 174"
             id="Path_174" />
          <path
             fill="#8c2be2"
             transform="translate(-516.842 -258.949)"
             d="M668.618,258.949,516.842,346.167V857.1l165.49,95.552,151.775-87.234V354.485Zm7.017,674.324L530.268,849.364V361.68L675.635,445.6Zm-138.622-583.2L668.6,274.446l145.335,83.909L682.348,433.978Z"
             data-name="Path 175"
             id="Path_175" />
        </g>
        <g
           transform="translate(0 453.398)"
           data-name="Group 118"
           id="Group_118">
          <path
             fill="#5958d4"
             transform="translate(-497.623 -201.752)"
             d="M504.336,458.489V292.855l158.776,91.681V550.155Z"
             data-name="Path 176"
             id="Path_176" />
          <path
             fill="#5958d4"
             transform="translate(-497.617 -279.912)"
             d="M504.336,371.018l145.05-83.353,158.778,91.671-145.05,83.353Z"
             data-name="Path 177"
             id="Path_177" />
          <path
             fill="#7979f7"
             transform="translate(-495.478 -242.14)"
             d="M504.478,372.165l142.769-81.991,158.778,91.67L659.631,461.4Z"
             data-name="Path 178"
             id="Path_178" />
          <path
             fill="#8c2be2"
             transform="translate(-503.917 -287.182)"
             d="M655.693,287.182,503.917,374.4V547.79l165.49,95.552,151.775-87.233V382.734Zm7,336.776L517.343,540.05V389.913l145.352,83.925ZM524.088,378.3l131.589-75.622,145.335,83.909L669.423,462.211Z"
             data-name="Path 179"
             id="Path_179" />
        </g>
      </g>
      <g
         transform="translate(371.95)"
         data-name="Group 120"
         id="Group_120">
        <path
           fill="#7979f7"
           transform="translate(-526.264 -227.363)"
           d="M555.023,679.107c25.069-8.046,42.14-25.261,46.829-47.262,4.833-22.692-4.223-46.427-24.876-65.04-10.615-9.555-15.577-20.475-13.618-29.95,1.8-8.784,9.443-15.85,21.5-19.913l19.977-6.729c23.9-8.077,40.437-24.779,45.368-45.833,4.994-21.391-2.65-44.211-20.99-62.6L617.4,389.946c-9.251-9.3-13.314-19.7-11.13-28.521,2.168-8.7,10.454-15.85,22.74-19.624l6.392-1.959c25.518-7.869,42.942-25.068,47.856-47.214,5.043-22.74-3.918-46.523-24.57-65.264l-24.587,27.2c10.615,9.62,15.481,20.588,13.377,30.079-1.991,8.913-10.31,16.236-22.852,20.09l-6.391,1.959c-24.876,7.66-42.187,24.362-47.535,45.849-5.364,21.6,2.216,44.677,20.764,63.321l11.852,11.852c9.17,9.185,13.233,19.5,11.193,28.248-1.991,8.559-9.6,15.465-21.406,19.447l-19.962,6.729c-24.555,8.3-41.192,25.518-45.688,47.278-4.641,22.579,4.481,46.138,25,64.654,10.647,9.587,15.578,20.556,13.537,30.063-1.895,8.929-9.8,16.043-22.193,20.041Z"
           data-name="Path 180"
           id="Path_180" />
      </g>
      <g
         transform="translate(0 357.848)"
         data-name="Group 121"
         id="Group_121">
        <path
           fill="#7979f7"
           transform="translate(-503.103 -249.646)"
           d="M709.222,406.8c1.478-14.5-3.469-26.979-13.57-34.238-10.454-7.5-24.49-8.174-38.527-1.831-7.21,3.26-13.843,3.356-18.211.257-4.047-2.858-5.942-8.3-5.332-15.32l1.028-11.643c1.2-13.907-3.6-26-13.168-33.178-9.748-7.291-23.013-8.479-36.422-3.26l-8.624,3.356c-6.777,2.634-12.944,2.393-16.926-.69-3.935-3.019-5.733-8.817-4.914-15.883l.418-3.677c1.685-14.694-3.165-27.349-13.314-34.752-10.406-7.612-24.458-8.351-38.558-2.04l8.335,18.516c7.243-3.244,13.891-3.276,18.226-.1,4.079,2.971,5.943,8.816,5.123,16.043l-.434,3.677c-1.638,14.325,2.987,26.819,12.7,34.286,9.764,7.532,23.158,8.8,36.727,3.533l8.64-3.372c6.7-2.617,12.831-2.393,16.83.594,3.886,2.907,5.7,8.3,5.107,15.176l-1.028,11.627c-1.237,14.293,3.79,26.546,13.843,33.66,10.406,7.371,24.378,7.982,38.333,1.67,7.242-3.26,13.891-3.324,18.259-.177,4.111,2.939,5.958,8.528,5.235,15.706Z"
           data-name="Path 181"
           id="Path_181" />
      </g>
      <g
         transform="translate(474.776 406.943)"
         data-name="Group 122"
         id="Group_122">
        <path
           fill="#7979f7"
           transform="translate(-532.668 -252.703)"
           d="M603.164,373.7a60.887,60.887,0,1,0-69.712-50.426A60.9,60.9,0,0,0,603.164,373.7ZM586.687,271.6a42.538,42.538,0,1,1-35.154,48.755A42.582,42.582,0,0,1,586.687,271.6Z"
           data-name="Path 182"
           id="Path_182" />
      </g>
      <g
         transform="translate(56.967 537.319)"
         data-name="Group 123"
         id="Group_123">
        <path
           fill="#7979f7"
           transform="translate(-506.65 -260.822)"
           d="M578.623,381.575a60.894,60.894,0,1,0-70.933-48.707A60.906,60.906,0,0,0,578.623,381.575ZM559.657,279.9a42.539,42.539,0,1,1-33.948,49.606A42.553,42.553,0,0,1,559.657,279.9Z"
           data-name="Path 183"
           id="Path_183" />
      </g>
      <g
         transform="translate(433.003 710.907)"
         data-name="Group 125"
         id="Group_125">
        <g
           data-name="Group 124"
           id="Group_124">
          <path
             fill="#7979f7"
             transform="translate(-530.067 -271.631)"
             d="M558.267,280.158l14.807-8.527V477.846L552.18,489.907V316.227a51.723,51.723,0,0,1-9.732,13.072,61.172,61.172,0,0,1-12.381,9.78V322.217a74.559,74.559,0,0,0,16.381-17.537A87.062,87.062,0,0,0,558.267,280.158Z"
             data-name="Path 184"
             id="Path_184" />
        </g>
      </g>
    </g>
  </g>
</svg>
