<svg width="150" height="150" viewBox="0 0 150 150" fill="none" xmlns="http://www.w3.org/2000/svg">
<path d="M33.0259 130.061C39.4969 125.538 40.9733 117.151 40.722 109.612C40.6905 108.355 40.8162 107.036 40.2194 105.905C39.6225 104.806 38.209 104.052 37.1095 104.586C36.1672 105.026 35.7588 106.125 35.2562 107.005C34.5651 108.198 33.5285 109.204 32.3035 109.832C31.4867 110.24 30.513 110.491 29.7277 110.052C28.6282 109.455 28.5026 107.947 28.534 106.691C28.534 104.366 28.5654 102.01 28.5654 99.6856C28.5654 98.4291 28.5654 97.1412 28.1884 95.9789C27.8115 94.7852 26.932 93.6858 25.7383 93.3403C24.5446 92.9947 23.0682 93.6858 22.8169 94.9109C22.7227 95.4135 22.8169 95.9475 22.7855 96.4815C22.7541 97.0155 22.5028 97.5809 22.0002 97.7066C21.4976 97.8637 20.995 97.4867 20.6181 97.1412C19.3302 95.8847 18.4506 94.2512 17.6339 92.6178C16.8172 90.9843 16.0319 89.3509 14.8382 87.9688C13.676 86.5866 12.0425 85.4872 10.252 85.3929C8.46152 85.2987 6.54537 86.3981 6.1056 88.1572C5.66582 89.9163 6.67102 91.7068 7.80186 93.1518C9.46671 95.2564 11.4457 97.1412 13.6131 98.7118C14.0215 98.9945 14.4299 99.3086 14.5869 99.7484C14.8696 100.597 14.0529 101.413 13.2362 101.696C12.2938 102.01 11.2886 101.916 10.3148 102.01C9.34106 102.136 8.27305 102.544 7.8961 103.486C7.3935 104.774 8.46152 106.094 9.49813 106.973C11.6028 108.732 14.0215 110.114 16.5973 111.057C17.5083 111.402 18.482 111.685 19.2359 112.345C19.9898 113.004 18.8276 115.298 18.3878 116.177C17.948 117.057 18.3878 116.177 17.414 115.989C16.4402 115.8 15.5921 115.298 14.6812 114.952C12.9535 114.292 10.7232 114.418 9.62378 115.894C8.90129 116.868 8.83847 118.219 9.21542 119.413C9.59236 120.575 10.3148 121.58 11.1002 122.522C13.8644 125.758 17.3826 128.365 21.372 129.747C25.3613 131.129 29.068 131.506 33.0259 130.061Z" fill="#5958D4"/>
<path d="M33.1425 135.653C32.8598 132.669 32.2001 129.151 31.1007 125.319C30.0013 121.518 28.4307 117.434 26.6402 113.225C26.2004 112.188 25.7606 111.152 25.3208 110.115C24.8811 109.11 24.4413 108.073 23.9701 107.131C22.9963 105.215 21.9283 103.424 20.8603 101.76C19.7923 100.095 18.7243 98.5556 17.6876 97.142C16.651 95.7285 15.6773 94.4092 14.7349 93.2469C12.8501 90.9224 11.1225 89.2262 9.89739 88.1268C9.26915 87.5613 8.79796 87.153 8.45243 86.8703C8.29536 86.7446 8.16972 86.619 8.07548 86.5562C7.98124 86.4933 7.94983 86.4619 7.94983 86.4619C7.94983 86.4619 7.98124 86.4933 8.07548 86.5876C8.16972 86.6818 8.29536 86.776 8.45243 86.9331C8.76655 87.2158 9.26915 87.6556 9.86598 88.221C11.0911 89.3518 12.7873 91.0481 14.6407 93.3726C15.583 94.5348 16.5254 95.8541 17.562 97.2677C18.5672 98.7126 19.6352 100.252 20.7032 101.885C21.7712 103.55 22.8393 105.309 23.7816 107.225C24.2528 108.168 24.6926 109.173 25.1324 110.209C25.5721 111.246 26.0119 112.251 26.4517 113.319C28.2422 117.529 29.7814 121.581 30.9122 125.382C32.0431 129.182 32.7027 132.669 32.9854 135.653" fill="#5958D4"/>
<path d="M23.8822 107.158C23.8822 107.158 23.945 106.969 24.0078 106.624C24.0706 106.278 24.1649 105.776 24.2277 105.147C24.4162 103.891 24.6046 102.163 24.7931 100.247C24.9816 98.3309 25.2015 96.6033 25.3899 95.3782C25.4842 94.7499 25.5784 94.2473 25.6412 93.9018C25.7041 93.5563 25.7355 93.3678 25.7041 93.3678C25.7041 93.3678 25.6412 93.5563 25.547 93.9018C25.4528 94.2473 25.3585 94.7499 25.2329 95.3468C24.9816 96.5719 24.7617 98.2995 24.5732 100.216C24.3847 102.1 24.1963 103.797 24.0706 105.116C24.0078 105.713 23.945 106.184 23.9136 106.592C23.8822 106.938 23.8507 107.158 23.8822 107.158Z" fill="#5958D4"/>
<path d="M7.76953 104.149C7.76953 104.18 7.98942 104.18 8.39778 104.212C8.80614 104.243 9.40297 104.306 10.1569 104.369C11.6332 104.526 13.675 104.809 15.8739 105.248C18.1042 105.657 20.0832 106.128 21.5281 106.536C22.2506 106.725 22.816 106.882 23.2244 107.007C23.6327 107.133 23.8526 107.165 23.8526 107.165C23.8526 107.165 23.6327 107.07 23.2558 106.913C22.8474 106.788 22.282 106.599 21.5909 106.379C20.1774 105.971 18.167 105.468 15.9367 105.029C13.7065 104.62 11.6647 104.338 10.1883 104.212C9.43438 104.149 8.83755 104.118 8.42919 104.118C8.02083 104.118 7.76953 104.118 7.76953 104.149Z" fill="#5958D4"/>
<path d="M30.8818 125.037C30.8818 125.037 30.9132 124.974 31.0075 124.848C31.0703 124.691 31.1645 124.503 31.2902 124.251C31.5415 123.749 31.8556 122.995 32.2326 122.084C33.0179 120.231 33.9917 117.655 35.0597 114.796C36.1277 111.938 37.0701 109.33 37.824 107.477C38.1695 106.566 38.4836 105.844 38.7035 105.278C38.7977 105.027 38.8606 104.838 38.9548 104.681C39.0176 104.556 39.0176 104.461 39.0176 104.461C39.0176 104.461 38.9862 104.524 38.892 104.65C38.8292 104.807 38.7349 104.995 38.6093 105.247C38.358 105.749 38.0438 106.503 37.6669 107.414C36.8816 109.268 35.9078 111.843 34.8398 114.702C33.7718 117.56 32.8294 120.168 32.0755 122.021C31.6986 122.932 31.4158 123.654 31.196 124.22C31.1017 124.471 31.0389 124.66 30.9447 124.817C30.9132 124.974 30.8818 125.037 30.8818 125.037Z" fill="#5958D4"/>
<path d="M9.49707 118.158C9.49707 118.158 9.55989 118.19 9.71696 118.252C9.87402 118.315 10.0939 118.378 10.3452 118.472C10.9106 118.661 11.6959 118.912 12.6383 119.226C14.5859 119.854 17.2245 120.765 20.1773 121.739C23.13 122.744 25.8001 123.624 27.7476 124.189C28.7214 124.472 29.5067 124.723 30.0721 124.849C30.3234 124.912 30.5433 124.975 30.7004 125.006C30.8574 125.037 30.9203 125.069 30.9203 125.037C30.9203 125.037 30.8574 125.006 30.7004 124.943C30.5433 124.88 30.3234 124.818 30.0721 124.723C29.5067 124.535 28.7214 124.284 27.779 123.969C25.8315 123.341 23.1928 122.43 20.2401 121.456C17.2873 120.451 14.6173 119.603 12.6697 119.006C11.6959 118.724 10.9106 118.472 10.3452 118.347C10.0939 118.284 9.87402 118.221 9.71696 118.19C9.59131 118.158 9.49707 118.127 9.49707 118.158Z" fill="#5958D4"/>
<path d="M112.302 20.1167L95.0251 62.3349L126.061 74.8057L143.086 32.8387L112.302 20.1167Z" fill="#E6E6E6"/>
<path d="M112.303 20.1172C112.586 20.2429 124.428 25.1118 143.087 32.8079H143.119V32.8393C138.344 44.6189 132.47 59.1314 126.093 74.7748L126.062 74.8062L126.03 74.7748C125.968 74.7434 125.873 74.712 125.811 74.6806C114.753 70.2514 104.293 66.0422 94.995 62.3041H94.9636L94.995 62.2727C105.235 37.3626 112.178 20.4628 112.303 20.1172C112.178 20.4628 105.267 37.3626 95.0579 62.3669L95.0265 62.3041C104.324 66.0422 114.785 70.2514 125.842 74.6806C125.905 74.712 125.999 74.7434 126.062 74.7748L125.999 74.8062C132.344 59.1314 138.25 44.6503 143.024 32.8707L143.056 32.9335C124.428 25.1432 112.586 20.2429 112.303 20.1172Z" fill="#E6E6E6"/>
<path d="M110.046 16.0977L92.7689 58.3157L123.804 70.7549L140.83 28.8196L110.046 16.0977Z" fill="#FAFAFA"/>
<path d="M110.046 16.0981C110.328 16.2237 122.171 21.0927 140.83 28.7887H140.861V28.8201C136.086 40.5997 130.212 55.1123 123.836 70.7556L123.804 70.787L123.773 70.7556C123.71 70.7242 123.616 70.6928 123.553 70.6614C112.496 66.2322 102.035 62.023 92.7373 58.2849H92.7059L92.7373 58.2535C102.978 33.3121 109.92 16.4122 110.046 16.0981C109.92 16.4436 103.009 33.3435 92.8002 58.3477L92.7688 58.2849C102.067 62.023 112.527 66.2322 123.584 70.6614C123.647 70.6928 123.741 70.7242 123.804 70.7556L123.741 70.787C130.087 55.1123 135.992 40.6312 140.767 28.8515L140.798 28.9143C122.171 21.1241 110.328 16.1923 110.046 16.0981Z" fill="#5958D4"/>
<path d="M133.423 35.2295C133.392 35.2923 128.021 33.2819 121.393 30.6747C114.796 28.0989 109.456 25.9629 109.487 25.8686C109.519 25.8058 114.89 27.8162 121.518 30.4234C128.115 33.0306 133.455 35.1667 133.423 35.2295Z" fill="#5958D4"/>
<path d="M132.219 39.0928C132.188 39.1556 126.816 37.1452 120.188 34.538C113.592 31.9622 108.252 29.8261 108.283 29.7319C108.315 29.6691 113.686 31.6795 120.314 34.2867C126.911 36.8939 132.251 39.0299 132.219 39.0928Z" fill="#5958D4"/>
<path d="M128.208 50.8083C128.177 50.8711 122.805 48.8607 116.177 46.2535C109.58 43.6777 104.24 41.5417 104.272 41.4474C104.303 41.3846 109.675 43.395 116.303 46.0022C122.899 48.578 128.239 50.7455 128.208 50.8083Z" fill="#5958D4"/>
<path d="M126.32 54.7651C126.289 54.8279 120.917 52.8175 114.289 50.2103C107.693 47.6345 102.353 45.4984 102.384 45.4042C102.415 45.3414 107.787 47.3518 114.415 49.959C121.012 52.5348 126.352 54.7022 126.32 54.7651Z" fill="#5958D4"/>
<path d="M124.747 58.7559C124.715 58.8187 119.344 56.8084 112.716 54.2011C106.119 51.6253 100.779 49.4893 100.811 49.395C100.842 49.3322 106.214 51.3426 112.842 53.9498C119.438 56.5256 124.778 58.6931 124.747 58.7559Z" fill="#5958D4"/>
<path d="M123.179 62.7449C123.148 62.8077 117.776 60.7973 111.148 58.1901C104.552 55.6143 99.2118 53.4782 99.2432 53.384C99.2746 53.3212 104.646 55.3316 111.274 57.9388C117.871 60.546 123.211 62.682 123.179 62.7449Z" fill="#5958D4"/>
<path d="M113.629 31.1124C113.534 31.2695 113.22 32.0234 113.22 32.0234L126.319 37.3321L126.728 36.2012L113.629 31.1124Z" fill="#5958D4"/>
<path d="M107.026 32.7764C106.931 32.9335 106.46 33.9387 106.46 33.9387L131.025 43.2681L131.621 42.0116L107.026 32.7764Z" fill="#5958D4"/>
<path d="M105.612 36.7344C105.518 36.8914 105.047 37.8966 105.047 37.8966L129.58 47.2573L130.177 45.9694L105.612 36.7344Z" fill="#5958D4"/>
<path d="M104.393 40.9141C104.361 40.9769 103.953 42.1706 103.953 42.1706L116.235 46.8824L116.926 45.4374L104.393 40.9141Z" fill="#5958D4"/>
<path d="M136.466 135.149C136.466 135.18 107.316 135.243 71.3485 135.243C35.3815 135.243 6.23083 135.212 6.23083 135.149C6.23083 135.086 35.3815 135.055 71.3485 135.055C107.316 135.086 136.466 135.118 136.466 135.149Z" fill="#263238"/>
<path d="M26.1761 18.6739C25.7678 32.8723 24.5113 86.2418 24.1971 100.503C24.1657 102.451 25.6735 104.053 27.6211 104.115L86.1108 105.906C88.0898 105.969 89.7232 104.398 89.7546 102.45L90.6656 61.2062L95.6287 61.1119C96.8538 61.0805 97.8276 60.1067 97.8276 58.8816L98.2045 25.6474C98.2045 24.4223 97.2307 23.3857 96.0057 23.3857L91.5451 23.3229L91.5765 20.1189C91.6079 18.2027 90.0687 16.6007 88.1212 16.5693L29.7571 15.3128C27.8096 15.2185 26.2075 16.7263 26.1761 18.6739Z" fill="#4746a9"/>
<path d="M30.6094 19.2705L25.4578 101.477L85.738 104.869L90.6069 23.2913L30.6094 19.2705Z" fill="#5958D4"/>
<path d="M23.3529 17.512L23.7613 99.8437L84.1357 99.1526L83.476 17.4492L23.3529 17.512Z" fill="#5958D4"/>
<path d="M15.4652 23.1674L26.8679 104.745L86.5827 95.9811L75.0229 15.063L15.4652 23.1674Z" fill="#FAFAFA"/>
<path d="M15.4662 23.1672C16.0002 23.1044 38.9312 19.9631 75.0239 15H75.0867V15.0628C78.3536 37.8053 82.343 65.7622 86.6464 95.9494V96.0436H86.5522C86.4266 96.075 86.2695 96.075 86.1124 96.1064C64.8463 99.2162 44.6796 102.169 26.806 104.808H26.7432V104.745C20.0838 56.4956 15.5604 23.8268 15.4662 23.1672C15.5604 23.8268 20.1466 56.4642 26.9317 104.713L26.8374 104.651C44.711 102.043 64.8777 99.0592 86.1439 95.9494C86.3009 95.918 86.4266 95.918 86.5836 95.8865L86.5208 95.9808C82.2173 65.7936 78.228 37.8053 74.9611 15.0942L75.0239 15.1571C38.9312 19.9945 16.0002 23.1044 15.4662 23.1672Z" fill="#263238"/>
<path d="M71.2929 42.0776C71.3243 42.2033 61.0839 43.931 48.4247 45.9099C35.7656 47.8889 25.4938 49.3967 25.4624 49.2711C25.4309 49.1454 35.6714 47.4177 48.3305 45.4388C60.9897 43.4284 71.2615 41.9206 71.2929 42.0776Z" fill="#263238"/>
<path d="M75.6572 63.9684C75.6886 64.094 65.4482 65.8217 52.789 67.8006C40.1298 69.7795 29.858 71.2873 29.8266 71.1616C29.7952 71.036 40.0356 69.3084 52.6948 67.3294C65.3539 65.3191 75.6257 63.8427 75.6572 63.9684Z" fill="#263238"/>
<path d="M76.2867 71.8545C76.3181 71.9802 66.0777 73.7079 53.4185 75.6868C40.7594 77.6658 30.4875 79.1736 30.4561 79.048C30.4247 78.9223 40.6651 77.1946 53.3243 75.2157C66.0149 73.2367 76.2867 71.7289 76.2867 71.8545Z" fill="#263238"/>
<path d="M68.962 24.7698C68.962 24.8954 62.0827 25.9634 53.6014 27.1571C45.1201 28.3508 38.2408 29.2303 38.2094 29.1047C38.2094 28.979 45.0886 27.911 53.57 26.7173C62.0513 25.5237 68.962 24.6441 68.962 24.7698Z" fill="#263238"/>
<path d="M69.9454 29.133C69.9454 29.2587 63.0661 30.3267 54.5848 31.5204C46.1035 32.714 39.2242 33.5936 39.1927 33.4679C39.1927 33.3423 46.072 32.2743 54.5534 31.0806C63.0347 29.8869 69.9454 29.0074 69.9454 29.133Z" fill="#263238"/>
<path d="M71.0987 33.7181C71.0987 33.8437 64.2194 34.9117 55.7381 36.1054C47.2568 37.2991 40.3775 38.1786 40.3461 38.053C40.3461 37.9273 47.2254 36.8593 55.7067 35.6656C64.2194 34.472 71.0987 33.6238 71.0987 33.7181Z" fill="#263238"/>
<path d="M77.4775 79.5197C77.5089 79.6453 67.2685 81.3729 54.6093 83.3519C41.9502 85.3308 31.6783 86.8385 31.6469 86.7129C31.6155 86.5873 41.8559 84.8596 54.5151 82.8807C67.1742 80.8704 77.4461 79.394 77.4775 79.5197Z" fill="#263238"/>
<path d="M78.6376 87.1831C78.669 87.3088 68.4286 89.0364 55.7695 91.0154C43.1103 92.9944 32.8385 94.5022 32.8071 94.3765C32.7757 94.2509 43.0161 92.5232 55.6752 90.5442C68.3344 88.5338 78.6062 87.0261 78.6376 87.1831Z" fill="#263238"/>
<path d="M35.0355 46.5045C35.0669 46.8186 35.224 48.2949 35.224 48.2949L60.4795 44.6827L60.0711 42.5781L35.0355 46.5045Z" fill="#5958D4"/>
<path d="M26.2396 55.0486C26.271 55.3627 26.4281 57.373 26.4281 57.373L73.201 49.6772L72.9811 47.1328L26.2396 55.0486Z" fill="#5958D4"/>
<path d="M27.6244 62.5568C27.6558 62.8709 27.8129 64.8813 27.8129 64.8813L74.5858 57.1538L74.3659 54.6094L27.6244 62.5568Z" fill="#5958D4"/>
<path d="M29.5099 70.1911C29.5099 70.3167 29.9811 72.5784 29.9811 72.5784L53.4146 68.7775L53.1948 65.8876L29.5099 70.1911Z" fill="#5958D4"/>
<path d="M22.6957 28.6629L24.8003 43.8036L38.5589 41.856L36.7056 26.7781L22.6957 28.6629Z" fill="#263238"/>
<path d="M22.5808 28.8571L24.6854 43.9978L38.444 42.0503L36.5907 26.9724L22.5808 28.8571Z" fill="#FFEBFE"/>
<mask id="mask0" mask-type="alpha" maskUnits="userSpaceOnUse" x="23" y="26" width="16" height="18">
<path d="M23.0002 27.8848L25.1049 43.0259L38.8635 41.0783L37.0101 26.0001L23.0002 27.8848Z" fill="#E8505B"/>
</mask>
<g mask="url(#mask0)">
<path d="M29.018 37.8992L31.6316 37.1864C31.592 36.8696 31.3346 35.6816 31.3346 35.6816C31.3346 35.6816 32.4039 35.3054 32.2059 34.1965C32.0079 33.0877 31.3544 30.5928 31.3544 30.5928C29.9684 30.276 28.523 30.7512 27.5923 31.8007L27.4537 31.9591L29.018 37.8992Z" fill="#FFBE9D"/>
<path d="M31.4713 32.5324C31.3918 32.4927 31.372 32.3934 31.4117 32.3139C31.4514 32.2344 31.5507 32.2146 31.6301 32.2543C31.7096 32.294 31.7294 32.3934 31.6897 32.4728C31.65 32.5523 31.5308 32.5722 31.4713 32.5324Z" fill="#263238"/>
<path d="M31.6887 32.2352C31.6689 32.255 31.5501 32.1956 31.3917 32.2154C31.2333 32.2352 31.1343 32.3342 31.1145 32.3342C31.1145 32.3342 31.1145 32.2946 31.1541 32.2352C31.1937 32.1956 31.2729 32.1362 31.3719 32.1164C31.4709 32.0966 31.5501 32.1164 31.6095 32.156C31.6689 32.1758 31.6887 32.2154 31.6887 32.2352Z" fill="#263238"/>
<path d="M29.9477 32.6872C30.0272 32.7269 30.0669 32.8063 30.047 32.9055C30.0073 32.9849 29.9279 33.0246 29.8286 33.0048C29.7492 32.9651 29.7094 32.8857 29.7293 32.7864C29.769 32.6872 29.8683 32.6474 29.9477 32.6872Z" fill="#263238"/>
<path d="M30.0446 32.6696C30.0248 32.6894 29.9059 32.63 29.7475 32.6498C29.5891 32.6696 29.4901 32.7686 29.4703 32.7686C29.4703 32.7686 29.4703 32.729 29.5099 32.6696C29.5495 32.63 29.6287 32.5706 29.7277 32.5508C29.8267 32.531 29.9059 32.5508 29.9654 32.5904C30.0446 32.63 30.0644 32.6498 30.0446 32.6696Z" fill="#263238"/>
<path d="M30.8972 33.8189C30.8972 33.7991 30.9764 33.7793 31.1348 33.7199C31.1744 33.7001 31.1942 33.7001 31.1942 33.6803C31.1942 33.6605 31.1744 33.6209 31.1348 33.5813C31.0952 33.4625 31.0358 33.3634 30.9764 33.2644C30.719 32.8486 30.5408 32.5119 30.5606 32.4921C30.5804 32.4723 30.7982 32.809 31.0556 33.205C31.115 33.304 31.1744 33.403 31.2338 33.5021C31.2536 33.5417 31.2932 33.6011 31.2932 33.6605C31.2932 33.7001 31.2536 33.7199 31.2338 33.7397C31.214 33.7595 31.1942 33.7595 31.1744 33.7595C30.9962 33.7991 30.8972 33.8189 30.8972 33.8189Z" fill="#263238"/>
<path d="M30.4381 34.0767C30.2599 34.0173 30.9133 34.2351 31.2301 34.1559C31.2301 34.1559 31.1113 34.4727 30.7549 34.4133C30.3985 34.3539 30.4381 34.0767 30.4381 34.0767Z" fill="white"/>
<path d="M31.3321 35.6611C31.3321 35.6611 30.6391 35.8392 29.8075 35.5225C29.8075 35.5225 30.3025 36.255 31.3717 35.958L31.3321 35.6611Z" fill="#EB996E"/>
<path d="M27.6483 33.0079C27.6285 33.0079 26.8167 33.1069 27.1137 33.9982C27.4107 34.9093 28.2424 34.2953 28.2226 34.2755C28.2226 34.2557 27.6483 33.0079 27.6483 33.0079Z" fill="#FFBE9D"/>
<path d="M27.8508 34.0582C27.8508 34.0582 27.831 34.078 27.8112 34.0978C27.7914 34.1176 27.7518 34.1374 27.6924 34.1374C27.5934 34.1374 27.4548 34.0185 27.3954 33.8402C27.3558 33.761 27.3558 33.6817 27.3558 33.6025C27.3558 33.5232 27.3954 33.4638 27.435 33.444C27.4746 33.4242 27.5142 33.4242 27.534 33.4638C27.5538 33.4836 27.5538 33.5034 27.5538 33.5034C27.5538 33.5034 27.5736 33.4836 27.5538 33.444C27.5538 33.4242 27.534 33.4044 27.4944 33.4044C27.4746 33.3846 27.435 33.4044 27.3954 33.4044C27.336 33.4242 27.2766 33.5232 27.2766 33.6025C27.2568 33.6817 27.2766 33.7808 27.3162 33.8799C27.3756 34.0582 27.534 34.1968 27.6726 34.1968C27.7518 34.1968 27.7914 34.1572 27.8112 34.1176C27.8508 34.078 27.8508 34.0582 27.8508 34.0582Z" fill="#EB996E"/>
<path d="M31.3543 30.5511C31.2157 31.3629 30.1663 31.8778 29.3545 32.056C29.6713 31.66 29.4535 31.759 29.6317 31.5016C29.2356 32.0164 28.4634 32.6105 27.5328 32.7491C27.3348 32.3926 27.2952 31.9768 27.414 31.5808C27.5328 31.2045 27.81 30.8679 28.1664 30.6897C28.404 30.5709 28.6614 30.5115 28.899 30.4125C29.097 30.3134 29.295 30.1946 29.5129 30.1352C30.1663 29.8976 31.1761 29.5412 31.3543 30.5511Z" fill="#263238"/>
<path d="M27.9678 32.254C27.948 32.3728 27.948 33.6602 27.948 33.6602L27.4332 32.5114L27.9678 32.254Z" fill="#263238"/>
<path d="M23.8108 42.5105L26.0086 39.2633C26.4245 38.6297 26.9789 38.0951 27.6521 37.6991C27.9887 37.5011 28.3451 37.3625 28.7807 37.2635C29.7707 37.3823 30.7212 37.2041 31.6122 36.7289C32.0082 36.7091 32.8992 36.6497 33.9685 36.9467L38.3246 37.8377L37.691 41.6591L35.3743 41.3423L35.8693 44.7281L37.2355 49.6782L28.8401 51.3414L28.0877 46.7477L27.4739 43.4411L26.4839 44.8469L23.8108 42.5105Z" fill="#5958D4"/>
</g>
<path d="M96.7442 134.083L96.7127 131.193L102.116 131.13L102.178 135.371L101.833 135.402C100.357 135.496 94.2312 135.81 93.226 135.528C92.158 135.151 96.7442 134.083 96.7442 134.083Z" fill="#E8505B"/>
<path d="M100.264 135.306C100.326 134.866 100.578 134.427 100.955 134.144C101.3 133.862 101.771 133.704 102.211 133.736L102.243 135.243L100.264 135.306Z" fill="#E8505B"/>
<path d="M94.5269 134.677C94.5269 134.677 92.9248 135.148 93.1133 135.43C93.3018 135.682 99.49 135.619 102.223 135.336V135.211L95.0295 135.368C94.9981 135.368 94.841 134.677 94.5269 134.677Z" fill="#E8505B"/>
<path d="M102.293 135.212C102.293 135.212 102.261 135.212 102.198 135.212C102.104 135.212 102.041 135.212 101.947 135.244C101.664 135.244 101.35 135.275 100.973 135.307C100.157 135.338 98.9944 135.401 97.7379 135.401C96.4814 135.432 95.3192 135.401 94.5025 135.401C94.1255 135.401 93.78 135.369 93.5287 135.369C93.4344 135.369 93.3402 135.369 93.246 135.369C93.1831 135.369 93.1517 135.369 93.1517 135.369C93.1517 135.369 93.1831 135.369 93.246 135.369C93.3402 135.369 93.403 135.369 93.5287 135.369C93.8114 135.369 94.1255 135.369 94.5025 135.369C95.3192 135.369 96.4814 135.369 97.7379 135.369C98.9944 135.338 100.157 135.307 100.973 135.275C101.35 135.275 101.696 135.244 101.947 135.244C102.041 135.244 102.136 135.244 102.23 135.244C102.261 135.212 102.293 135.212 102.293 135.212Z" fill="#263238"/>
<path d="M95.0097 135.462C94.9783 135.462 94.9783 135.243 94.8212 134.991C94.6642 134.74 94.4757 134.646 94.4757 134.615C94.4757 134.583 94.727 134.709 94.8841 134.96C95.0411 135.211 95.0411 135.462 95.0097 135.462Z" fill="#263238"/>
<path d="M96.5956 134.617C96.5956 134.617 96.5014 134.522 96.4071 134.397C96.3129 134.271 96.2815 134.177 96.2815 134.146C96.2815 134.146 96.3757 134.24 96.47 134.365C96.5642 134.522 96.5956 134.617 96.5956 134.617Z" fill="#263238"/>
<path d="M97.0344 134.393C97.0344 134.393 96.9399 134.362 96.8454 134.267C96.7509 134.173 96.6879 134.11 96.6879 134.078C96.6879 134.078 96.7824 134.11 96.8769 134.204C96.9714 134.299 97.0344 134.362 97.0344 134.393Z" fill="#263238"/>
<path d="M97.2773 133.86C97.2773 133.891 97.1517 133.891 96.9946 133.891C96.8376 133.891 96.7119 133.891 96.7119 133.86C96.7119 133.828 96.8376 133.828 96.9946 133.828C97.1517 133.828 97.2773 133.86 97.2773 133.86Z" fill="#263238"/>
<path d="M97.3844 133.518C97.3844 133.549 97.2587 133.612 97.0702 133.612C96.8818 133.643 96.7561 133.581 96.7561 133.581C96.7561 133.549 96.9132 133.581 97.0702 133.549C97.2587 133.518 97.3844 133.487 97.3844 133.518Z" fill="#263238"/>
<path d="M96.4009 134.144C96.4009 134.144 96.2752 134.175 96.0553 134.144C95.9611 134.144 95.8354 134.112 95.6784 134.081C95.6156 134.049 95.5527 134.049 95.4585 133.987C95.4271 133.955 95.3957 133.924 95.3643 133.892C95.3643 133.829 95.3643 133.767 95.4271 133.767C95.7726 133.578 96.0867 133.767 96.2124 133.955C96.2752 134.049 96.3066 134.112 96.338 134.175C96.338 134.238 96.338 134.27 96.338 134.27C96.338 134.27 96.3066 134.144 96.181 133.987C96.1182 133.924 96.0239 133.829 95.8669 133.798C95.7412 133.767 95.5841 133.767 95.4585 133.829C95.3957 133.861 95.4271 133.924 95.4899 133.987C95.5527 134.018 95.6156 134.049 95.6784 134.081C95.804 134.112 95.9297 134.144 96.0239 134.175C96.2752 134.144 96.4009 134.144 96.4009 134.144Z" fill="#263238"/>
<path d="M96.3178 134.176C96.3178 134.176 96.255 134.082 96.2864 133.925C96.2864 133.862 96.3178 133.768 96.3806 133.674C96.4434 133.611 96.5063 133.485 96.6633 133.485C96.7576 133.485 96.789 133.58 96.7576 133.642C96.7576 133.705 96.7262 133.768 96.6947 133.799C96.6319 133.894 96.6005 133.956 96.5377 134.019C96.4434 134.145 96.3492 134.176 96.3178 134.176C96.3492 134.176 96.412 134.113 96.5063 133.988C96.5377 133.925 96.6005 133.862 96.6633 133.768C96.6947 133.705 96.7262 133.548 96.6633 133.548C96.5691 133.548 96.4749 133.642 96.4434 133.705C96.3806 133.768 96.3492 133.862 96.3492 133.925C96.2864 134.082 96.3178 134.176 96.3178 134.176Z" fill="#263238"/>
<path d="M102.156 133.735C102.156 133.735 101.999 133.735 101.747 133.767C101.496 133.798 101.182 133.892 100.868 134.144C100.585 134.395 100.397 134.678 100.334 134.929C100.239 135.149 100.24 135.306 100.24 135.306C100.24 135.306 100.24 135.274 100.24 135.211C100.24 135.149 100.271 135.054 100.302 134.929C100.365 134.678 100.554 134.363 100.836 134.112C101.15 133.861 101.496 133.767 101.747 133.735C101.873 133.735 101.967 133.735 102.03 133.735C102.124 133.735 102.156 133.735 102.156 133.735Z" fill="#263238"/>
<path d="M101.586 131.501C101.618 131.501 101.618 132.004 101.649 132.6C101.649 133.229 101.649 133.7 101.649 133.7C101.618 133.7 101.618 133.197 101.586 132.6C101.555 131.972 101.555 131.501 101.586 131.501Z" fill="#263238"/>
<path d="M99.5826 134.803C99.5826 134.834 99.237 134.897 98.7973 134.897C98.3575 134.897 98.012 134.866 98.012 134.834C98.012 134.803 98.3575 134.834 98.7973 134.834C99.2056 134.803 99.5826 134.772 99.5826 134.803Z" fill="#263238"/>
<path d="M100.619 134.774C100.619 134.774 100.587 134.837 100.556 134.932C100.524 135.026 100.493 135.089 100.493 135.089C100.461 135.089 100.461 134.995 100.493 134.9C100.556 134.837 100.619 134.774 100.619 134.774Z" fill="#263238"/>
<path d="M101.036 134.27C101.036 134.27 101.005 134.333 100.973 134.396C100.91 134.459 100.847 134.49 100.847 134.49C100.847 134.49 100.879 134.427 100.91 134.364C100.973 134.301 101.036 134.27 101.036 134.27Z" fill="#263238"/>
<path d="M101.605 134.049C101.605 134.08 101.542 134.08 101.448 134.112C101.353 134.143 101.322 134.175 101.29 134.175C101.29 134.175 101.322 134.08 101.416 134.049C101.542 133.986 101.605 134.018 101.605 134.049Z" fill="#263238"/>
<path d="M101.998 133.923C101.998 133.954 101.966 133.954 101.935 133.986C101.903 134.017 101.84 134.017 101.84 133.986C101.84 133.954 101.872 133.954 101.903 133.923C101.935 133.923 101.998 133.923 101.998 133.923Z" fill="#263238"/>
<path d="M124.406 132.573L123.527 129.809L118.375 131.411L119.631 135.463L119.946 135.369C121.391 134.992 127.296 133.39 128.144 132.824C129.118 132.196 124.406 132.573 124.406 132.573Z" fill="#E8505B"/>
<path d="M121.474 134.865C121.254 134.456 120.909 134.142 120.469 133.985C120.029 133.828 119.558 133.828 119.149 133.985L119.589 135.43L121.474 134.865Z" fill="#E8505B"/>
<path d="M126.729 132.477C126.729 132.477 128.394 132.446 128.3 132.76C128.174 133.074 122.3 134.928 119.63 135.493L119.599 135.368L126.509 133.263C126.478 133.263 126.447 132.572 126.729 132.477Z" fill="#E8505B"/>
<path d="M119.488 135.369C119.488 135.369 119.519 135.369 119.582 135.337C119.645 135.306 119.739 135.306 119.834 135.275C120.085 135.212 120.399 135.118 120.776 135.023C121.593 134.803 122.692 134.489 123.886 134.112C125.111 133.735 126.179 133.358 126.964 133.107C127.341 132.982 127.624 132.856 127.875 132.762C127.969 132.73 128.064 132.699 128.126 132.667C128.189 132.636 128.221 132.636 128.221 132.636C128.221 132.636 128.189 132.636 128.126 132.667C128.064 132.699 127.969 132.73 127.875 132.762C127.624 132.856 127.31 132.95 126.933 133.076C126.147 133.327 125.048 133.704 123.854 134.081C122.629 134.458 121.53 134.772 120.745 135.023C120.368 135.118 120.053 135.212 119.802 135.306C119.708 135.337 119.614 135.369 119.551 135.369C119.519 135.369 119.488 135.369 119.488 135.369Z" fill="#263238"/>
<path d="M126.511 133.356C126.543 133.356 126.48 133.137 126.543 132.854C126.606 132.571 126.763 132.414 126.763 132.383C126.763 132.383 126.574 132.54 126.48 132.823C126.417 133.137 126.48 133.356 126.511 133.356Z" fill="#263238"/>
<path d="M124.762 133.045C124.793 133.045 124.825 132.951 124.856 132.794C124.888 132.637 124.919 132.543 124.888 132.543C124.856 132.543 124.825 132.637 124.793 132.794C124.762 132.92 124.731 133.045 124.762 133.045Z" fill="#263238"/>
<path d="M124.262 132.951C124.262 132.951 124.356 132.888 124.419 132.763C124.482 132.669 124.513 132.574 124.513 132.543C124.513 132.543 124.419 132.606 124.356 132.731C124.293 132.857 124.262 132.951 124.262 132.951Z" fill="#263238"/>
<path d="M123.848 132.572C123.848 132.603 123.973 132.572 124.13 132.509C124.287 132.478 124.382 132.415 124.382 132.383C124.382 132.352 124.256 132.383 124.099 132.446C123.973 132.478 123.848 132.54 123.848 132.572Z" fill="#263238"/>
<path d="M123.641 132.259C123.641 132.291 123.798 132.291 123.955 132.259C124.143 132.228 124.269 132.134 124.237 132.134C124.237 132.102 124.08 132.165 123.923 132.196C123.766 132.228 123.641 132.228 123.641 132.259Z" fill="#263238"/>
<path d="M124.773 132.54C124.773 132.54 124.899 132.509 125.118 132.446C125.213 132.415 125.338 132.352 125.433 132.258C125.495 132.226 125.558 132.163 125.621 132.101C125.652 132.069 125.684 132.038 125.684 131.975C125.684 131.912 125.652 131.881 125.59 131.849C125.213 131.786 124.961 132.069 124.899 132.258C124.867 132.352 124.867 132.446 124.867 132.509C124.867 132.572 124.867 132.603 124.899 132.603C124.899 132.603 124.867 132.477 124.961 132.258C124.993 132.163 125.087 132.069 125.181 131.975C125.276 131.912 125.464 131.849 125.59 131.881C125.652 131.912 125.652 131.975 125.621 132.038C125.59 132.101 125.527 132.132 125.464 132.163C125.338 132.258 125.244 132.32 125.15 132.352C124.899 132.509 124.773 132.54 124.773 132.54Z" fill="#263238"/>
<path d="M124.873 132.543C124.873 132.543 124.904 132.449 124.841 132.291C124.81 132.229 124.747 132.134 124.684 132.072C124.59 132.009 124.496 131.946 124.37 131.977C124.307 132.009 124.276 132.103 124.307 132.166C124.339 132.229 124.37 132.26 124.401 132.291C124.464 132.354 124.559 132.417 124.621 132.449C124.747 132.543 124.841 132.543 124.873 132.543C124.841 132.543 124.747 132.511 124.621 132.417C124.559 132.386 124.496 132.323 124.433 132.26C124.37 132.197 124.307 132.103 124.37 132.04C124.464 132.009 124.559 132.072 124.621 132.103C124.684 132.166 124.747 132.229 124.778 132.291C124.841 132.449 124.841 132.543 124.873 132.543Z" fill="#263238"/>
<path d="M119.149 133.925C119.149 133.925 119.306 133.862 119.526 133.83C119.778 133.799 120.123 133.768 120.469 133.925C120.814 134.05 121.066 134.302 121.223 134.49C121.38 134.678 121.411 134.836 121.443 134.836C121.443 134.836 121.443 134.804 121.411 134.741C121.38 134.678 121.348 134.584 121.254 134.49C121.128 134.27 120.846 134.019 120.5 133.893C120.123 133.768 119.778 133.768 119.526 133.83C119.401 133.862 119.306 133.893 119.244 133.925C119.181 133.925 119.149 133.925 119.149 133.925Z" fill="#263238"/>
<path d="M119.034 131.633C119.003 131.633 119.16 132.104 119.317 132.701C119.506 133.298 119.663 133.769 119.663 133.769C119.694 133.769 119.537 133.298 119.38 132.701C119.223 132.104 119.066 131.633 119.034 131.633Z" fill="#263238"/>
<path d="M121.948 134.144C121.948 134.176 122.294 134.113 122.734 133.987C123.142 133.862 123.488 133.705 123.456 133.705C123.456 133.673 123.111 133.799 122.702 133.924C122.294 134.05 121.948 134.113 121.948 134.144Z" fill="#263238"/>
<path d="M120.948 134.457C120.948 134.489 121.011 134.52 121.043 134.583C121.106 134.646 121.137 134.709 121.169 134.709C121.2 134.709 121.169 134.615 121.106 134.552C121.043 134.457 120.948 134.457 120.948 134.457Z" fill="#263238"/>
<path d="M120.421 134.11C120.421 134.142 120.452 134.173 120.547 134.205C120.61 134.236 120.673 134.268 120.704 134.236C120.704 134.205 120.673 134.173 120.578 134.142C120.515 134.11 120.452 134.079 120.421 134.11Z" fill="#263238"/>
<path d="M119.834 134.048C119.834 134.08 119.897 134.048 119.991 134.048C120.086 134.048 120.149 134.08 120.149 134.048C120.149 134.048 120.086 133.985 119.991 133.985C119.897 133.985 119.802 134.048 119.834 134.048Z" fill="#263238"/>
<path d="M119.383 134.078C119.383 134.11 119.414 134.11 119.477 134.11C119.54 134.11 119.572 134.11 119.572 134.078C119.572 134.047 119.54 134.047 119.477 134.047C119.446 134.047 119.383 134.047 119.383 134.078Z" fill="#263238"/>
<path d="M93.0808 76.6904L95.5938 132.824L104.012 133.013L102.63 86.0199L117.897 133.547L124.776 131.662L109.415 76.6904" fill="#263238"/>
<path d="M117.546 133.231L117.923 133.985L125.21 131.88L124.77 130.655L117.546 133.231Z" fill="#5958D4"/>
<path d="M123.935 130.374C123.967 130.374 124.03 130.437 124.092 130.562C124.124 130.688 124.124 130.813 124.092 130.813C124.061 130.813 123.998 130.751 123.935 130.625C123.904 130.5 123.904 130.374 123.935 130.374Z" fill="#5958D4"/>
<path d="M123.403 128.55C123.435 128.55 123.529 128.739 123.623 128.99C123.686 129.241 123.717 129.461 123.686 129.461C123.655 129.461 123.56 129.273 123.466 129.022C123.372 128.77 123.372 128.55 123.403 128.55Z" fill="#5958D4"/>
<path d="M122.867 126.729C122.899 126.729 122.993 126.918 123.087 127.169C123.15 127.42 123.182 127.64 123.15 127.64C123.119 127.64 123.024 127.452 122.93 127.201C122.836 126.949 122.805 126.729 122.867 126.729Z" fill="#5958D4"/>
<path d="M122.307 124.906C122.338 124.906 122.432 125.094 122.526 125.346C122.589 125.597 122.621 125.817 122.589 125.817C122.558 125.817 122.464 125.628 122.369 125.377C122.307 125.126 122.275 124.906 122.307 124.906Z" fill="#5958D4"/>
<path d="M121.773 123.085C121.805 123.085 121.899 123.274 121.993 123.525C122.056 123.776 122.088 123.996 122.056 123.996C122.025 123.996 121.93 123.808 121.836 123.556C121.742 123.305 121.711 123.085 121.773 123.085Z" fill="#5958D4"/>
<path d="M121.196 121.265C121.227 121.265 121.321 121.453 121.416 121.704C121.478 121.955 121.51 122.175 121.478 122.175C121.447 122.175 121.353 121.987 121.258 121.736C121.196 121.484 121.164 121.265 121.196 121.265Z" fill="#5958D4"/>
<path d="M120.666 119.441C120.697 119.441 120.792 119.629 120.886 119.881C120.949 120.132 120.98 120.352 120.949 120.352C120.917 120.352 120.823 120.163 120.729 119.912C120.634 119.661 120.634 119.441 120.666 119.441Z" fill="#5958D4"/>
<path d="M120.136 117.62C120.167 117.62 120.262 117.809 120.356 118.06C120.419 118.311 120.45 118.531 120.419 118.531C120.387 118.531 120.293 118.342 120.199 118.091C120.105 117.84 120.073 117.62 120.136 117.62Z" fill="#5958D4"/>
<path d="M119.569 115.796C119.6 115.796 119.695 115.985 119.789 116.236C119.852 116.487 119.883 116.707 119.852 116.707C119.82 116.707 119.726 116.519 119.632 116.267C119.569 116.016 119.538 115.796 119.569 115.796Z" fill="#5958D4"/>
<path d="M119.032 113.976C119.063 113.976 119.158 114.164 119.252 114.415C119.315 114.667 119.346 114.887 119.315 114.887C119.283 114.887 119.189 114.698 119.095 114.447C119.001 114.196 118.969 113.976 119.032 113.976Z" fill="#5958D4"/>
<path d="M118.465 112.155C118.497 112.155 118.591 112.344 118.685 112.595C118.748 112.846 118.779 113.066 118.748 113.066C118.716 113.066 118.622 112.878 118.528 112.626C118.465 112.375 118.434 112.155 118.465 112.155Z" fill="#5958D4"/>
<path d="M117.938 110.331C117.97 110.331 118.064 110.52 118.158 110.771C118.221 111.022 118.252 111.242 118.221 111.242C118.19 111.242 118.095 111.054 118.001 110.802C117.907 110.551 117.907 110.331 117.938 110.331Z" fill="#5958D4"/>
<path d="M117.405 108.511C117.437 108.511 117.531 108.699 117.625 108.95C117.688 109.202 117.72 109.421 117.688 109.421C117.657 109.421 117.563 109.233 117.468 108.982C117.374 108.731 117.343 108.511 117.405 108.511Z" fill="#5958D4"/>
<path d="M116.835 106.687C116.866 106.687 116.96 106.875 117.055 107.126C117.118 107.378 117.149 107.598 117.118 107.598C117.086 107.598 116.992 107.409 116.898 107.158C116.835 106.906 116.803 106.687 116.835 106.687Z" fill="#5958D4"/>
<path d="M116.305 104.866C116.336 104.866 116.431 105.055 116.525 105.306C116.588 105.557 116.619 105.777 116.588 105.777C116.556 105.777 116.462 105.588 116.368 105.337C116.273 105.086 116.242 104.866 116.305 104.866Z" fill="#5958D4"/>
<path d="M115.738 103.042C115.769 103.042 115.863 103.23 115.958 103.482C116.02 103.733 116.052 103.953 116.02 103.953C115.989 103.953 115.895 103.764 115.8 103.513C115.738 103.262 115.706 103.042 115.738 103.042Z" fill="#5958D4"/>
<path d="M115.201 101.222C115.232 101.222 115.326 101.41 115.421 101.661C115.484 101.913 115.515 102.132 115.484 102.132C115.452 102.132 115.358 101.944 115.264 101.693C115.201 101.441 115.169 101.222 115.201 101.222Z" fill="#5958D4"/>
<path d="M114.668 99.4014C114.7 99.4014 114.794 99.5898 114.888 99.841C114.951 100.092 114.982 100.312 114.951 100.312C114.919 100.312 114.825 100.124 114.731 99.8724C114.637 99.6212 114.605 99.4014 114.668 99.4014Z" fill="#5958D4"/>
<path d="M114.104 97.5771C114.135 97.5771 114.23 97.7656 114.324 98.0168C114.387 98.268 114.418 98.4878 114.387 98.4878C114.355 98.4878 114.261 98.2994 114.167 98.0482C114.104 97.797 114.072 97.5771 114.104 97.5771Z" fill="#5958D4"/>
<path d="M113.567 95.7563C113.598 95.7563 113.692 95.9449 113.787 96.1962C113.849 96.4476 113.881 96.6675 113.849 96.6675C113.818 96.6675 113.724 96.479 113.63 96.2276C113.535 95.9763 113.535 95.7563 113.567 95.7563Z" fill="#5958D4"/>
<path d="M112.999 93.9326C113.031 93.9326 113.125 94.121 113.219 94.3722C113.282 94.6235 113.313 94.8433 113.282 94.8433C113.251 94.8433 113.156 94.6549 113.062 94.4036C112.999 94.1524 112.968 93.9326 112.999 93.9326Z" fill="#5958D4"/>
<path d="M112.469 92.1118C112.501 92.1118 112.595 92.3003 112.689 92.5517C112.752 92.803 112.783 93.0229 112.752 93.0229C112.72 93.0229 112.626 92.8344 112.532 92.5831C112.469 92.3317 112.438 92.1118 112.469 92.1118Z" fill="#5958D4"/>
<path d="M111.934 90.2881C111.965 90.2881 112.059 90.4765 112.154 90.7277C112.217 90.9789 112.248 91.1987 112.217 91.1987C112.185 91.1987 112.091 91.0103 111.997 90.7591C111.902 90.5079 111.871 90.2881 111.934 90.2881Z" fill="#5958D4"/>
<path d="M111.373 88.4673C111.404 88.4673 111.499 88.6558 111.593 88.9071C111.656 89.1585 111.687 89.3784 111.656 89.3784C111.624 89.3784 111.53 89.1899 111.436 88.9386C111.373 88.6872 111.342 88.4673 111.373 88.4673Z" fill="#5958D4"/>
<path d="M110.835 86.6162C110.866 86.6162 110.961 86.8046 111.055 87.0558C111.118 87.307 111.149 87.5269 111.118 87.5269C111.086 87.5269 110.992 87.3384 110.898 87.0872C110.804 86.8674 110.804 86.6476 110.835 86.6162Z" fill="#5958D4"/>
<path d="M110.302 84.792C110.334 84.792 110.428 84.9805 110.522 85.2319C110.585 85.4832 110.616 85.7031 110.585 85.7031C110.553 85.7031 110.459 85.5146 110.365 85.2633C110.271 85.0433 110.239 84.8234 110.302 84.792Z" fill="#5958D4"/>
<path d="M109.739 82.9717C109.77 82.9717 109.864 83.1601 109.959 83.4113C110.021 83.6625 110.053 83.8823 110.021 83.8823C109.99 83.8823 109.896 83.6939 109.801 83.4427C109.739 83.2229 109.707 83.0031 109.739 82.9717Z" fill="#5958D4"/>
<path d="M109.199 81.1514C109.231 81.1514 109.325 81.3398 109.419 81.591C109.482 81.8422 109.514 82.062 109.482 82.062C109.451 82.062 109.356 81.8736 109.262 81.6224C109.168 81.4026 109.137 81.1828 109.199 81.1514Z" fill="#5958D4"/>
<path d="M108.639 79.3276C108.67 79.3276 108.764 79.5161 108.859 79.7675C108.922 80.0188 108.953 80.2388 108.922 80.2388C108.89 80.2388 108.796 80.0503 108.702 79.7989C108.639 79.579 108.607 79.3591 108.639 79.3276Z" fill="#5958D4"/>
<path d="M108.233 77.9756C108.265 77.9756 108.328 78.0384 108.39 78.1639C108.422 78.2895 108.422 78.415 108.39 78.415C108.359 78.415 108.296 78.3523 108.233 78.2267C108.202 78.1011 108.202 78.007 108.233 77.9756Z" fill="#5958D4"/>
<path d="M102.566 132.542C102.597 132.542 102.66 132.636 102.66 132.762C102.66 132.888 102.628 133.013 102.597 133.013C102.566 133.013 102.503 132.919 102.503 132.793C102.503 132.636 102.534 132.542 102.566 132.542Z" fill="#5958D4"/>
<path d="M102.502 130.655C102.533 130.655 102.596 130.875 102.596 131.126C102.596 131.378 102.564 131.597 102.533 131.597C102.502 131.597 102.439 131.378 102.439 131.126C102.407 130.875 102.439 130.686 102.502 130.655Z" fill="#5958D4"/>
<path d="M102.44 128.8C102.471 128.8 102.534 129.02 102.534 129.271C102.534 129.522 102.502 129.742 102.471 129.742C102.44 129.742 102.377 129.522 102.377 129.271C102.377 129.02 102.408 128.8 102.44 128.8Z" fill="#5958D4"/>
<path d="M102.376 126.917C102.407 126.917 102.47 127.137 102.47 127.389C102.47 127.64 102.438 127.86 102.407 127.86C102.376 127.86 102.313 127.64 102.313 127.389C102.313 127.137 102.344 126.917 102.376 126.917Z" fill="#5958D4"/>
<path d="M102.349 125.062C102.38 125.062 102.443 125.281 102.443 125.533C102.443 125.784 102.412 126.004 102.38 126.004C102.349 126.004 102.286 125.784 102.286 125.533C102.286 125.281 102.317 125.062 102.349 125.062Z" fill="#5958D4"/>
<path d="M102.286 123.179C102.317 123.179 102.38 123.399 102.38 123.651C102.38 123.902 102.348 124.122 102.317 124.122C102.286 124.122 102.223 123.902 102.223 123.651C102.223 123.399 102.254 123.179 102.286 123.179Z" fill="#5958D4"/>
<path d="M102.252 121.323C102.283 121.323 102.346 121.543 102.346 121.794C102.346 122.046 102.314 122.266 102.283 122.266C102.252 122.266 102.189 122.046 102.189 121.794C102.157 121.512 102.189 121.323 102.252 121.323Z" fill="#5958D4"/>
<path d="M102.155 119.441C102.187 119.441 102.249 119.661 102.249 119.912C102.249 120.164 102.218 120.384 102.187 120.384C102.155 120.384 102.092 120.164 102.092 119.912C102.092 119.661 102.124 119.441 102.155 119.441Z" fill="#5958D4"/>
<path d="M102.096 117.585C102.128 117.585 102.191 117.805 102.191 118.056C102.191 118.307 102.159 118.527 102.128 118.527C102.096 118.527 102.034 118.307 102.034 118.056C102.002 117.773 102.034 117.585 102.096 117.585Z" fill="#5958D4"/>
<path d="M102.031 115.702C102.062 115.702 102.125 115.922 102.125 116.173C102.125 116.425 102.094 116.645 102.062 116.645C102.031 116.645 101.968 116.425 101.968 116.173C101.937 115.922 101.968 115.702 102.031 115.702Z" fill="#5958D4"/>
<path d="M101.97 113.851C102.002 113.851 102.065 114.07 102.065 114.322C102.065 114.573 102.033 114.793 102.002 114.793C101.97 114.793 101.908 114.573 101.908 114.322C101.876 114.039 101.908 113.851 101.97 113.851Z" fill="#5958D4"/>
<path d="M101.905 111.964C101.936 111.964 101.999 112.184 101.999 112.435C101.999 112.686 101.968 112.906 101.936 112.906C101.905 112.906 101.842 112.686 101.842 112.435C101.842 112.184 101.874 111.964 101.905 111.964Z" fill="#5958D4"/>
<path d="M101.873 110.081C101.904 110.081 101.967 110.301 101.967 110.552C101.967 110.804 101.936 111.023 101.904 111.023C101.873 111.023 101.81 110.804 101.81 110.552C101.779 110.301 101.841 110.081 101.873 110.081Z" fill="#5958D4"/>
<path d="M101.841 108.226C101.872 108.226 101.935 108.445 101.935 108.697C101.935 108.948 101.903 109.168 101.872 109.168C101.841 109.168 101.778 108.948 101.778 108.697C101.746 108.445 101.809 108.226 101.841 108.226Z" fill="#5958D4"/>
<path d="M101.812 106.339C101.843 106.339 101.906 106.559 101.906 106.81C101.906 107.061 101.874 107.281 101.843 107.281C101.812 107.281 101.749 107.061 101.749 106.81C101.749 106.559 101.78 106.339 101.812 106.339Z" fill="#5958D4"/>
<path d="M101.814 104.487C101.845 104.487 101.908 104.707 101.908 104.958C101.908 105.21 101.877 105.43 101.814 105.43C101.751 105.43 101.719 105.21 101.719 104.958C101.719 104.676 101.751 104.487 101.814 104.487Z" fill="#5958D4"/>
<path d="M101.813 102.604C101.844 102.604 101.907 102.824 101.907 103.076C101.907 103.327 101.876 103.547 101.813 103.547C101.781 103.547 101.719 103.327 101.719 103.076C101.719 102.824 101.75 102.604 101.813 102.604Z" fill="#5958D4"/>
<path d="M101.814 100.753C101.845 100.753 101.908 100.973 101.908 101.224C101.908 101.475 101.877 101.695 101.814 101.695C101.751 101.695 101.719 101.475 101.719 101.224C101.719 100.941 101.751 100.753 101.814 100.753Z" fill="#5958D4"/>
<path d="M101.812 98.8662C101.843 98.8662 101.906 99.0861 101.874 99.3374C101.874 99.5887 101.843 99.8086 101.78 99.8086C101.749 99.8086 101.686 99.5887 101.717 99.3374C101.749 99.0861 101.78 98.8662 101.812 98.8662Z" fill="#5958D4"/>
<path d="M101.835 96.9805C101.866 96.9805 101.929 97.2004 101.898 97.4517C101.898 97.703 101.866 97.9228 101.804 97.9228C101.772 97.9228 101.709 97.703 101.741 97.4517C101.741 97.2004 101.804 96.9805 101.835 96.9805Z" fill="#5958D4"/>
<path d="M101.873 95.1279C101.905 95.1279 101.936 95.3478 101.936 95.5991C101.936 95.8504 101.905 96.0703 101.842 96.0703C101.81 96.0703 101.779 95.8504 101.779 95.5991C101.779 95.3478 101.842 95.1279 101.873 95.1279Z" fill="#5958D4"/>
<path d="M101.909 93.2412C101.941 93.2412 101.972 93.4611 101.972 93.7124C101.972 93.9637 101.909 94.1836 101.878 94.1836C101.847 94.1836 101.815 93.9637 101.815 93.7124C101.847 93.4611 101.878 93.2412 101.909 93.2412Z" fill="#5958D4"/>
<path d="M102 91.3901C102.032 91.3901 102.063 91.6099 102.063 91.8611C102.063 92.1123 102 92.332 101.969 92.332C101.938 92.332 101.906 92.1123 101.906 91.8611C101.906 91.5785 101.938 91.3901 102 91.3901Z" fill="#5958D4"/>
<path d="M102.095 89.5029C102.127 89.5029 102.158 89.7228 102.158 89.9741C102.127 90.2254 102.095 90.4453 102.032 90.4453C102.001 90.4453 101.969 90.2254 101.969 89.9741C102.001 89.7228 102.064 89.5029 102.095 89.5029Z" fill="#5958D4"/>
<path d="M102.281 87.6506C102.312 87.6506 102.344 87.8705 102.312 88.1218C102.281 88.3731 102.218 88.5929 102.187 88.5929C102.155 88.5929 102.124 88.3731 102.155 88.1218C102.155 87.839 102.218 87.6506 102.281 87.6506Z" fill="#5958D4"/>
<path d="M102.438 86.2695C102.47 86.2695 102.501 86.3952 102.501 86.5208C102.47 86.6465 102.438 86.7407 102.376 86.7407C102.344 86.7407 102.313 86.6151 102.313 86.4894C102.344 86.3638 102.407 86.2381 102.438 86.2695Z" fill="#5958D4"/>
<path d="M95.369 133.107L104.29 133.232L104.227 131.756L95.369 131.819V133.107Z" fill="#5958D4"/>
<path d="M101.213 77.4126C101.213 77.4126 101.244 77.5383 101.276 77.7582C101.307 77.9781 101.339 78.2922 101.37 78.7006C101.433 79.4859 101.496 80.5854 101.59 81.8106C101.621 82.4074 101.653 83.0043 101.684 83.5069C101.716 84.041 101.716 84.5122 101.841 84.8577C101.967 85.2347 102.218 85.4546 102.407 85.5488C102.595 85.6431 102.721 85.6117 102.721 85.6431C102.721 85.6431 102.689 85.6431 102.626 85.6431C102.564 85.6431 102.469 85.6431 102.375 85.5802C102.155 85.5174 101.873 85.2661 101.716 84.8891C101.558 84.5122 101.558 84.0095 101.496 83.5069C101.464 82.9729 101.433 82.4074 101.37 81.8106C101.307 80.5854 101.244 79.4859 101.213 78.7006C101.182 78.2922 101.182 77.9781 101.182 77.7582C101.213 77.5383 101.213 77.4126 101.213 77.4126Z" fill="#5958D4"/>
<path d="M102.098 78.167C102.098 78.1984 102.035 78.2298 102.035 78.3868C102.035 78.4496 102.035 78.5438 102.098 78.5751C102.161 78.6379 102.224 78.6379 102.318 78.6065C102.412 78.5752 102.443 78.5124 102.443 78.4182C102.443 78.3554 102.412 78.2926 102.349 78.2298C102.255 78.1356 102.161 78.167 102.161 78.1356C102.161 78.1356 102.255 78.0414 102.443 78.1356C102.506 78.167 102.601 78.2612 102.601 78.4182C102.601 78.5438 102.506 78.7007 102.381 78.7635C102.255 78.8263 102.067 78.7949 102.004 78.6693C101.909 78.5752 101.909 78.4496 101.941 78.3554C101.941 78.167 102.098 78.1356 102.098 78.167Z" fill="#5958D4"/>
<path d="M110.011 79.4858C110.011 79.4858 109.76 79.6429 109.32 79.7371C108.88 79.8313 108.189 79.8313 107.529 79.5486C106.87 79.266 106.399 78.732 106.179 78.3551C105.927 77.9467 105.896 77.6641 105.896 77.6641C105.927 77.6641 106.022 77.9153 106.273 78.2923C106.524 78.6692 106.964 79.1403 107.592 79.423C108.221 79.7057 108.849 79.7371 109.289 79.6429C109.76 79.5801 110.011 79.4544 110.011 79.4858Z" fill="#5958D4"/>
<path d="M96.0048 77.4131C96.0363 77.4131 96.0677 77.633 95.9734 78.0099C95.8792 78.3868 95.6593 78.8893 95.2195 79.2662C94.7798 79.6432 94.2458 79.8316 93.8688 79.863C93.4919 79.8944 93.272 79.8316 93.272 79.8002C93.272 79.7688 93.4919 79.8002 93.8688 79.7374C94.2143 79.6746 94.7169 79.5175 95.1253 79.1406C95.5337 78.7637 95.785 78.324 95.8792 77.9785C95.9734 77.633 95.9734 77.4131 96.0048 77.4131Z" fill="#5958D4"/>
<path d="M94.7503 53.007C94.7503 53.007 86.3632 56.5566 86.0805 56.431C85.8606 56.3053 85.6407 49.5203 85.6407 49.5203H81.4628C81.4628 49.5203 80.6775 59.5408 83.1905 61.1428C86.6145 63.3417 94.9701 58.7555 94.9701 58.7555L94.7503 53.007Z" fill="#FFBE9D"/>
<path d="M66.728 40.9139L65.8799 44.6519L69.9007 45.6257C69.9007 45.6257 71.5655 46.0026 73.199 48.3272C74.8324 50.6831 75.492 51.7197 75.492 51.7197L78.2877 37.9297L75.2722 40.0657C74.6753 40.5055 74.0157 40.8196 73.2932 41.0081C72.4136 41.2594 71.2828 41.5421 70.6231 41.5107C69.1468 41.4793 66.728 40.9139 66.728 40.9139Z" fill="#263238"/>
<path d="M111.903 56.903L75.4644 51.7199L78.2601 37.9297L113.693 46.4739C114.478 46.6624 114.981 47.4163 114.855 48.2331L113.662 55.615C113.536 56.4632 112.751 57.0286 111.903 56.903Z" fill="#5958D4"/>
<path d="M63.4649 41.0725C63.3706 41.0411 63.245 41.1353 63.2764 41.261C63.3706 41.7949 63.6534 43.1142 63.8732 43.6796C63.9675 43.8994 65.9779 44.0879 65.9779 44.0879L66.5433 41.6693L63.4649 41.0725Z" fill="#5958D4"/>
<path d="M108.982 52.1573L109.548 49.927L86.02 45.1523L85.5488 47.414L108.982 52.1573Z" fill="#263238"/>
<path d="M104.43 52.0957L99.2156 51.6873C99.1842 51.0905 99.2156 48.7346 99.2156 48.7346C99.2156 48.7346 97.0482 48.389 97.0168 46.2215C96.9853 44.0541 97.3623 39.0909 97.3623 39.0909C99.8753 38.0228 102.765 38.3684 104.933 40.0332L105.247 40.2845L104.43 52.0957Z" fill="#FFBE9D"/>
<path d="M97.9067 42.7961C98.0324 42.6704 98.0324 42.4818 97.9382 42.3561C97.8125 42.2304 97.624 42.2304 97.4984 42.3247C97.3727 42.4504 97.3727 42.6389 97.467 42.7646C97.5612 42.8904 97.7811 42.9218 97.9067 42.7961Z" fill="#263238"/>
<path d="M97.3831 42.2905C97.4145 42.3219 97.6344 42.165 97.9171 42.165C98.1998 42.165 98.4197 42.3219 98.4511 42.2905C98.4825 42.2591 98.4197 42.1964 98.3254 42.1336C98.2312 42.0708 98.0741 42.0081 97.8857 42.0081C97.6972 42.0081 97.5401 42.0708 97.4459 42.165C97.4145 42.2278 97.3517 42.2905 97.3831 42.2905Z" fill="#263238"/>
<path d="M100.793 42.5769C100.636 42.6712 100.605 42.8597 100.699 43.0168C100.793 43.1739 100.981 43.2053 101.139 43.111C101.296 43.0168 101.327 42.8283 101.233 42.6712C101.139 42.5141 100.95 42.4827 100.793 42.5769Z" fill="#263238"/>
<path d="M100.604 42.5759C100.635 42.6074 100.855 42.4502 101.138 42.4502C101.42 42.4502 101.64 42.6074 101.672 42.5759C101.703 42.5445 101.64 42.4816 101.546 42.4187C101.452 42.3558 101.295 42.293 101.106 42.293C100.918 42.293 100.761 42.3558 100.667 42.4502C100.635 42.4816 100.604 42.5445 100.604 42.5759Z" fill="#263238"/>
<path d="M99.4016 45.0267C99.4016 44.9953 99.2131 44.9639 98.9304 44.9325C98.8676 44.9325 98.8047 44.901 98.7733 44.8696C98.7733 44.8068 98.8048 44.744 98.8362 44.6497C98.899 44.4612 98.9932 44.2413 99.0875 44.0529C99.4016 43.2047 99.6529 42.4822 99.5901 42.4507C99.5586 42.4193 99.2445 43.1104 98.9304 43.99C98.8676 44.2099 98.7733 44.3984 98.7105 44.5869C98.6791 44.6811 98.6163 44.7754 98.6791 44.901C98.7105 44.9639 98.7733 45.0267 98.8047 45.0267C98.8676 45.0267 98.899 45.0267 98.9304 45.0581C99.2131 45.0581 99.4016 45.0581 99.4016 45.0267Z" fill="#263238"/>
<path d="M100.376 45.34C100.69 45.1515 99.5279 45.7797 98.8997 45.7797C98.8997 45.7797 99.2452 46.3452 99.8734 46.0939C100.533 45.874 100.376 45.34 100.376 45.34Z" fill="white"/>
<path d="M99.2131 48.6723C99.2131 48.6723 100.595 48.798 102.04 47.8555C102.04 47.8555 101.381 49.4264 99.2131 49.2064V48.6723Z" fill="#EB996E"/>
<path d="M105.281 42.3573C105.344 42.3573 106.883 42.2317 106.632 44.0535C106.38 45.8752 104.621 45.0272 104.621 44.9643C104.621 44.9329 105.281 42.3573 105.281 42.3573Z" fill="#FFBE9D"/>
<path d="M105.253 44.429C105.253 44.429 105.285 44.4604 105.347 44.4918C105.41 44.5233 105.473 44.5547 105.599 44.5233C105.787 44.4918 106.007 44.2091 106.07 43.8636C106.101 43.7065 106.101 43.5495 106.038 43.3924C106.007 43.2353 105.944 43.1411 105.819 43.1097C105.724 43.0783 105.662 43.1097 105.63 43.1725C105.599 43.2353 105.599 43.2668 105.599 43.2668C105.599 43.2668 105.567 43.2353 105.599 43.1725C105.599 43.1411 105.63 43.1097 105.693 43.0783C105.756 43.0469 105.819 43.0469 105.881 43.0469C106.007 43.0783 106.133 43.2353 106.164 43.3924C106.227 43.5495 106.227 43.7379 106.196 43.9264C106.133 44.3034 105.881 44.6175 105.63 44.6489C105.504 44.6489 105.41 44.6175 105.347 44.5547C105.253 44.4604 105.253 44.429 105.253 44.429Z" fill="#EB996E"/>
<path d="M97.3931 39.0277C97.9585 40.5041 100.095 41.1009 101.697 41.1951C100.974 40.5669 101.414 40.6925 100.974 40.2214C101.916 41.038 103.55 41.9176 105.372 41.8547C105.623 41.1323 105.56 40.2842 105.183 39.6246C104.838 38.9335 104.178 38.3995 103.456 38.1796C102.953 38.0226 102.45 38.0226 101.948 37.897C101.539 37.8027 101.131 37.6457 100.691 37.5828C99.4349 37.3944 97.3616 37.0489 97.3931 39.0277Z" fill="#263238"/>
<path d="M104.394 41.0386C104.488 41.2585 104.928 43.7085 104.928 43.7085L105.493 41.3527L104.394 41.0386Z" fill="#263238"/>
<path d="M119.877 71.4132C121.605 69.4342 121.605 66.45 119.846 64.4711L111.459 54.9531L109.197 61.2356C109.354 61.3298 115.731 68.1777 115.731 68.1777L110.234 75.0256C109.386 76.0936 109.134 77.5072 109.574 78.7636L111.051 82.3447L115.071 80.5541L114.757 80.083H111.742L111.553 79.3605L119.877 71.4132Z" fill="#FFBE9D"/>
<path d="M115.892 59.0033L110.583 53.6318C109.546 52.5638 108.353 51.7785 106.908 51.2445C106.217 50.9932 105.463 50.8361 104.615 50.8047C102.761 51.3701 100.908 51.3701 99.0547 50.8047C98.3008 50.8989 96.6045 51.1188 94.6884 52.0612L86.7725 55.2652L89.3168 62.2702L93.5575 60.8252L93.8088 67.4218L92.9607 77.2853L109.389 77.4423L109.169 68.4898V62.0189L111.557 64.3434L115.892 59.0033Z" fill="#5958D4"/>
</svg>
