<svg width="150" height="151" viewBox="0 0 150 151" fill="none" xmlns="http://www.w3.org/2000/svg">
<path d="M125.779 108.703L125.897 108.939C126.093 109.371 126.408 109.686 126.84 109.882L127.115 110L126.879 110.118C126.447 110.275 126.093 110.629 125.936 111.061L125.857 111.258L125.739 111.022C125.543 110.629 125.189 110.315 124.757 110.157L124.521 110.079L124.835 109.922C125.229 109.725 125.504 109.411 125.661 109.018L125.779 108.703Z" fill="#263238"/>
<path d="M11.0449 109.41L11.1628 109.646C11.3593 110.079 11.6738 110.393 12.1062 110.59L12.3813 110.707L12.1455 110.825C11.7131 110.983 11.3593 111.336 11.2021 111.769L11.1235 111.965L11.0056 111.729C10.8091 111.336 10.4553 111.022 10.0229 110.865L9.78711 110.786L10.1016 110.629C10.4946 110.432 10.7698 110.118 10.927 109.725L11.0449 109.41Z" fill="#263238"/>
<path d="M2.55488 44.3201L2.75141 44.7917C3.10516 45.6565 3.77336 46.3247 4.63809 46.6784L5.18838 46.875L4.6774 47.0715C3.81267 47.4252 3.10516 48.1327 2.75141 48.9975L2.59419 49.3512L2.39766 48.9189C2.0046 48.0934 1.29709 47.4645 0.471671 47.1501L0 47.0322L0.589588 46.757C1.3364 46.4033 1.96529 45.7351 2.27974 44.9883L2.55488 44.3201Z" fill="#263238"/>
<path d="M137.374 100.095L137.571 100.567C137.925 101.431 138.593 102.1 139.457 102.453L140.008 102.65L139.497 102.846C138.632 103.2 137.925 103.908 137.571 104.772L137.414 105.126L137.217 104.694C136.824 103.868 136.116 103.239 135.291 102.925L134.819 102.768L135.409 102.493C136.156 102.139 136.785 101.471 137.099 100.724L137.374 100.095Z" fill="#263238"/>
<path d="M50.5474 40.6252C50.5867 40.6645 43.5116 45.4599 34.7857 51.3164C26.0205 57.173 18.9062 61.8897 18.9062 61.8504C18.8669 61.8111 25.9419 57.0158 34.6678 51.1592C43.3937 45.3026 50.5081 40.5859 50.5474 40.6252Z" fill="#9DA1A3"/>
<path d="M52.9058 129.181C52.9451 129.221 45.87 134.016 37.1441 139.873C28.3789 145.729 21.2646 150.446 21.2646 150.407C21.2253 150.367 28.3003 145.572 37.0262 139.715C45.7521 133.859 52.8665 129.142 52.9058 129.181Z" fill="#9DA1A3"/>
<path d="M60.1772 25.4533C60.2165 25.4926 56.1287 28.5584 51.0189 32.3318C45.9484 36.0658 41.782 39.0924 41.7427 39.0531C41.7034 39.0138 45.7912 35.9479 50.901 32.1746C56.0107 28.4405 60.1379 25.414 60.1772 25.4533Z" fill="#9DA1A3"/>
<path d="M69.3749 125.133C69.4142 125.172 65.3264 128.238 60.2166 132.011C55.1462 135.746 50.9798 138.772 50.9405 138.733C50.9012 138.693 54.989 135.628 60.0987 131.854C65.2085 128.081 69.3749 125.094 69.3749 125.133Z" fill="#9DA1A3"/>
<path d="M136.273 45.8138C136.313 45.8531 132.225 48.9189 127.115 52.6923C122.045 56.4263 117.878 59.4529 117.839 59.4136C117.8 59.3743 121.887 56.3084 126.997 52.5351C132.107 48.7617 136.273 45.7351 136.273 45.8138Z" fill="#9DA1A3"/>
<path d="M146.336 27.8903C146.375 27.9296 142.287 30.9954 137.178 34.7688C132.107 38.5029 127.941 41.5294 127.901 41.4901C127.862 41.4508 131.95 38.3849 137.06 34.6116C142.13 30.8382 146.297 27.851 146.336 27.8903Z" fill="#9DA1A3"/>
<path d="M98.3919 49.0515C98.3919 49.0515 101.121 71.1701 88.5522 86.8805C75.9838 102.591 42.8679 120.203 39.6845 120.658C39.6845 120.658 49.2761 112.72 37.6586 109.041C26.0412 105.361 21.1213 100.648 21.1627 96.1414C21.2454 91.6763 32.408 80.7617 27.0748 75.5525C21.7415 70.3432 13.7622 68.7722 10 62.6947C10 62.6947 22.2376 68.5241 31.6225 67.6146C41.0074 66.705 75.6117 57.5682 82.7228 45.5786" fill="#5958D4"/>
<path d="M40.0974 94.8598C40.0974 94.8598 40.1801 94.8184 40.3041 94.7357C40.4695 94.653 40.6349 94.5704 40.8829 94.4463C41.4204 94.1983 42.1232 93.8675 42.9914 93.4541C44.7692 92.5859 47.2085 91.3869 49.8131 89.8986C52.4177 88.4102 54.7329 86.9632 56.3867 85.8883C57.1722 85.3508 57.8337 84.9374 58.3298 84.6066C58.5365 84.4826 58.7019 84.3586 58.8673 84.2759C58.9913 84.1932 59.074 84.1519 59.074 84.1519C59.074 84.1519 59.0326 84.1932 58.9086 84.3172C58.7846 84.3999 58.6192 84.5653 58.4125 84.6893C57.9577 85.0201 57.3376 85.4748 56.5107 86.0536C54.8983 87.1699 52.5831 88.6583 49.9784 90.1053C47.3738 91.5936 44.9346 92.7926 43.1155 93.6195C42.2059 94.0329 41.5031 94.3636 40.9656 94.5704C40.7176 94.6531 40.5522 94.7357 40.3868 94.8184C40.1801 94.8598 40.0974 94.8598 40.0974 94.8598Z" fill="#9DA1A3"/>
<path d="M24.8418 91.9244C24.8418 91.9244 24.8831 91.9244 24.9245 91.9244C25.0072 91.9244 25.0899 91.9244 25.2139 91.8831C25.4619 91.8831 25.834 91.8417 26.2888 91.8004C26.7436 91.759 27.3637 91.759 28.0252 91.6764C28.6867 91.5937 29.4722 91.5523 30.2991 91.4283C30.7125 91.3869 31.1673 91.3043 31.6221 91.2629C32.0769 91.2216 32.573 91.1389 33.0691 91.0562C34.0613 90.9322 35.0949 90.6841 36.2112 90.4774C38.4024 90.0226 40.8003 89.4025 43.2809 88.6583C45.7615 87.8728 48.0354 86.9632 50.1025 86.095C51.1361 85.6402 52.087 85.1855 52.9966 84.7307C53.4513 84.524 53.8648 84.3172 54.2782 84.0692C54.6916 83.8625 55.0637 83.6557 55.4358 83.449C56.18 83.0769 56.8415 82.6635 57.4203 82.3328C57.9991 82.002 58.4952 81.7126 58.9086 81.4232C59.2807 81.1752 59.6115 81.0098 59.8595 80.8444C59.9422 80.8031 60.0249 80.7204 60.1076 80.679C60.1489 80.6377 60.1903 80.6377 60.1903 80.6377C60.1903 80.6377 60.1489 80.679 60.1076 80.679C60.0249 80.7204 59.9836 80.7617 59.8595 80.8444C59.6528 81.0098 59.3221 81.2165 58.95 81.4646C58.5366 81.7126 58.0818 82.0434 57.503 82.3741C56.9242 82.7049 56.2627 83.1183 55.5185 83.5317C55.1464 83.7384 54.7743 83.9452 54.3609 84.1932C53.9475 84.3999 53.534 84.6067 53.0792 84.8547C52.211 85.3095 51.2188 85.7643 50.1852 86.219C48.1181 87.1286 45.8028 88.0381 43.3222 88.8237C40.8416 89.6092 38.4437 90.188 36.2525 90.6428C35.1363 90.8495 34.1027 91.0562 33.1104 91.1802C32.6143 91.2629 32.1182 91.3456 31.6634 91.3869C31.2087 91.4283 30.7539 91.4696 30.3404 91.5523C29.5136 91.6763 28.7281 91.6763 28.0666 91.759C27.4051 91.8004 26.8263 91.8417 26.3302 91.8417C25.8754 91.8417 25.5033 91.8831 25.2552 91.8831C25.1312 91.8831 25.0485 91.8831 24.9658 91.8831C24.8831 91.9244 24.8418 91.9244 24.8418 91.9244Z" fill="#9DA1A3"/>
<path d="M26.8262 71.7075C26.8262 71.7075 26.9502 71.7075 27.1569 71.7075C27.405 71.7075 27.6944 71.7489 28.0665 71.7489C28.4799 71.7902 28.9347 71.7902 29.5135 71.7902C30.0923 71.7902 30.7124 71.8316 31.4566 71.8316C32.9036 71.8729 34.5987 71.8316 36.4592 71.7489C38.3609 71.6662 40.4281 71.5008 42.578 71.2528C44.7278 71.0047 46.795 70.6326 48.6554 70.3019C50.5159 69.9298 52.1696 69.5577 53.5339 69.1856C54.2368 69.0202 54.8569 68.8135 55.3944 68.6895C55.9318 68.5241 56.4279 68.4001 56.8 68.2761C57.1721 68.152 57.4615 68.0693 57.6682 68.028C57.875 67.9867 57.999 67.9453 57.999 67.9453C57.999 67.9453 57.9163 67.9867 57.7096 68.0693C57.5029 68.152 57.2135 68.2347 56.8414 68.3587C56.4693 68.4828 56.0145 68.6481 55.4357 68.8135C54.8982 68.9789 54.2781 69.1856 53.5753 69.351C52.2109 69.7231 50.5572 70.1365 48.6968 70.5086C46.8363 70.8807 44.7691 71.2114 42.6193 71.5008C40.4695 71.7489 38.3609 71.9143 36.5005 71.997C34.5987 72.0796 32.9036 72.0796 31.4566 72.0383C30.7538 72.0383 30.0923 71.997 29.5135 71.9556C28.9347 71.9143 28.4386 71.9143 28.0665 71.8729C27.6944 71.8316 27.3636 71.8316 27.1569 71.7902C26.9089 71.7489 26.8262 71.7075 26.8262 71.7075Z" fill="#9DA1A3"/>
<g opacity="0.4">
<path opacity="0.4" d="M77.3069 50.7878C68.2114 63.0254 53.5759 72.8238 38.3202 73.0719C35.7983 73.1132 32.9869 73.0719 31.0024 74.6429C29.5554 75.7592 30.6717 79.7695 29.1006 83.1183C27.1162 87.2939 27.1162 87.666 24.2221 91.4696C22.8165 93.3301 21.6589 95.6866 22.2377 97.9192C22.9405 100.565 25.5038 102.219 27.8603 103.625C32.2841 106.271 36.7078 108.916 41.1729 111.562C42.9093 112.596 44.6871 113.671 46.7129 113.795C49.2762 114.002 51.6741 112.679 53.8653 111.356C74.0821 99.0768 90.1646 80.0589 98.9294 58.1056" fill="black"/>
</g>
<path d="M127.333 25.279C127.333 25.279 127.994 21.5168 128.325 21.186L134.568 22.509C134.568 22.509 132.211 27.1808 132.17 27.3462L127.333 25.279Z" fill="#FFBE9D"/>
<path d="M134.485 22.8811C134.485 22.8811 134.485 22.9224 134.444 23.0051C134.237 23.5839 132.997 25.8578 132.666 25.8164C132.294 25.7751 131.591 25.1549 131.715 24.8242C131.839 24.4934 133.369 21.9715 133.369 21.9715C133.369 21.9715 133.658 21.5994 134.361 21.8475C134.816 22.0542 134.485 22.8811 134.485 22.8811Z" fill="#FFBE9D"/>
<path d="M133.534 21.3513C133.534 21.3513 133.534 21.3926 133.493 21.4753C133.286 22.0541 132.046 24.328 131.715 24.2866C131.343 24.2453 130.64 23.6252 130.764 23.2944C130.888 22.9637 132.418 20.4417 132.418 20.4417C132.418 20.4417 132.707 20.0696 133.41 20.3177C133.865 20.4831 133.534 21.3513 133.534 21.3513Z" fill="#FFBE9D"/>
<path d="M132.377 20.2351C132.377 20.2351 132.377 20.2764 132.335 20.3591C132.128 20.9379 130.888 23.2118 130.557 23.1704C130.185 23.1291 129.482 22.5089 129.607 22.1782C129.731 21.8474 131.26 19.3255 131.26 19.3255C131.26 19.3255 131.55 18.9534 132.253 19.2015C132.707 19.3669 132.377 20.2351 132.377 20.2351Z" fill="#FFBE9D"/>
<path d="M131.26 19.1189C131.26 19.1189 131.26 19.1602 131.219 19.2429C131.012 19.8217 129.772 22.0956 129.441 22.0542C129.069 22.0129 128.366 21.3927 128.49 21.062C128.614 20.7312 130.144 18.2093 130.144 18.2093C130.144 18.2093 130.433 17.8372 131.136 18.0853C131.55 18.292 131.26 19.1189 131.26 19.1189Z" fill="#FFBE9D"/>
<path d="M132.046 24.1626C132.087 24.1626 132.418 23.7079 132.749 23.0877C133.08 22.4676 133.328 21.9714 133.286 21.9714C133.245 21.9714 132.914 22.4262 132.583 23.0464C132.211 23.6252 132.005 24.1626 132.046 24.1626Z" fill="#EB996E"/>
<path d="M130.682 23.4597C130.723 23.5011 131.136 22.7982 131.633 21.93C132.129 21.0618 132.501 20.359 132.459 20.3177C132.418 20.2763 132.005 20.9791 131.509 21.8474C130.971 22.7156 130.64 23.4184 130.682 23.4597Z" fill="#EB996E"/>
<g opacity="0.78">
<path opacity="0.78" d="M129.317 22.6331C129.358 22.6744 129.772 21.9716 130.268 21.1034C130.764 20.2352 131.136 19.5323 131.095 19.491C131.054 19.4496 130.64 20.1525 130.144 21.0207C129.648 21.8889 129.317 22.5917 129.317 22.6331Z" fill="#EB996E"/>
</g>
<path d="M128.035 25.8577L127.705 23.7492C127.539 22.7983 127.787 21.8474 128.325 21.1032L128.738 20.5244L133.162 23.129C133.162 23.129 131.922 24.5347 130.847 23.5838L131.55 25.4443L128.035 25.8577Z" fill="#FFBE9D"/>
<path d="M131.095 25.5684C131.054 25.5684 131.136 25.3203 131.095 24.9069C131.054 24.4934 130.888 23.8733 130.351 23.4185L129.979 23.0878L130.434 23.2531C130.806 23.3772 131.178 23.5425 131.591 23.7079H131.55C132.046 23.7906 132.666 23.7079 132.997 23.2118C133.038 23.1705 133.038 23.1291 133.08 23.0878L133.121 23.2118C131.839 22.509 130.682 21.8888 129.896 21.3927C129.483 21.1446 129.193 20.9379 128.945 20.7725C128.739 20.6072 128.615 20.5245 128.615 20.5245C128.615 20.4831 129.111 20.8139 129.937 21.2687C130.764 21.7234 131.922 22.3436 133.204 23.0464L133.286 23.0878L133.245 23.1705C133.204 23.2118 133.204 23.2531 133.162 23.2945C132.956 23.5839 132.707 23.7493 132.377 23.8319C132.087 23.9146 131.798 23.9146 131.509 23.8733C131.095 23.7079 130.723 23.5425 130.351 23.3772L130.434 23.2118C130.971 23.7493 131.136 24.4108 131.136 24.8242C131.136 25.0309 131.095 25.1963 131.095 25.3203C131.136 25.527 131.095 25.5684 131.095 25.5684Z" fill="#EB996E"/>
<path d="M132.377 23.7494C132.418 23.7494 132.294 23.9975 132.418 24.3282C132.459 24.4936 132.625 24.659 132.79 24.6176C132.997 24.6176 133.203 24.4522 133.369 24.2455C133.699 23.7908 134.03 23.3773 134.196 23.0879C134.402 22.7985 134.485 22.5918 134.526 22.5918C134.568 22.5918 134.485 22.8399 134.32 23.1706C134.154 23.5013 133.865 23.9148 133.534 24.3696C133.369 24.6176 133.121 24.8243 132.79 24.8243C132.625 24.8243 132.501 24.7416 132.418 24.659C132.335 24.5763 132.294 24.4522 132.252 24.3696C132.211 24.1628 132.252 23.9975 132.294 23.9148C132.335 23.7908 132.377 23.7494 132.377 23.7494Z" fill="#EB996E"/>
<path d="M90.95 32.8034C90.9913 33.0928 90.8673 33.3822 90.6192 33.5476C90.3712 33.713 90.0404 33.713 89.7924 33.5476C89.3376 33.2582 89.3376 32.5553 89.503 32.0592C89.6684 31.5218 89.8751 30.9843 89.7097 30.4468C89.5857 30.0334 89.2136 29.7853 88.9655 29.4546C88.5107 28.8758 88.304 28.0903 88.5107 27.3874C88.7175 26.6846 89.2963 26.1058 90.0404 25.9818C90.7846 25.8577 91.6528 26.1471 92.2316 25.6924C92.6451 25.3616 92.7278 24.7415 93.0998 24.328C93.6373 23.6665 94.6295 23.6665 95.4564 23.8733C96.2833 24.08 97.3995 25.4443 98.2264 25.3203C98.9292 25.2376 99.2186 23.7906 99.8801 23.5425C101.327 23.0464 103.064 23.5839 103.973 24.7828C104.924 25.9818 104.965 27.8009 104.138 29.0825C103.849 29.5373 103.394 29.9507 102.898 30.0747" fill="#5958D4"/>
<path d="M89.5852 47.0669L97.5231 47.6457C97.7298 46.7361 98.1846 43.1806 98.1846 43.1806C98.1846 43.1806 101.533 43.1806 102.071 39.9145C102.608 36.6484 103.228 29.0826 103.228 29.0826C99.7143 26.8914 95.2492 26.7673 91.611 28.7518L91.0736 29.0412L89.5852 47.0669Z" fill="#FFBE9D"/>
<path d="M101.079 34.2919C100.913 34.0851 100.955 33.7957 101.162 33.6304C101.368 33.465 101.658 33.5063 101.823 33.713C101.988 33.9198 101.947 34.2092 101.74 34.3745C101.534 34.5399 101.244 34.4986 101.079 34.2919Z" fill="#9DA1A3"/>
<path d="M102.485 33.9612C102.443 34.0026 102.154 33.7132 101.699 33.6305C101.244 33.5478 100.872 33.7545 100.831 33.6718C100.831 33.6305 100.872 33.5478 101.038 33.4651C101.203 33.3824 101.451 33.2997 101.74 33.3411C102.03 33.3824 102.236 33.5478 102.361 33.6718C102.485 33.8372 102.526 33.9199 102.485 33.9612Z" fill="#9DA1A3"/>
<path d="M96.9029 33.2997C97.1096 33.4651 97.1096 33.7545 96.9442 33.9612C96.7788 34.1679 96.4894 34.1679 96.2827 34.0025C96.076 33.8372 96.076 33.5478 96.2414 33.3411C96.3654 33.1343 96.6961 33.1343 96.9029 33.2997Z" fill="#9DA1A3"/>
<path d="M97.6059 33.5064C97.5645 33.5477 97.2338 33.2997 96.779 33.2583C96.3242 33.217 95.9935 33.4237 95.9522 33.3823C95.9108 33.341 95.9935 33.2583 96.1175 33.1343C96.2829 33.0516 96.531 32.9276 96.779 32.9689C97.0684 32.9689 97.2751 33.1343 97.4405 33.217C97.5646 33.3823 97.6059 33.5064 97.6059 33.5064Z" fill="#9DA1A3"/>
<path d="M98.8047 37.5992C98.8047 37.5579 99.0941 37.5579 99.5489 37.5579C99.6729 37.5579 99.7556 37.5579 99.7969 37.4752C99.8383 37.3925 99.7969 37.2685 99.7556 37.1445C99.6729 36.8137 99.6316 36.5243 99.5489 36.1936C99.2595 34.8292 99.0941 33.6716 99.1354 33.6716C99.2181 33.6716 99.5075 34.7466 99.7969 36.1522C99.8796 36.483 99.921 36.8137 100.004 37.1445C100.045 37.2685 100.086 37.4752 100.004 37.6406C99.9623 37.7233 99.8383 37.806 99.7556 37.806C99.6729 37.806 99.5902 37.806 99.5489 37.806C99.0527 37.6819 98.8047 37.5992 98.8047 37.5992Z" fill="#9DA1A3"/>
<path d="M97.2751 37.8472C97.8126 38.1779 98.474 38.5913 99.3836 38.8394C99.3836 38.8394 98.7221 39.5836 97.8539 39.0875C96.903 38.5913 97.2751 37.8472 97.2751 37.8472Z" fill="white"/>
<path d="M98.1842 43.1393C98.1842 43.1393 96.117 42.9739 94.1326 41.2788C94.1326 41.2788 94.7941 43.8007 98.0602 44.0075L98.1842 43.1393Z" fill="#EB996E"/>
<path d="M103.146 29.9095C103.146 29.9095 101.079 30.7364 98.5568 29.2067C96.903 28.2144 94.9599 27.6356 94.5051 27.9664C94.0503 28.2558 93.8023 30.0335 92.0659 30.4056C92.0659 30.4056 91.9005 33.7544 90.5775 33.5477C89.2545 33.341 90.4948 28.1731 90.4948 28.1731L93.885 26.8501L97.5232 26.478L100.872 27.2222L103.435 28.1318L103.146 29.9095Z" fill="#5958D4"/>
<path d="M90.9498 32.514C90.9085 32.4726 88.7999 31.5217 88.5519 33.7543C88.2625 35.9868 90.5777 35.8214 90.5777 35.7388C90.5777 35.6561 90.9498 32.514 90.9498 32.514Z" fill="#FFBE9D"/>
<path d="M89.9989 34.7876C89.9989 34.7876 89.9575 34.829 89.8749 34.829C89.7922 34.8703 89.7095 34.8703 89.5855 34.7876C89.3787 34.6636 89.2134 34.2915 89.2547 33.8781C89.2547 33.6713 89.3374 33.4646 89.4201 33.3406C89.5028 33.1752 89.6268 33.0925 89.7508 33.0925C89.8749 33.0925 89.9575 33.1752 89.9575 33.2166C89.9989 33.2993 89.9575 33.3406 89.9575 33.3406C89.9575 33.3406 89.9989 33.2993 89.9989 33.2166C89.9989 33.1752 89.9575 33.1339 89.9162 33.0512C89.8749 33.0098 89.7922 32.9685 89.7095 32.9685C89.5441 32.9685 89.3787 33.0925 89.2547 33.2579C89.1307 33.4233 89.048 33.63 89.048 33.8781C89.0066 34.3328 89.172 34.7876 89.5028 34.9116C89.6681 34.953 89.7922 34.953 89.8749 34.9116C89.9989 34.829 89.9989 34.7876 89.9989 34.7876Z" fill="#EB996E"/>
<path d="M90.4944 25.3616C90.4944 25.4443 90.8251 25.4443 91.1972 25.6097C91.5693 25.775 91.776 26.0231 91.8174 25.9817C91.8587 25.9404 91.7347 25.5683 91.2799 25.3616C90.8665 25.1962 90.4944 25.2789 90.4944 25.3616Z" fill="#5958D4"/>
<path d="M91.9827 24.1213C91.9413 24.1213 91.7346 24.5761 91.7346 25.1549C91.776 25.7751 92.0654 26.1885 92.1481 26.1472C92.2307 26.1058 92.024 25.6924 91.9827 25.1136C91.9827 24.6175 92.0654 24.1627 91.9827 24.1213Z" fill="#5958D4"/>
<path d="M100.417 32.8861C100.458 33.0102 100.913 32.9688 101.409 33.0515C101.947 33.0929 102.36 33.2582 102.443 33.1342C102.525 33.0102 102.112 32.6381 101.492 32.5554C100.83 32.4727 100.376 32.7621 100.417 32.8861Z" fill="#9DA1A3"/>
<path d="M95.4972 31.6872C95.5386 31.8112 95.9934 31.7699 96.4895 31.8525C97.0269 31.8939 97.4404 32.0593 97.5231 31.9352C97.6057 31.8112 97.1923 31.4391 96.5722 31.3564C95.9107 31.2737 95.4559 31.5631 95.4972 31.6872Z" fill="#9DA1A3"/>
<path d="M81.3999 80.4309L70.568 73.5266C66.2683 80.5963 68.9969 87.4179 69.0383 96.1L68.9556 102.053L39.9326 105.113L40.2634 113.216L75.0331 112.72C78.9193 112.513 81.9374 109.33 81.896 105.444C81.8547 95.6039 82.4748 81.3405 82.6402 82.0433" fill="#263238"/>
<path d="M90.0406 42.7671C90.0406 42.7671 87.1879 40.7 83.5083 43.0152C79.8288 45.3304 70.0718 63.2734 70.0718 63.2734L62.5886 69.5989L81.9373 83.2422C81.9373 83.2422 97.2343 64.1003 98.4746 61.1649L99.5082 47.3976L90.0406 42.7671Z" fill="#263238"/>
<path d="M99.2186 47.3976L113.73 38.6741L127.167 24.7415L132.169 27.3047L118.071 47.7283L98.1851 61.1649L99.2186 47.3976Z" fill="#263238"/>
<path d="M38.2373 104.576L57.9994 103.087L57.8754 109.578L65.0277 113.878L41.0486 112.927C41.0486 112.927 39.2295 119.749 38.7748 118.715C38.32 117.64 38.2373 104.576 38.2373 104.576Z" fill="#9DA1A3"/>
<path d="M61.5137 69.4749C61.5137 69.4749 68.5007 71.8315 71.064 75.8418C71.8908 77.1648 72.0562 78.8185 71.5601 80.3068L69.741 84.7306C69.741 84.7306 78.051 79.9761 82.5987 83.1595L84.4592 80.0588L64.7384 66.7876C64.7384 66.7876 62.4232 67.8212 61.5137 69.4749Z" fill="#9DA1A3"/>
<path d="M61.6789 68.9788L44.1494 101.309L21.3279 118.508L25.0488 125.495L46.5886 113.257C50.4335 111.521 54.2371 108.71 56.5937 105.195L61.7203 97.547L70.8985 82.4153C73.131 78.9425 72.0561 75.635 68.6246 73.2785L61.6789 68.9788Z" fill="#263238"/>
<path d="M17.0701 120.947L32.5738 109.123L35.9226 113.423L45.4315 114.25L24.3051 126.032C24.3051 126.032 26.8684 132.647 25.8762 132.027C24.8839 131.407 17.0701 120.947 17.0701 120.947Z" fill="#9DA1A3"/>
<path d="M96.6968 24.5763C97.2756 24.8657 98.4745 24.907 98.9707 24.4109C99.3014 24.1215 99.3427 23.4187 99.136 23.0466C98.9707 22.7985 98.6813 22.6745 98.6813 22.3437C98.6813 22.0957 99.012 21.9303 99.1774 21.8063C99.3841 21.6822 99.5908 21.6409 99.8389 21.5995C100.996 21.3928 102.237 21.6409 103.229 22.261C104.221 22.8812 104.965 23.9561 105.131 25.1137C105.296 26.2713 105.089 28.0491 104.18 28.8346C103.312 29.6201 101.823 29.4134 100.707 29" fill="#5958D4"/>
<path d="M100.666 21.5996C100.335 21.517 99.9632 21.4756 99.5911 21.517C99.219 21.5583 98.8882 21.7237 98.6815 22.0131C98.5161 22.2198 98.3921 22.4678 98.2267 22.6746C98.0614 22.8399 97.8133 22.964 97.5652 22.964C97.3172 22.9226 97.0691 22.7573 97.0691 22.5092C97.0278 22.2611 97.2345 22.0131 97.4826 22.0131C97.5239 22.0131 97.5652 22.0131 97.6066 22.0131C97.6479 22.0131 97.6893 21.9717 97.6479 21.9304C97.6479 21.889 97.6066 21.889 97.5652 21.889C97.1932 21.889 96.8624 22.0958 96.7384 22.4678C96.6143 22.7986 96.697 23.212 96.9451 23.4601C97.1932 23.7495 97.5652 23.8735 97.896 23.8322C98.2681 23.7908 98.5988 23.6255 98.8055 23.3361C98.9709 23.1293 99.0949 22.8813 99.3017 22.6746C99.5084 22.5092 99.8391 22.4265 100.087 22.4678C100.377 22.5092 100.625 22.6746 100.79 22.9226C100.873 23.0053 100.955 23.1293 101.079 23.1293" fill="#5958D4"/>
<path d="M122.082 29.992L123.529 37.0617L126.753 35.16L132.169 27.3047L127.167 24.7415L122.082 29.992Z" fill="#9DA1A3"/>
<path d="M96.4074 58.3536L86.8984 62.5706L88.1387 52.855L96.4074 58.3536Z" fill="#5958D4"/>
<path d="M97.193 22.2197C97.193 22.2197 97.1517 22.2197 97.069 22.3024C96.9863 22.3851 96.9036 22.5092 96.945 22.7159C96.9863 22.9226 97.193 23.088 97.4825 23.088C97.7719 23.088 98.0613 22.9639 98.392 22.7572C98.6814 22.5505 99.0122 22.3024 99.3429 22.013C99.6736 21.765 100.128 21.4756 100.666 21.5169C101.203 21.5169 101.699 21.8477 102.072 22.2197C102.444 22.6332 102.733 23.1293 102.898 23.7081C103.229 24.8244 103.064 26.0233 102.568 26.8915C102.072 27.8011 101.327 28.3386 100.625 28.6693C99.9217 28.9587 99.3016 29.0414 98.8881 29.0414C98.6814 29.0414 98.516 29 98.392 29C98.268 29 98.2266 28.9587 98.2266 28.9587C98.2266 28.9174 98.4747 28.9587 98.8881 28.9587C99.3016 28.9587 99.8804 28.876 100.583 28.5453C101.245 28.2145 101.948 27.6771 102.402 26.8089C102.857 25.982 103.022 24.8244 102.692 23.7908C102.526 23.2533 102.278 22.7572 101.948 22.3851C101.617 22.013 101.162 21.7236 100.666 21.7236C100.211 21.7236 99.7977 21.9303 99.4256 22.1784C99.0948 22.4265 98.7641 22.7159 98.4333 22.8812C98.1026 23.088 97.7719 23.212 97.4411 23.1706C97.1104 23.1706 96.8623 22.9226 96.821 22.7159C96.7796 22.5092 96.9036 22.3024 96.9863 22.2611C97.1517 22.1784 97.193 22.2197 97.193 22.2197Z" fill="#9DA1A3"/>
<path d="M103.147 26.9328C103.188 26.9328 103.105 27.2222 102.899 27.5943C102.692 27.9664 102.278 28.4625 101.741 28.8759C101.162 29.2894 100.583 29.4961 100.17 29.5788C99.7151 29.6615 99.467 29.6201 99.467 29.6201C99.467 29.5374 100.583 29.4961 101.658 28.7106C102.692 27.9664 103.105 26.8915 103.147 26.9328Z" fill="#9DA1A3"/>
<path d="M65.9372 67.4904L65.8131 66.2915C65.8545 66.2501 65.8545 66.2088 65.8545 66.2088H65.8131L65.4411 52.9376L78.4642 50.8704L87.7664 41.9403C87.7664 41.9403 83.5907 40.3692 80.9861 40.7413C71.8906 42.023 58.9915 45.9506 58.454 47.3149C57.7099 49.2994 59.1155 60.9995 59.4049 64.6377C59.529 66.3328 59.1155 67.5731 59.2809 68.4C58.9915 68.1933 57.7925 67.2837 57.1311 66.9116C56.3869 66.5395 57.7099 68.8961 58.082 69.4336C58.206 69.6403 58.8675 69.723 59.6117 69.7643C59.653 69.8883 59.6117 69.7643 59.6117 69.7643H60.0664C61.1414 69.7643 62.2576 69.6403 62.5884 69.5989C62.8364 69.5576 63.4979 68.8961 64.1594 68.1519L65.9372 67.4904Z" fill="#263238"/>
<path d="M65.7305 63.8936L59.4049 64.6791L59.2396 68.2346L59.2809 68.4C58.9915 68.1933 57.7925 67.2837 57.1311 66.9116C56.3869 66.5395 57.7099 68.8961 58.082 69.4335C58.206 69.6403 58.8675 69.723 59.6117 69.7643C59.653 69.8883 59.6117 69.7643 59.6117 69.7643H60.0664C61.1414 69.7643 62.2576 69.6403 62.5884 69.5989C62.8364 69.5576 63.4979 68.8961 64.1594 68.1519L65.9372 67.4491L65.7305 63.8936Z" fill="#FFBE9D"/>
<path d="M59.4054 64.679L65.7309 63.8935L65.5242 56.3277L62.2994 51.9453L58.7439 57.568L59.4054 64.679Z" fill="#9DA1A3"/>
<path d="M65.2757 91.6348C65.2344 91.6348 65.5651 91.1387 66.0199 90.3945C66.5573 89.5676 67.2188 88.5754 67.9217 87.4178C68.6659 86.2602 69.3687 85.2266 69.8648 84.4824C70.3609 83.7382 70.6917 83.2834 70.733 83.2834C70.7744 83.2834 70.485 83.7796 69.9888 84.5651C69.5341 85.3506 68.8726 86.3842 68.087 87.5418C67.3429 88.6994 66.64 89.733 66.1026 90.4772C65.8545 90.8493 65.6065 91.1387 65.4824 91.3454C65.3997 91.5108 65.2757 91.6348 65.2757 91.6348Z" fill="#9DA1A3"/>
<path d="M71.3533 105.774C71.3533 105.816 70.4024 105.278 69.6583 104.203C68.9141 103.128 68.7487 102.053 68.7901 102.053C68.8727 102.053 69.1208 103.046 69.8236 104.079C70.5265 105.113 71.3947 105.692 71.3533 105.774Z" fill="#9DA1A3"/>
<path d="M100.625 54.3433C100.625 54.3433 100.625 54.426 100.625 54.5913C100.625 54.7567 100.625 55.0048 100.583 55.3355C100.501 55.997 100.335 56.9065 99.9631 58.0228C99.591 59.1391 99.0122 60.3794 98.2267 61.7024C97.4412 63.0253 96.4903 64.3897 95.4154 65.8367C93.2655 68.648 91.281 71.17 89.834 72.9891C89.1312 73.8986 88.5524 74.6015 88.1389 75.1389C87.9322 75.387 87.8082 75.5524 87.6842 75.7177C87.5601 75.8418 87.5188 75.9244 87.5188 75.9244C87.5188 75.9244 87.5601 75.8418 87.6428 75.7177C87.7669 75.5524 87.8909 75.3456 88.0976 75.0976C88.511 74.5601 89.0485 73.8159 89.7513 72.9064C91.1983 71.0459 93.1415 68.524 95.2913 65.754C96.3663 64.3483 97.3585 62.984 98.1027 61.661C98.8882 60.338 99.467 59.0977 99.8804 58.0228C100.253 56.9479 100.459 56.0383 100.583 55.3768C100.625 55.0461 100.666 54.798 100.666 54.6327C100.583 54.426 100.583 54.3433 100.625 54.3433Z" fill="#9DA1A3"/>
<path d="M81.8131 57.8989C81.7717 57.9403 81.2343 57.0307 80.6555 55.9145C80.0766 54.7982 79.6219 53.8473 79.7046 53.8473C79.7459 53.806 80.2834 54.7155 80.8622 55.8318C81.441 56.9067 81.8544 57.8576 81.8131 57.8989Z" fill="#9DA1A3"/>
<path d="M95.7458 63.8521C95.7458 63.8935 94.8363 63.8935 93.6786 63.7695C92.5624 63.6868 91.6528 63.5627 91.6528 63.48C91.6528 63.4387 92.5624 63.4387 93.72 63.5627C94.8363 63.6454 95.7458 63.7694 95.7458 63.8521Z" fill="#9DA1A3"/>
<path d="M83.095 41.3201C83.095 41.3201 83.1364 41.3201 83.219 41.3614C83.3017 41.4028 83.4258 41.4854 83.5498 41.6095C83.7978 41.8575 84.0459 42.3123 84.0872 42.9325C84.1699 44.1314 83.8805 45.8265 82.8883 47.3975C81.8961 48.9686 80.449 49.9608 79.3741 50.4156C78.8367 50.6636 78.3405 50.7877 78.0098 50.8704C77.679 50.9531 77.5137 50.9531 77.5137 50.9531C77.5137 50.9117 78.2578 50.7877 79.3328 50.2916C80.4077 49.7954 81.772 48.8445 82.7229 47.2735C83.6738 45.7438 84.0046 44.0901 83.9632 42.9325C83.9219 42.3537 83.7152 41.8989 83.5084 41.6508C83.2604 41.4028 83.0537 41.3614 83.095 41.3201Z" fill="#9DA1A3"/>
<path d="M84.4179 80.0588L85.4514 78.7359L67.2191 65.6714L64.1597 68.1933L84.4179 80.0588Z" fill="#9DA1A3"/>
<g opacity="0.4">
<path opacity="0.4" d="M57.7926 62.364C57.7926 62.364 57.5859 62.488 57.1725 62.6947C56.7591 62.9014 56.1389 63.1495 55.3947 63.4802C53.865 64.1417 51.7565 64.9272 49.3586 65.7128C46.9607 66.4983 44.7695 67.0771 43.1571 67.4492C42.3716 67.6146 41.7101 67.7799 41.2553 67.8626C40.8005 67.9453 40.5525 67.9866 40.5525 67.9866C40.5525 67.9866 40.8005 67.904 41.2553 67.7799C41.7514 67.6559 42.3716 67.4905 43.1571 67.3252C44.7695 66.9117 46.9194 66.3329 49.3173 65.5474C51.7152 64.7619 53.8237 63.9764 55.3534 63.3562C56.0976 63.0668 56.7177 62.8187 57.1725 62.612C57.5446 62.4467 57.7926 62.3226 57.7926 62.364Z" fill="white"/>
</g>
<g opacity="0.4">
<path opacity="0.4" d="M37.5758 68.1106C37.5758 68.1106 37.4932 68.1519 37.3691 68.1933C37.2037 68.2346 36.997 68.2759 36.7076 68.3586C36.4182 68.4413 36.0875 68.524 35.674 68.5653C35.2606 68.648 34.8058 68.7307 34.3097 68.8134C33.8136 68.8961 33.2348 68.9788 32.656 69.0201C32.0358 69.1028 31.4157 69.1028 30.7129 69.1441C29.3485 69.1855 27.8602 69.1028 26.2891 68.9374C24.7181 68.7307 23.2711 68.4413 21.9481 68.0692C21.2866 67.8625 20.6664 67.6971 20.0876 67.4904C19.5088 67.2837 18.9714 67.077 18.5166 66.9116C18.0205 66.7462 17.607 66.5395 17.235 66.3742C16.8629 66.2088 16.5321 66.0434 16.2841 65.9194C16.036 65.7953 15.8706 65.6713 15.7053 65.5886C15.5812 65.5059 15.4985 65.4646 15.4985 65.4646C15.4985 65.4646 15.5812 65.5059 15.7053 65.5473C15.8706 65.63 16.0773 65.7127 16.3254 65.8367C16.5735 65.9607 16.9042 66.1261 17.2763 66.2501C17.6484 66.4155 18.0618 66.6222 18.5579 66.7876C19.0541 66.953 19.5502 67.1597 20.129 67.3664C20.7078 67.5731 21.3279 67.7385 21.9894 67.9038C23.3124 68.2346 24.7594 68.524 26.3305 68.7307C27.9015 68.8961 29.3899 68.9788 30.7129 68.9788C31.3743 68.9374 32.0358 68.9374 32.6146 68.8961C33.2348 68.8547 33.7723 68.7721 34.2684 68.7307C34.7645 68.6894 35.2193 68.6067 35.6327 68.524C36.0461 68.4827 36.3769 68.4 36.6663 68.3173C36.9143 68.2759 37.1624 68.2346 37.3278 68.1933C37.4932 68.1106 37.5345 68.0692 37.5758 68.1106Z" fill="white"/>
</g>
<g opacity="0.4">
<path opacity="0.4" d="M69.1209 58.4363C69.1622 58.4777 68.8728 58.6844 68.5007 58.8084C68.1286 58.9738 67.8392 59.0565 67.7979 59.0151C67.7565 58.9738 68.0459 58.7671 68.418 58.643C68.7901 58.4777 69.1209 58.395 69.1209 58.4363Z" fill="white"/>
</g>
</svg>
