<svg width="16" height="16" viewBox="0 0 16 16" fill="none" xmlns="http://www.w3.org/2000/svg">
<path d="M4 12.4254C4.00039 12.6661 4.09672 12.8968 4.26789 13.067C4.43905 13.2372 4.67109 13.333 4.91316 13.3334H12.525V4.21063H11.9163V3H4.91316C4.67109 3.00039 4.43905 3.09617 4.26789 3.26636C4.09672 3.43656 4.00039 3.66728 4 3.90797V12.4254ZM4.60877 12.4254V4.76416C4.70653 4.79855 4.80947 4.81606 4.91316 4.81594H5.21755V12.7281H4.91316C4.83249 12.7279 4.75518 12.6959 4.69814 12.6392C4.6411 12.5825 4.60897 12.5056 4.60877 12.4254ZM11.9163 12.7281H5.82852V4.81667H11.9163V12.7281ZM4.91316 3.60531H11.3075V4.21063H4.91316C4.83243 4.21063 4.75501 4.17874 4.69793 4.12198C4.64084 4.06522 4.60877 3.98824 4.60877 3.90797C4.60877 3.8277 4.64084 3.75072 4.69793 3.69396C4.75501 3.6372 4.83243 3.60531 4.91316 3.60531Z" fill="#ffffff"/>
</svg>
