<svg width="16" height="16" viewBox="0 0 16 16" fill="none" xmlns="http://www.w3.org/2000/svg">
<path d="M10.4243 12.3637V11.394C10.4243 10.8796 10.22 10.3863 9.85626 10.0226C9.49254 9.65889 8.99924 9.45456 8.48486 9.45456H4.60596C4.09158 9.45456 3.59827 9.65889 3.23456 10.0226C2.87084 10.3863 2.6665 10.8796 2.6665 11.394V12.3637" stroke="white" stroke-linecap="round" stroke-linejoin="round"/>
<path d="M6.5459 7.51513C7.61703 7.51513 8.48535 6.64681 8.48535 5.57568C8.48535 4.50455 7.61703 3.63623 6.5459 3.63623C5.47477 3.63623 4.60645 4.50455 4.60645 5.57568C4.60645 6.64681 5.47477 7.51513 6.5459 7.51513Z" stroke="white" stroke-linecap="round" stroke-linejoin="round"/>
<path d="M14.3335 12.3637V11.394C14.3332 10.9643 14.1901 10.5468 13.9269 10.2072C13.6636 9.86758 13.295 9.62501 12.8789 9.51758" stroke="white" stroke-linecap="round" stroke-linejoin="round"/>
<path d="M10.9395 3.69922C11.3566 3.80603 11.7264 4.04866 11.9905 4.38884C12.2545 4.72903 12.3978 5.14742 12.3978 5.57806C12.3978 6.0087 12.2545 6.4271 11.9905 6.76728C11.7264 7.10747 11.3566 7.35009 10.9395 7.45691" stroke="white" stroke-linecap="round" stroke-linejoin="round"/>
</svg>
