<svg width="150" height="150" viewBox="0 0 150 150" fill="none" xmlns="http://www.w3.org/2000/svg">
<path d="M91.0664 59.9218V72.3656C91.0664 74.5383 92.9005 76.3442 95.1297 76.3442H139.741C141.999 76.3442 143.804 74.5101 143.804 72.281V61.7559L149.363 55.915L95.1297 55.7457C92.9005 55.7457 91.0664 57.5798 91.0664 59.9218Z" fill="#F5F5F5"/>
<path d="M139.495 63.3096L99.0029 63.1121V61.8706L139.495 62.0681V63.3096Z" fill="#E0E0E0"/>
<path d="M139.495 67.4L99.0029 67.2024V65.9605L139.495 66.1581V67.4Z" fill="#E0E0E0"/>
<path d="M123.461 70.0587L123.455 71.3002L139.482 71.3791L139.488 70.1375L123.461 70.0587Z" fill="#E0E0E0"/>
<path d="M111.738 127.736C105.502 123.39 104.091 115.292 104.317 108.012C104.345 106.798 104.232 105.529 104.797 104.456C105.361 103.384 106.716 102.651 107.816 103.187C108.719 103.61 109.114 104.654 109.622 105.529C110.299 106.686 111.287 107.645 112.472 108.238C113.234 108.633 114.193 108.887 114.955 108.463C115.999 107.899 116.112 106.432 116.112 105.218C116.084 102.961 116.084 100.704 116.084 98.4744C116.084 97.2611 116.084 96.0477 116.451 94.8908C116.817 93.7339 117.664 92.6899 118.793 92.3513C119.949 92.0409 121.36 92.6899 121.614 93.875C121.727 94.3547 121.614 94.8908 121.643 95.3705C121.671 95.8784 121.896 96.4145 122.376 96.5556C122.856 96.6967 123.336 96.3581 123.702 95.9913C124.944 94.7779 125.79 93.1978 126.581 91.6458C127.371 90.0939 128.132 88.4855 129.261 87.1593C130.39 85.8331 131.97 84.789 133.691 84.6762C135.413 84.5915 137.275 85.6356 137.698 87.3568C138.15 89.0498 137.134 90.7993 136.062 92.1537C134.453 94.1854 132.563 96.0195 130.446 97.515C130.079 97.7972 129.656 98.0794 129.515 98.5308C129.261 99.3491 130.023 100.139 130.813 100.393C131.716 100.704 132.704 100.591 133.635 100.704C134.566 100.816 135.61 101.24 135.949 102.114C136.457 103.356 135.413 104.654 134.397 105.5C132.365 107.194 130.051 108.548 127.568 109.451C126.693 109.79 125.734 110.072 125.029 110.692C124.323 111.313 123.872 112.414 124.323 113.26C124.746 114.107 125.875 114.389 126.806 114.22C127.737 114.05 128.556 113.542 129.459 113.204C131.123 112.583 133.268 112.696 134.312 114.135C135.017 115.066 135.074 116.392 134.707 117.521C134.34 118.65 133.635 119.609 132.873 120.512C130.221 123.644 126.806 126.156 122.969 127.482C119.131 128.78 115.576 129.147 111.738 127.736Z" fill="#F5F5F5"/>
<path d="M111.646 133.131C111.9 130.253 112.549 126.838 113.621 123.17C114.694 119.502 116.189 115.58 117.91 111.516C118.334 110.501 118.785 109.513 119.18 108.525C119.603 107.538 120.027 106.578 120.506 105.647C121.437 103.785 122.482 102.064 123.497 100.483C124.541 98.875 125.585 97.4077 126.545 96.0251C127.532 94.6424 128.464 93.3727 129.395 92.2722C131.201 90.043 132.865 88.4064 134.079 87.3342C134.671 86.798 135.151 86.403 135.49 86.1208C135.659 85.9797 135.772 85.8951 135.856 85.8104C135.941 85.754 135.998 85.6976 135.998 85.7258C135.998 85.7258 135.969 85.754 135.885 85.8386C135.8 85.9233 135.687 86.0362 135.518 86.149C135.207 86.4312 134.728 86.8545 134.135 87.3906C132.95 88.4911 131.313 90.1277 129.536 92.3568C128.633 93.4855 127.702 94.7553 126.714 96.1097C125.726 97.4924 124.711 98.9597 123.667 100.568C122.651 102.176 121.607 103.87 120.676 105.732C120.224 106.663 119.801 107.622 119.378 108.61C118.954 109.598 118.531 110.585 118.108 111.601C116.387 115.636 114.891 119.558 113.819 123.227C112.747 126.867 112.098 130.253 111.815 133.131" fill="#E0E0E0"/>
<path d="M120.574 105.642C120.546 105.642 120.518 105.472 120.461 105.134C120.405 104.795 120.32 104.315 120.235 103.723C120.066 102.509 119.897 100.845 119.699 99.0105C119.502 97.1764 119.304 95.5115 119.107 94.3264C119.022 93.7338 118.937 93.2541 118.881 92.9155C118.825 92.5769 118.796 92.4076 118.825 92.3794C118.853 92.3794 118.881 92.5487 118.966 92.8873C119.05 93.2259 119.163 93.7056 119.276 94.2982C119.502 95.4833 119.727 97.1481 119.925 99.0105C120.123 100.816 120.264 102.481 120.405 103.723C120.461 104.287 120.518 104.767 120.546 105.162C120.574 105.444 120.602 105.642 120.574 105.642Z" fill="#E0E0E0"/>
<path d="M136.083 102.737C136.083 102.765 135.858 102.765 135.463 102.822C135.068 102.85 134.475 102.906 133.77 102.991C132.359 103.132 130.384 103.414 128.239 103.838C126.095 104.233 124.176 104.684 122.793 105.051C122.088 105.22 121.552 105.39 121.157 105.503C120.762 105.615 120.564 105.672 120.564 105.644C120.564 105.615 120.762 105.559 121.157 105.418C121.523 105.277 122.088 105.108 122.765 104.91C124.148 104.515 126.066 104.035 128.211 103.612C130.355 103.217 132.331 102.963 133.77 102.85C134.475 102.793 135.068 102.765 135.463 102.765C135.886 102.709 136.083 102.737 136.083 102.737Z" fill="#E0E0E0"/>
<path d="M113.816 122.883C113.816 122.883 113.76 122.826 113.704 122.685C113.619 122.544 113.534 122.347 113.45 122.121C113.224 121.641 112.913 120.908 112.547 120.033C111.785 118.255 110.854 115.772 109.81 113.007C108.794 110.242 107.863 107.759 107.157 105.953C106.819 105.078 106.508 104.373 106.311 103.837C106.226 103.611 106.141 103.413 106.085 103.272C106.028 103.131 106 103.075 106.028 103.075C106.028 103.075 106.085 103.131 106.141 103.272C106.226 103.413 106.311 103.611 106.395 103.837C106.621 104.316 106.931 105.05 107.298 105.925C108.06 107.702 108.991 110.185 110.035 112.951C111.051 115.716 111.982 118.199 112.688 120.005C113.026 120.879 113.337 121.585 113.534 122.121C113.619 122.347 113.704 122.544 113.76 122.685C113.788 122.826 113.816 122.883 113.816 122.883Z" fill="#E0E0E0"/>
<path d="M134.452 116.249C134.452 116.249 134.396 116.278 134.255 116.334C134.085 116.391 133.888 116.447 133.662 116.532C133.098 116.701 132.364 116.955 131.461 117.237C129.599 117.83 127.031 118.704 124.181 119.664C121.359 120.623 118.763 121.47 116.901 122.034C115.97 122.316 115.208 122.542 114.672 122.683C114.418 122.739 114.22 122.796 114.051 122.852C113.91 122.88 113.825 122.909 113.825 122.88C113.825 122.88 113.882 122.852 114.023 122.796C114.192 122.739 114.39 122.683 114.615 122.598C115.18 122.429 115.913 122.175 116.816 121.893C118.679 121.3 121.246 120.426 124.096 119.466C126.918 118.507 129.514 117.66 131.376 117.096C132.308 116.814 133.07 116.588 133.606 116.447C133.86 116.391 134.057 116.334 134.226 116.278C134.367 116.249 134.452 116.221 134.452 116.249Z" fill="#E0E0E0"/>
<path d="M149.616 134.417C149.616 134.445 117.245 134.501 77.3205 134.501C37.3711 134.501 5 134.473 5 134.417C5 134.389 37.3711 134.332 77.3205 134.332C117.245 134.36 149.616 134.389 149.616 134.417Z" fill="#263238"/>
<path d="M120.719 64.8596V131.17C120.719 132.976 119.252 134.415 117.474 134.415H19.4757C17.6698 134.415 16.2307 132.948 16.2307 131.17V64.8596C16.2307 63.0537 17.698 61.6147 19.4757 61.6147H117.474C119.28 61.5864 120.719 63.0537 120.719 64.8596Z" fill="#263238"/>
<path d="M23.3704 63.9082L23.3704 132.138H110.646V63.9082H23.3704Z" fill="#E4E4E4"/>
<path d="M118.21 98.6575C118.563 97.1555 117.632 95.6518 116.13 95.2988C114.628 94.9458 113.124 95.8772 112.771 97.3792C112.418 98.8811 113.35 100.385 114.852 100.738C116.353 101.091 117.857 100.159 118.21 98.6575Z" fill="#5958D4"/>
<path d="M20.3759 87.3786V108.626C20.3759 108.824 20.2348 108.965 20.0373 108.965H19.5576C19.3601 108.965 19.219 108.824 19.219 108.626V87.3786C19.219 87.1811 19.3601 87.04 19.5576 87.04H20.0373C20.2348 87.04 20.3759 87.1811 20.3759 87.3786Z" fill="#5958D4"/>
<path d="M110.648 63.8994H23.3723V68.2446H110.648V63.8994Z" fill="#C9C9C9"/>
<path d="M26.1937 65.9336C26.1937 66.2722 25.9397 66.5261 25.6011 66.5261C25.2625 66.5261 25.0085 66.2722 25.0085 65.9336C25.0085 65.595 25.2625 65.341 25.6011 65.341C25.9397 65.341 26.1937 65.6232 26.1937 65.9336Z" fill="white"/>
<path d="M28.1402 65.9336C28.1402 66.2722 27.8862 66.5261 27.5476 66.5261C27.209 66.5261 26.9551 66.2722 26.9551 65.9336C26.9551 65.595 27.209 65.341 27.5476 65.341C27.8862 65.341 28.1402 65.6232 28.1402 65.9336Z" fill="white"/>
<path d="M30.1141 65.9336C30.1141 66.2722 29.8601 66.5261 29.5215 66.5261C29.1829 66.5261 28.929 66.2722 28.929 65.9336C28.929 65.595 29.1829 65.341 29.5215 65.341C29.8601 65.341 30.1141 65.6232 30.1141 65.9336Z" fill="white"/>
<path d="M37.0938 15C37.0938 15 37.0373 15 36.8962 15.0282C36.7552 15.0282 36.5576 15.0564 36.3319 15.0847C36.0779 15.0847 35.7675 15.1411 35.4007 15.2257C35.2314 15.254 35.0057 15.2822 34.8082 15.3386C34.6106 15.395 34.3849 15.4515 34.1592 15.5361C33.2562 15.8465 32.1557 16.298 31.0553 17.1163C29.9548 17.9346 28.8825 19.0632 28.036 20.5587C27.5846 21.2924 27.2742 22.1389 26.992 23.0136C26.7663 23.9166 26.5687 24.8759 26.5687 25.8917C26.5405 26.3997 26.5969 26.9076 26.6252 27.4155C26.6534 27.6694 26.7098 27.9234 26.738 28.2055C26.7663 28.4595 26.8227 28.7417 26.9073 28.9956C27.1331 30.0396 27.5846 31.0555 28.1207 32.043C29.2212 34.0182 31.0553 35.7112 33.3127 36.6706C34.4413 37.1503 35.6829 37.4043 36.9527 37.4325C38.2224 37.4889 39.5204 37.2914 40.7338 36.8399L41.1006 36.6988L41.157 36.6706L41.2135 36.6988C43.0476 37.6018 44.8253 38.4765 46.5747 39.3512L46.4054 39.4923C45.8129 37.7429 45.2485 36.0216 44.6842 34.385L44.656 34.3286L44.7124 34.2722C46.0386 32.9178 46.9698 31.253 47.4495 29.5882C47.9574 27.8952 48.0138 26.2021 47.7881 24.622C47.5623 23.0418 47.0262 21.631 46.349 20.4459C45.6436 19.2608 44.7971 18.2732 43.9223 17.5395C43.0194 16.7777 42.1164 16.298 41.2981 15.9029C40.4516 15.5643 39.6897 15.3386 39.069 15.2257C38.7586 15.1693 38.4764 15.1411 38.2507 15.0847C38.0249 15.0847 37.7992 15.0564 37.6299 15.0564C37.4606 15.0564 37.3477 15.0282 37.2631 15.0282C37.122 15 37.0938 15 37.0938 15C37.0938 15 37.1502 15 37.2348 15C37.3195 15 37.4606 15 37.6017 15C37.771 15 37.9685 15 38.2224 15.0282C38.4764 15.0564 38.7586 15.1129 39.069 15.1411C39.6897 15.254 40.4516 15.4515 41.3263 15.7901C42.1729 16.1569 43.104 16.6648 44.007 17.4267C44.9099 18.1885 45.7847 19.1479 46.4901 20.3612C47.1955 21.5746 47.7599 23.0136 47.9856 24.5938C48.2113 26.1739 48.1549 27.9234 47.647 29.6446C47.1391 31.3658 46.2079 33.0306 44.8535 34.4133L44.8817 34.3004C45.4461 35.937 46.0104 37.63 46.603 39.4077L46.6876 39.6616L46.4337 39.5488C44.6842 38.7022 42.9065 37.7993 41.0724 36.8964H41.157L40.7902 37.0374C39.5487 37.4889 38.2224 37.7147 36.9245 37.63C35.6265 37.6018 34.3567 37.3196 33.1998 36.8399C30.886 35.8523 29.0236 34.1311 27.8949 32.1277C27.3306 31.1401 26.8791 30.0679 26.6534 29.0238C26.5687 28.7699 26.5405 28.4877 26.4841 28.2338C26.4559 27.9798 26.3994 27.6976 26.3712 27.4437C26.343 26.9076 26.2866 26.3997 26.343 25.8917C26.343 24.8759 26.5687 23.8883 26.7945 22.9854C27.0766 22.0825 27.4153 21.2359 27.8667 20.4741C28.7415 18.9786 29.8419 17.8217 30.9706 17.0034C32.0993 16.1851 33.1998 15.7336 34.1309 15.4515C34.3567 15.395 34.5824 15.3386 34.7799 15.2822C34.9775 15.2257 35.175 15.1975 35.3725 15.1693C35.7393 15.1129 36.0497 15.0564 36.3037 15.0564C36.5576 15.0564 36.7552 15.0282 36.868 15.0282C37.0373 15 37.0938 15 37.0938 15Z" fill="#263238"/>
<path d="M35.2788 24.8476H36.0689L37.7901 22.4774L37.8184 20.9254C37.8184 20.9254 39.0317 20.869 38.8624 22.9006C38.6931 24.9322 38.8624 24.4243 38.8624 24.4243C38.8624 24.4243 41.4302 24.4526 41.6277 24.6783C41.7688 24.8476 41.8252 27.3871 41.8252 28.7697C41.8252 29.4752 41.4019 30.0959 40.7529 30.2652C40.6683 30.2935 40.5554 30.2935 40.4708 30.2935C39.8218 30.2935 36.5768 29.7291 36.5768 29.7291L35.2224 29.7009L35.2788 24.8476Z" fill="#5958D4"/>
<path d="M33.0476 24.394L33.4427 29.7271L34.7971 29.7553L34.8535 24.5069L33.0476 24.394Z" fill="#5958D4"/>
<g opacity="0.95">
<rect x="39.0361" y="89.9648" width="59.077" height="13.187" rx="3" fill="#F5F5F5"/>
<path d="M41.9458 93.8403L71.2733 93.7085V92.812L41.9458 92.9438V93.8403Z" fill="#E1E1E1"/>
<path d="M41.9429 96.8208L71.2704 96.6626V95.7661L41.9429 95.8979V96.8208Z" fill="#E1E1E1"/>
<path d="M53.5473 98.7471L41.9429 98.8042L41.9473 99.7007L53.5517 99.6436L53.5473 98.7471Z" fill="#E1E1E1"/>
<path d="M93.7595 94.7119H80.8362C80.0351 94.7119 79.3857 95.3613 79.3857 96.1624C79.3857 96.9634 80.0351 97.6128 80.8362 97.6128H93.7595C94.5605 97.6128 95.2099 96.9634 95.2099 96.1624C95.2099 95.3613 94.5605 94.7119 93.7595 94.7119Z" fill="#B7B7B7" fill-opacity="0.3"/>
</g>
<g opacity="0.95">
<rect x="39.0366" y="104.957" width="59.077" height="13.187" rx="3" fill="#F5F5F5"/>
<path d="M41.9453 108.833L71.2728 108.701V107.805L41.9453 107.937V108.833Z" fill="#E1E1E1"/>
<path d="M41.9434 111.813L71.2709 111.655V110.759L41.9434 110.891V111.813Z" fill="#E1E1E1"/>
<path d="M53.5478 113.74L41.9434 113.797L41.9478 114.693L53.5522 114.636L53.5478 113.74Z" fill="#E1E1E1"/>
<path d="M93.76 109.704H80.8367C80.0356 109.704 79.3862 110.353 79.3862 111.154C79.3862 111.955 80.0356 112.604 80.8367 112.604H93.76C94.561 112.604 95.2104 111.955 95.2104 111.154C95.2104 110.353 94.561 109.704 93.76 109.704Z" fill="#B7B7B7" fill-opacity="0.3"/>
</g>
<g filter="url(#filter0_d)">
<g filter="url(#filter1_d)">
<rect width="80.6531" height="18.0029" rx="3" transform="matrix(0.999498 -0.0316953 0.0317214 0.999497 27.3994 75.1875)" fill="white"/>
</g>
<path d="M31.5326 80.3529L71.5452 78.9039L71.5064 77.6802L31.4937 79.1292L31.5326 80.3529Z" fill="#F0F0F0"/>
<path d="M31.6577 84.4193L71.6693 82.9341L71.6304 81.7104L31.6178 83.1596L31.6577 84.4193Z" fill="#F0F0F0"/>
<path d="M47.5804 86.5412L31.7483 87.1213L31.7931 88.3448L47.6253 87.7647L47.5804 86.5412Z" fill="#F0F0F0"/>
<path d="M102.278 79.2957L84.6443 79.8551C83.5512 79.8898 82.6932 80.8041 82.7278 81.8972C82.7625 82.9903 83.6768 83.8484 84.7699 83.8137L102.404 83.2543C103.497 83.2196 104.355 82.3053 104.32 81.2122C104.286 80.1191 103.372 79.261 102.278 79.2957Z" fill="#5958D4"/>
</g>
<path d="M56.652 62.0444C56.652 62.0444 56.0594 60.69 55.9466 60.4078C55.6362 59.5896 53.6892 54.1719 54.1689 53.3536C56.3416 49.5443 58.0064 46.8637 62.2954 46.8637L69.8294 46.8073C69.8294 46.8073 76.9684 45.34 82.0193 61.593L56.652 62.0444Z" fill="#5958D4"/>
<path d="M40.7376 63.4253L50.6136 61.309L62.2109 55.2141L62.2673 46.8901C60.5179 46.4104 57.1882 47.6238 51.178 50.6712L42.2613 55.2706C39.2139 56.8225 38.4802 60.8293 40.7376 63.4253Z" fill="#5958D4"/>
<path d="M62.9732 79.5341C62.8321 79.0544 62.9168 78.7723 63.6222 78.998C65.1177 79.5059 66.4721 79.3366 66.8107 79.0544C67.1493 78.7723 66.839 78.2079 66.3593 78.2362C65.9642 78.2644 65.287 78.1515 64.7791 78.0104C64.3558 77.8976 63.9608 77.7565 63.594 77.5025C63.2836 77.305 63.0014 77.1075 62.7757 76.9382C62.7757 76.9382 61.393 75.9224 60.9416 75.1323L56.1729 77.1639L56.9347 79.5623C56.9347 79.5623 57.1887 80.9732 58.5431 81.4246C59.8975 81.8761 62.0702 81.7068 62.0702 81.7068C62.4653 81.4529 63.989 83.6538 64.4687 84.4438C64.9202 85.2057 65.4845 85.3186 65.6538 84.8389C65.7667 84.5003 64.4123 82.0736 63.9326 81.3118C63.6504 80.9167 63.1425 80.0985 62.9732 79.5341Z" fill="#B77153"/>
<path d="M59.724 81.7067C59.724 81.7349 59.6111 81.7067 59.4418 81.6503C59.2725 81.5656 59.075 81.3963 58.9339 81.1705C58.7928 80.9165 58.7646 80.6625 58.7928 80.4932C58.821 80.3238 58.8774 80.2109 58.8774 80.2109C58.9339 80.2109 58.821 80.6625 59.075 81.0858C59.3289 81.5374 59.7522 81.6785 59.724 81.7067Z" fill="#995037"/>
<path d="M61.2517 81.7633C61.2517 81.7916 61.1388 81.7633 60.9977 81.6787C60.8566 81.594 60.6591 81.4247 60.5462 81.1989C60.4334 80.9731 60.3769 80.7191 60.4051 80.5498C60.4334 80.3805 60.4616 80.2676 60.4898 80.2958C60.5462 80.2958 60.4616 80.7191 60.6873 81.1425C60.8848 81.594 61.2517 81.7351 61.2517 81.7633Z" fill="#995037"/>
<path d="M40.4502 63.0853C40.4502 63.0853 55.5746 80.4673 55.5746 80.1851C55.5464 79.9029 62.3468 74.8238 62.3468 74.8238L47.5045 57.1597L40.4502 63.0853Z" fill="#5958D4"/>
<path d="M49.6196 59.6709C49.6196 59.6709 49.6478 59.6991 49.7325 59.7838C49.8172 59.8684 49.9018 59.9813 50.0147 60.0942C50.2686 60.3763 50.6072 60.7714 51.0305 61.2793C51.877 62.2669 53.0621 63.6496 54.3319 65.2016C55.6299 66.7253 56.7868 68.1362 57.6051 69.152C58.0001 69.66 58.3387 70.055 58.5927 70.3654C58.7056 70.5065 58.7902 70.6194 58.8467 70.704C58.9031 70.7887 58.9313 70.8169 58.9313 70.8169C58.9313 70.8169 58.9031 70.7887 58.8184 70.704C58.7338 70.6194 58.6491 70.5065 58.5363 70.3936C58.2823 70.1115 57.9437 69.7164 57.5204 69.2085C56.6739 68.2209 55.4888 66.8382 54.219 65.2862C52.921 63.7625 51.7641 62.3516 50.9458 61.3357C50.5508 60.8278 50.2122 60.4328 49.9582 60.1224C49.8454 59.9813 49.7607 59.8684 49.7043 59.7838C49.6478 59.7273 49.6196 59.6709 49.6196 59.6709Z" fill="#263238"/>
<path d="M76.3997 61.6755C76.3715 61.6755 76.569 61.2522 76.569 60.575C76.569 60.2364 76.5126 59.8131 76.3715 59.3899C76.2304 58.9666 75.9483 58.5151 75.5814 58.1483C75.2146 57.7533 74.8196 57.4429 74.5092 57.0761C74.1988 56.7375 73.9448 56.3706 73.832 56.032C73.6909 55.6934 73.6909 55.383 73.7191 55.1855C73.7473 54.988 73.8037 54.8751 73.8037 54.8751C73.832 54.8751 73.6627 55.3266 73.9448 55.9756C74.0859 56.286 74.3117 56.6528 74.622 56.9632C74.9324 57.3018 75.3275 57.6404 75.7225 58.0355C76.0893 58.4305 76.3997 58.882 76.5408 59.3334C76.6819 59.7849 76.7383 60.2082 76.7101 60.575C76.6819 60.9418 76.6255 61.224 76.5408 61.3933C76.4562 61.5908 76.3997 61.6755 76.3997 61.6755Z" fill="#263238"/>
<path d="M55.995 48.3005C55.995 48.3005 56.0797 48.2723 56.2208 48.1876C56.3618 48.1312 56.5876 48.0465 56.8697 47.9619C57.1519 47.8772 57.5187 47.7926 57.942 47.7362C58.3653 47.7079 58.8732 47.7079 59.4093 47.8772C59.9454 48.0465 60.4533 48.3569 60.9048 48.8366C61.3563 49.3163 61.6385 49.9653 61.8078 50.6707C61.9488 51.3761 62.0335 52.138 61.9488 52.9281C61.8642 53.7181 61.6102 54.5082 61.1023 55.1854C60.6226 55.8626 59.9454 56.3705 59.2964 56.7938C58.6474 57.217 57.9702 57.5556 57.3494 57.8942C56.0797 58.5432 54.951 59.164 53.9916 59.6719C53.0322 60.1516 52.2703 60.5749 51.7342 60.857C51.4803 60.9981 51.2545 61.0828 51.1134 61.1674C50.9723 61.2238 50.8877 61.2803 50.8877 61.2803C50.8877 61.2803 50.9441 61.2238 51.0852 61.1392C51.2263 61.0545 51.452 60.9417 51.706 60.8006C52.2421 60.5184 53.004 60.0952 53.9634 59.5873C54.9228 59.0794 56.0514 58.4586 57.293 57.8096C57.9138 57.471 58.591 57.1324 59.24 56.7091C59.889 56.2859 60.538 55.8062 61.0177 55.129C61.4974 54.48 61.7513 53.6899 61.836 52.9281C61.9206 52.1662 61.836 51.4044 61.6949 50.7271C61.5538 50.0499 61.2716 49.401 60.8484 48.9495C60.4251 48.498 59.9172 48.1594 59.4093 48.0183C58.9014 47.849 58.4217 47.849 57.9984 47.8772C57.5752 47.9055 57.2084 47.9901 56.9262 48.0748C56.644 48.1594 56.4183 48.2441 56.2772 48.2723C56.0797 48.2723 55.995 48.3005 55.995 48.3005Z" fill="#263238"/>
<path d="M51.2931 61.2827C51.2367 61.2827 51.1238 60.2951 50.4466 59.2792C49.7976 58.2633 48.9229 57.7272 48.9511 57.6707C48.9511 57.6425 49.1768 57.7554 49.5154 58.0094C49.8258 58.2633 50.2491 58.6584 50.5877 59.1663C50.9263 59.7025 51.1238 60.2104 51.2085 60.6055C51.3213 61.0287 51.3213 61.2827 51.2931 61.2827Z" fill="#263238"/>
<path d="M73.5184 59.3907C73.5184 59.3907 73.4055 59.4471 73.208 59.4753C72.9823 59.5318 72.6719 59.56 72.2486 59.5036C71.8254 59.4753 71.3175 59.3342 70.8096 59.0239C70.3016 58.7135 69.7937 58.2338 69.4833 57.5283C69.173 56.8511 69.0601 55.9764 69.314 55.1299C69.4551 54.7066 69.7091 54.2834 70.1041 54.0294C70.3016 53.8883 70.5838 53.8319 70.8378 53.8883C71.0917 53.9448 71.3175 54.1141 71.4585 54.3116C72.0229 55.1581 72.1358 56.2868 71.7972 57.3308C71.6279 57.8387 71.3457 58.3466 70.9506 58.7417C70.5556 59.1367 70.0477 59.4189 69.4833 59.56C68.3829 59.8422 67.1413 59.5882 66.3512 58.8263C65.5612 58.0645 65.2508 56.9358 65.4201 55.9482C65.5047 55.4403 65.7022 54.9888 65.9844 54.622C66.1255 54.4527 66.323 54.2834 66.5488 54.1987C66.7745 54.1141 67.0284 54.1141 67.2542 54.1987C67.6774 54.3962 67.9314 54.8195 67.9878 55.2145C68.0443 55.6378 67.9032 56.0328 67.7621 56.3714C67.4235 57.0487 67.0002 57.5848 66.5488 57.9798C66.1255 58.3749 65.674 58.657 65.3072 58.8546C64.9404 59.0521 64.63 59.1649 64.4325 59.2214C64.3196 59.2496 64.2349 59.2778 64.2067 59.2778C64.1503 59.2778 64.1221 59.306 64.1221 59.306C64.1221 59.306 64.1503 59.306 64.2067 59.2778C64.2632 59.2496 64.3478 59.2496 64.4325 59.1932C64.63 59.1085 64.9404 58.9956 65.3072 58.7981C65.674 58.6006 66.0973 58.3184 66.5205 57.9234C66.9438 57.5283 67.3671 56.9922 67.6774 56.3432C67.8185 56.0046 67.9314 55.6378 67.875 55.2428C67.8185 54.8759 67.5928 54.4809 67.1978 54.3116C67.0002 54.2269 66.8027 54.2269 66.6052 54.3116C66.4077 54.3962 66.2384 54.5373 66.0973 54.7066C65.8151 55.0734 65.6176 55.4967 65.5612 55.9764C65.4201 56.9076 65.7022 58.008 66.4641 58.7135C67.226 59.4471 68.4111 59.7011 69.4551 59.4189C69.9913 59.2778 70.471 58.9956 70.866 58.6288C71.261 58.262 71.515 57.7823 71.6843 57.2744C71.8536 56.7665 71.91 56.2586 71.8536 55.7507C71.8254 55.4967 71.7689 55.271 71.6843 55.017C71.5996 54.7913 71.515 54.5655 71.3739 54.368C71.2328 54.1705 71.0353 54.0294 70.8378 54.0012C70.612 53.9448 70.3863 54.0012 70.217 54.1423C69.8502 54.368 69.5962 54.7631 69.4833 55.1581C69.2294 55.9764 69.3423 56.8229 69.6526 57.4719C69.9348 58.1491 70.4145 58.6288 70.9224 58.9392C71.4303 59.2496 71.91 59.3625 72.3333 59.4189C73.0951 59.5318 73.5184 59.3625 73.5184 59.3907Z" fill="#FAFAFA"/>
<path d="M74.6798 42.4633C74.3694 42.0683 74.1154 41.6168 74.0025 41.109C73.9743 40.9397 73.9461 40.7704 73.9743 40.6293C74.0308 40.46 74.1719 40.3472 74.3412 40.3472C74.5105 40.3754 74.6233 40.5165 74.708 40.6575C74.9619 41.0808 75.2441 41.504 75.4134 41.9836C75.4698 42.1247 75.4981 42.2376 75.4981 42.3786C75.4981 42.5197 75.4134 42.6608 75.3005 42.7172C75.1595 42.7737 74.9901 42.7454 74.8773 42.6608C74.7644 42.5761 74.6798 42.4351 74.5951 42.3222" fill="#995037"/>
<path d="M75.3852 42.1521C75.1313 41.6443 74.8773 41.1082 74.6516 40.6003C74.5669 40.4592 74.5105 40.2899 74.5105 40.1207C74.5105 39.9514 74.5951 39.7539 74.7645 39.6974C74.9055 39.641 75.0748 39.6974 75.1877 39.8103C75.3006 39.9232 75.357 40.036 75.4417 40.1771C75.5545 40.4028 75.6674 40.6285 75.7803 40.8542C75.8649 41.0517 75.9778 41.221 76.006 41.4468C76.0342 41.6443 76.006 41.87 75.8931 42.0393C75.7521 42.2086 75.5263 42.265 75.3288 42.1803" fill="#995037"/>
<path d="M72.0823 46.9766C72.0823 46.9766 71.0382 45.6222 70.9536 44.9167C70.8689 44.2113 71.7437 42.9416 73.606 42.6594C74.5936 42.5183 75.1862 42.2362 75.5248 42.0104C75.7505 41.8411 75.8634 41.559 75.7505 41.2768C75.4966 40.6842 75.0733 39.5838 75.1015 39.4427C75.1862 39.0759 75.4401 39.0759 76.0891 40.007C76.7381 40.9382 77.4718 41.8976 77.3307 42.349C77.1896 42.7723 74.904 44.1267 74.904 44.1267L75.5248 45.1425L72.0823 46.9766Z" fill="#B77153"/>
<path d="M78.2617 60.8029L71.0945 46.7787L75.6939 44.1826L85.3724 59.5331C85.3724 59.5331 85.8803 60.5207 86.5857 61.6494H78.4592" fill="#5958D4"/>
<path d="M75.642 44.2065C75.642 44.2065 75.6137 44.2348 75.5573 44.263C75.5009 44.2912 75.4162 44.3476 75.3034 44.4041C75.0776 44.5451 74.7672 44.7144 74.3722 44.9402C73.5539 45.4199 72.4252 46.0689 71.0426 46.8307L71.0708 46.7461C71.7762 48.1569 72.6792 49.8217 73.5821 51.5994C74.9365 54.2518 76.1217 56.6502 76.94 58.4279C77.3632 59.3026 77.6736 60.0363 77.8993 60.516C78.0122 60.7417 78.0969 60.9392 78.1533 61.0803C78.2097 61.2214 78.2379 61.2778 78.2379 61.2778C78.2379 61.2778 78.2097 61.2214 78.1251 61.0803C78.0686 60.9392 77.9558 60.7417 77.8429 60.516C77.589 60.0081 77.2503 59.3026 76.8271 58.4561C75.9806 56.7067 74.7954 54.3082 73.441 51.6558C72.5381 49.8782 71.6351 48.2134 70.9579 46.8025L70.9297 46.7461L70.9861 46.7179C72.3688 45.956 73.5257 45.3352 74.344 44.8555C74.739 44.6298 75.0494 44.4605 75.2751 44.3476C75.388 44.2912 75.4727 44.263 75.5291 44.2065C75.5855 44.2065 75.642 44.2065 75.642 44.2065Z" fill="#263238"/>
<path d="M56.6453 62.0431C56.6171 62.0713 56.2221 61.3659 55.8835 60.463C55.5449 59.5318 55.432 58.7699 55.4602 58.7417C55.5166 58.7417 55.6859 59.5036 56.0246 60.4065C56.3349 61.3377 56.6735 62.0431 56.6453 62.0431Z" fill="#263238"/>
<path d="M72.4189 41.3854C73.5476 41.8369 74.9303 41.4419 75.6921 40.4825C76.4258 39.5231 76.454 38.084 75.7768 37.0964C77.3852 36.7013 78.401 34.8108 78.0624 33.1741C77.7238 31.5375 76.2847 30.2677 74.6481 29.9009C74.0273 29.7598 73.3501 29.7598 72.7575 29.9574C72.165 30.1549 71.6006 30.5781 71.3467 31.1707" fill="#263238"/>
<path d="M72.1949 37.7173C72.1949 37.7456 71.9974 37.7738 71.6305 37.9431C71.2919 38.1124 70.8405 38.4792 70.5583 39.1C70.4172 39.4104 70.3326 39.7772 70.3608 40.1722C70.389 40.5673 70.5019 40.9905 70.7558 41.3574C70.8687 41.5549 71.038 41.7242 71.2073 41.8653C71.3766 42.0064 71.5741 42.1474 71.7999 42.2321C72.2513 42.4296 72.7592 42.4861 73.2672 42.3732C73.7751 42.2603 74.2265 41.9781 74.5369 41.6113C74.7062 41.442 74.8191 41.2163 74.9037 41.0188C74.9884 40.793 75.0731 40.5955 75.0731 40.3698C75.1295 39.9183 75.0448 39.495 74.9037 39.1282C74.7627 38.7614 74.5087 38.451 74.2548 38.2535C73.7186 37.802 73.1543 37.6891 72.7875 37.6609C72.3924 37.6891 72.1949 37.7456 72.1949 37.7173C72.1949 37.7173 72.2513 37.6891 72.336 37.6891C72.4488 37.6609 72.5899 37.6327 72.7875 37.6327C73.1825 37.6327 73.7751 37.7456 74.3394 38.197C74.6216 38.4228 74.8755 38.7332 75.0448 39.1C75.2141 39.495 75.2988 39.9465 75.2424 40.398C75.2141 40.6237 75.1577 40.8777 75.0448 41.1034C74.9602 41.3291 74.8191 41.5549 74.6498 41.7524C74.3112 42.1474 73.8315 42.4296 73.2954 42.5707C72.7592 42.6836 72.1949 42.6271 71.7434 42.4296C71.5177 42.3167 71.2919 42.2039 71.0944 42.0346C70.8969 41.8653 70.7558 41.696 70.6147 41.4985C70.3608 41.1034 70.2479 40.6519 70.2197 40.2287C70.1915 39.8054 70.3043 39.4104 70.4454 39.1C70.7558 38.451 71.2355 38.0842 71.6023 37.9149C71.7716 37.8302 71.9127 37.7738 72.0256 37.7738C72.1385 37.7173 72.1949 37.7173 72.1949 37.7173Z" fill="#E8505B"/>
<path d="M73.4071 33.2592C74.564 33.2028 75.6645 32.2998 75.9467 31.1712C76.2289 30.0425 75.7209 28.7445 74.7333 28.1237C75.213 26.7693 74.7333 25.1327 73.6047 24.258C72.476 23.3833 70.7829 23.2986 69.5696 24.0887C68.6666 22.4803 66.6914 21.5492 64.8855 21.8313C63.0514 22.1135 61.4995 23.6372 61.1327 25.4431C59.4961 24.7659 57.4644 25.1892 56.2229 26.4871C55.0095 27.7851 54.6709 29.845 55.461 31.4251C53.6833 31.5662 52.1878 33.3439 52.3571 35.1215C52.4982 36.8992 54.2759 38.3947 56.0535 38.2536C55.6867 39.4387 56.1382 40.8214 57.154 41.555C58.1416 42.2886 59.6089 42.3169 60.653 41.6396C61.302 42.7119 62.5999 43.3327 63.8415 43.1916C65.0831 43.0505 66.1835 42.1475 66.6068 40.9624" fill="#263238"/>
<path d="M70.0255 46.5208C70.082 45.1381 70.1666 43.8965 70.1666 43.8965C70.1666 43.8965 73.2423 43.5015 73.3834 40.3694C73.5245 37.2372 73.2141 30.0136 73.2141 30.0136L67.5706 27.3047L61.4475 32.2145L62.4069 46.6054C62.548 48.6935 64.3257 50.2737 66.3855 50.1608C68.3607 50.0762 69.9409 48.496 70.0255 46.5208Z" fill="#B77153"/>
<path d="M73.0192 35.3741C72.9628 35.4305 72.6806 35.1767 72.2573 35.1767C71.8341 35.1485 71.5237 35.3741 71.4673 35.3177C71.439 35.2895 71.4955 35.2049 71.6366 35.0921C71.7776 34.9793 72.0034 34.8947 72.2573 34.9229C72.5113 34.9229 72.737 35.0357 72.8499 35.1485C73.0192 35.2613 73.0474 35.3741 73.0192 35.3741Z" fill="#263238"/>
<path d="M68.3617 35.3741C68.3053 35.4305 68.0231 35.1767 67.5999 35.1767C67.1766 35.1485 66.8662 35.3741 66.8098 35.3177C66.7816 35.2895 66.838 35.2049 66.9791 35.0921C67.1202 34.9793 67.3459 34.8947 67.5999 34.9229C67.8538 34.9229 68.0796 35.0357 68.1924 35.1485C68.3335 35.2613 68.39 35.3741 68.3617 35.3741Z" fill="#263238"/>
<path d="M69.9439 38.5358C69.9439 38.5076 70.1978 38.4793 70.6211 38.4229C70.7339 38.4229 70.8186 38.3947 70.8468 38.31C70.875 38.2254 70.8186 38.1125 70.7904 37.9714C70.7057 37.6892 70.5929 37.3788 70.48 37.0684C70.0567 35.7986 69.7463 34.7545 69.8028 34.7545C69.8592 34.7263 70.226 35.7421 70.6493 37.012C70.7622 37.3224 70.8468 37.6328 70.9315 37.915C70.9597 38.0561 71.0443 38.1972 70.9879 38.3665C70.9597 38.4511 70.875 38.5076 70.8186 38.5358C70.7622 38.564 70.6775 38.564 70.6493 38.564C70.1978 38.5922 69.9439 38.564 69.9439 38.5358Z" fill="#263238"/>
<path d="M70.1377 43.8965C70.1377 43.8965 68.0779 43.953 66.0745 42.5703C66.0745 42.5703 67.0338 44.8559 70.0813 44.6584L70.1377 43.8965Z" fill="#995037"/>
<path d="M65.7907 27.4766C64.7749 28.8593 64.8031 30.9191 65.8471 32.2736C66.2986 32.8661 67.004 33.374 67.7377 33.3458C68.4996 33.3176 69.2332 32.6122 69.0639 31.8785C68.7817 32.8097 69.5436 33.882 70.5312 33.9102C71.4906 33.9384 72.3089 32.8661 72.0549 31.935C72.1396 32.2736 72.2242 32.6122 72.3935 32.8944C72.5911 33.1765 72.9297 33.4023 73.2683 33.3458C73.748 33.2894 74.0019 32.7815 74.1148 32.3018C74.4252 30.9191 73.9173 29.3954 72.9014 28.4078C71.8856 27.4202 70.4183 26.9405 68.9792 27.0252C67.5684 27.1098 66.1857 27.7588 65.1417 28.7182" fill="#263238"/>
<path d="M66.1818 28.5747C66.5487 29.4777 66.8308 30.4089 66.8026 31.3965C66.8026 32.3559 66.464 33.3435 65.7868 34.049C65.1096 34.7262 64.0091 35.0366 63.1344 34.698C63.3601 35.5446 63.2755 36.504 62.7393 37.2094C62.2032 37.9149 61.1874 38.2535 60.4255 37.8302C59.7201 37.4634 59.4379 36.6168 59.3251 35.8267C59.0993 33.9361 59.7765 31.9326 61.1028 30.5782C62.429 29.2237 64.4042 28.4901 66.2947 28.6594" fill="#263238"/>
<path d="M62.2878 36.0529C61.8645 35.799 61.3002 35.9965 60.9616 36.3633C60.4537 36.9276 60.3408 37.8587 60.7358 38.5077C61.1309 39.1566 62.0056 39.5234 62.7393 39.3259" fill="#B77153"/>
<path d="M62.1987 38.3946C62.1987 38.4228 62.0576 38.4228 61.8319 38.3663C61.6344 38.3099 61.2958 38.1406 61.1829 37.802C61.1265 37.6328 61.1265 37.4353 61.2111 37.2942C61.2675 37.1531 61.3804 37.0402 61.4651 36.9838C61.6626 36.8427 61.8037 36.871 61.8037 36.871C61.8037 36.8992 61.6908 36.9274 61.5215 37.0685C61.3804 37.1813 61.2111 37.4635 61.324 37.7456C61.4086 38.0278 61.6908 38.197 61.8601 38.2817C62.0576 38.3381 62.1987 38.3663 62.1987 38.3946Z" fill="#995037"/>
<path d="M68.6116 34.0792C68.5834 34.1921 68.1037 34.1639 67.5676 34.1921C67.0315 34.2204 66.58 34.2768 66.5236 34.1639C66.4671 34.051 66.9186 33.7687 67.5676 33.7405C68.1884 33.7122 68.6681 33.9663 68.6116 34.0792Z" fill="#263238"/>
<path d="M73.0124 33.9919C72.9559 34.0483 72.8713 34.0201 72.7584 33.9919C72.6456 33.9636 72.5327 33.9636 72.3634 33.9636C72.1941 33.9919 72.0248 34.0201 71.8837 34.0201C71.7426 34.0201 71.658 33.9919 71.6297 33.9354C71.6015 33.879 71.6862 33.7943 71.799 33.7097C71.9119 33.625 72.0812 33.5404 72.3352 33.5122C72.5891 33.4839 72.8431 33.5968 72.9277 33.7379C73.0406 33.8508 73.0406 33.9636 73.0124 33.9919Z" fill="#263238"/>
<path d="M69.2025 39.3519C69.4283 39.2108 69.7387 39.1543 69.9926 39.239C70.2466 39.3236 70.4441 39.6058 70.3876 39.888C70.3594 40.0291 70.2466 40.1702 70.1337 40.2548C69.9362 40.3959 69.7104 40.4523 69.4847 40.4241C69.259 40.3677 69.0614 40.1984 69.005 39.9726C68.9486 39.7469 69.0614 39.4929 69.259 39.3801" fill="#995037"/>
<path d="M70.75 39.6918C70.75 39.72 70.6372 39.7764 70.4397 39.8329C70.2421 39.8893 69.9318 39.8893 69.6496 39.7482C69.3674 39.6353 69.1417 39.4095 69.0288 39.2402C68.9159 39.0708 68.8877 38.9297 68.9159 38.9297C68.9442 38.9297 69.0006 39.0426 69.1135 39.1837C69.2263 39.3248 69.4238 39.4942 69.706 39.6071C69.96 39.72 70.2421 39.72 70.4397 39.72C70.609 39.6918 70.7218 39.6635 70.75 39.6918Z" fill="#263238"/>
<path d="M64.3793 41.1888C64.3511 41.1888 64.3793 40.9631 64.2664 40.5962C64.1818 40.2294 63.9278 39.6933 63.3635 39.2982C63.0813 39.1007 62.7427 38.9314 62.3477 38.8467C61.9526 38.7903 61.5294 38.7903 61.1061 38.9596C60.9086 39.0442 60.6829 39.1571 60.5136 39.2982C60.316 39.4393 60.1467 39.6086 60.0056 39.8061C59.7235 40.2012 59.5542 40.6809 59.5542 41.2171C59.5542 41.725 59.7235 42.2329 60.0056 42.628C60.1467 42.8255 60.316 42.9948 60.5136 43.1359C60.7111 43.277 60.9086 43.3899 61.1061 43.4745C61.5294 43.6438 61.9526 43.6438 62.3477 43.5874C62.7427 43.5309 63.0813 43.3616 63.3635 43.1359C63.8996 42.7126 64.1536 42.1765 64.2664 41.8379C64.3793 41.3864 64.3793 41.1888 64.3793 41.1888C64.3793 41.1888 64.3793 41.2453 64.3793 41.3581C64.3793 41.471 64.3793 41.6121 64.3229 41.8096C64.2382 42.1765 64.0125 42.7408 63.4481 43.1923C63.166 43.4181 62.7992 43.5874 62.4041 43.672C61.9809 43.7567 61.5294 43.7285 61.0779 43.5592C60.8522 43.4745 60.6264 43.3616 60.4289 43.2205C60.2314 43.0795 60.0339 42.9101 59.8928 42.6844C59.5824 42.2611 59.4131 41.7532 59.4131 41.1888C59.4131 40.6527 59.5824 40.1165 59.8928 39.6933C60.0339 39.4957 60.2314 39.2982 60.4289 39.1571C60.6264 39.016 60.8522 38.9032 61.0779 38.8185C61.5294 38.6492 61.9809 38.6492 62.4041 38.7056C62.8274 38.7903 63.166 38.9596 63.4481 39.1853C64.0125 39.6368 64.2382 40.2012 64.3229 40.568C64.3793 40.7656 64.3793 40.9066 64.3793 41.0195C64.3793 41.1324 64.3793 41.1888 64.3793 41.1888Z" fill="#E8505B"/>
<path d="M73.0091 27.1641C73.0091 27.1641 73.0373 27.1641 73.0937 27.1923C73.1502 27.2205 73.2066 27.2487 73.2912 27.3052C73.4323 27.4462 73.6016 27.7284 73.5452 28.1235C73.4888 28.5185 73.0937 28.8854 72.5576 28.9983C72.0215 29.1111 71.4289 28.9136 70.8928 28.6032L70.3002 28.2646L70.9492 28.4621C71.1749 28.5468 71.316 28.7443 71.3725 28.97C71.4289 29.1958 71.4007 29.4497 71.2878 29.6473C71.1749 29.8448 70.9492 29.9859 70.7235 30.0423C70.4977 30.0988 70.2438 30.0988 70.018 30.0141C69.4537 29.8448 69.0869 29.3651 68.7765 28.9418L68.3814 28.3492L68.8893 28.8572C69.1715 29.1393 69.2562 29.5626 69.1715 29.9295C69.0869 30.2963 68.8329 30.5785 68.5507 30.7196C67.9582 31.0017 67.3092 30.8324 66.9423 30.522C66.5755 30.2116 66.4062 29.8448 66.3216 29.6191C66.2934 29.5062 66.2651 29.3933 66.2651 29.3369C66.2651 29.2804 66.2651 29.224 66.2651 29.224C66.2651 29.224 66.2934 29.3651 66.378 29.5908C66.4627 29.8166 66.632 30.1552 66.9988 30.4374C67.3374 30.7196 67.9582 30.8607 68.4943 30.6067C68.7765 30.4656 68.974 30.2116 69.0586 29.9012C69.1433 29.5908 69.0586 29.224 68.8047 28.97L68.9176 28.8854C69.1997 29.2804 69.5666 29.7319 70.0745 29.873C70.4977 29.9859 70.9774 29.9012 71.2032 29.5626C71.4007 29.224 71.2878 28.7161 70.9492 28.6032L71.0056 28.4903C71.5136 28.8007 72.0779 28.9983 72.5576 28.8854C73.0373 28.8007 73.4041 28.4621 73.4605 28.1235C73.5452 27.7849 73.4041 27.4745 73.263 27.3616C73.1219 27.1923 73.0091 27.1641 73.0091 27.1641Z" fill="#5958D4"/>
<path d="M65.4803 32.187C65.4803 32.187 65.4803 32.2153 65.4521 32.2435C65.4239 32.2717 65.3956 32.3281 65.311 32.3846C65.1981 32.4975 64.9724 32.6668 64.6902 32.7514C64.3798 32.8643 63.9848 32.9207 63.5615 32.7796C63.1383 32.6386 62.6868 32.3281 62.4328 31.8202L62.5457 31.792C62.4328 32.441 61.8967 33.1183 61.1349 33.2876C60.373 33.4569 59.4418 33.0618 59.075 32.2435C58.7646 31.5098 58.9621 30.6632 59.47 30.1835L59.5547 30.2964C59.2161 30.5786 58.7646 30.7197 58.3696 30.7197C57.9463 30.7197 57.5795 30.6068 57.2691 30.4093C56.9587 30.2117 56.733 29.9295 56.5919 29.6191C56.479 29.3087 56.4226 29.0265 56.4508 28.7443C56.479 28.2082 56.733 27.8131 56.9023 27.5874C57.0998 27.3616 57.2409 27.3052 57.2409 27.3052C57.2409 27.3052 57.0998 27.3898 56.9305 27.6156C56.7612 27.8413 56.5354 28.2082 56.5072 28.7443C56.5072 28.9983 56.5354 29.2805 56.6483 29.5627C56.7612 29.8449 56.9869 30.0988 57.2691 30.2964C57.5513 30.4657 57.9181 30.5786 58.3131 30.5786C58.7082 30.5786 59.1032 30.4375 59.4136 30.1835L59.4982 30.2964C59.0468 30.7479 58.8493 31.538 59.1314 32.187C59.4418 32.9207 60.3165 33.3158 61.022 33.1465C61.7274 32.9772 62.2353 32.3846 62.3482 31.7638L62.3764 31.5662L62.4611 31.7355C62.6868 32.2153 63.1101 32.5257 63.5051 32.6668C63.9001 32.8079 64.2952 32.7796 64.6056 32.6668C64.8877 32.5821 65.1135 32.441 65.2263 32.3281C65.4239 32.2435 65.4803 32.187 65.4803 32.187Z" fill="#5958D4"/>
<path d="M59.8925 37.2093C59.8925 37.2093 59.8079 37.2939 59.6386 37.3503C59.4693 37.435 59.1871 37.4914 58.8485 37.4632C58.5099 37.435 58.0866 37.2939 57.7762 36.9271C57.4658 36.5885 57.2683 36.0524 57.353 35.488L57.494 35.5444C57.2401 35.8831 56.8733 36.1934 56.4218 36.4192C56.0832 36.5603 55.7446 36.6449 55.406 36.6449C55.0674 36.6449 54.7288 36.532 54.4466 36.391C53.8822 36.0806 53.5719 35.5444 53.5436 35.0648C53.5154 34.5851 53.6847 34.2182 53.8258 33.9925C53.9105 33.8796 53.9951 33.8232 54.0233 33.7668C54.0798 33.7385 54.108 33.7103 54.108 33.7103C54.108 33.7103 53.9951 33.795 53.854 34.0207C53.7129 34.2182 53.5719 34.5851 53.6283 35.0365C53.6565 35.488 53.9669 35.9959 54.4748 36.2499C54.9827 36.532 55.6881 36.5885 56.3089 36.2781C56.7322 36.0806 57.0708 35.7984 57.3247 35.4598L57.494 35.2341L57.4376 35.5162C57.353 36.0241 57.5223 36.532 57.8044 36.8424C58.0866 37.181 58.4816 37.3221 58.792 37.3503C59.1024 37.3786 59.3846 37.3221 59.5539 37.2657C59.8079 37.2657 59.8925 37.2093 59.8925 37.2093Z" fill="#5958D4"/>
<path d="M75.8626 31.0859C75.8908 31.0859 75.9473 31.2835 75.9191 31.5939C75.8909 31.9043 75.7498 32.3841 75.4112 32.7509C75.0443 33.1178 74.5929 33.2871 74.2825 33.3153C73.9439 33.3436 73.7463 33.2871 73.7463 33.2871C73.7463 33.2589 73.9439 33.2871 74.2543 33.2307C74.5646 33.1742 74.9597 33.0049 75.2983 32.6663C75.6369 32.3276 75.778 31.9043 75.8062 31.5939C75.8909 31.3117 75.8344 31.1142 75.8626 31.0859Z" fill="#5958D4"/>
<path d="M77.6063 34.0508C77.6063 34.0508 77.6628 34.1072 77.691 34.2765C77.7192 34.4176 77.7192 34.6433 77.6346 34.8973C77.5499 35.1513 77.3242 35.4334 76.9573 35.5181C76.788 35.5463 76.5623 35.5463 76.393 35.4616C76.1955 35.377 76.0262 35.2359 75.9415 35.0384L76.0826 34.982C76.1108 35.0666 76.1108 35.1513 76.1108 35.2641C76.1108 35.7438 75.7722 36.1389 75.4054 36.2799C75.2079 36.3364 75.0104 36.3364 74.8411 36.3082C74.6717 36.2517 74.5307 36.1671 74.4178 36.0824C74.1921 35.8849 74.1074 35.6592 74.0792 35.4899C74.051 35.3206 74.0792 35.2359 74.0792 35.2359C74.0792 35.2359 74.0792 35.3206 74.1356 35.4616C74.1638 35.6027 74.2767 35.8285 74.5024 35.9978C74.7 36.1671 75.0386 36.2799 75.3772 36.1671C75.6876 36.0542 75.9697 35.6874 75.9697 35.2923C75.9697 35.2077 75.9697 35.123 75.9415 35.0666L76.0826 35.0102C76.2237 35.3488 76.647 35.4899 76.9291 35.4052C77.2395 35.3488 77.4653 35.0948 77.5499 34.8691C77.6346 34.6433 77.6628 34.4458 77.6346 34.3047C77.6063 34.1354 77.5781 34.0508 77.6063 34.0508Z" fill="#5958D4"/>
<path d="M69.0074 38.2563C69.0356 38.2563 69.0356 38.3127 69.0074 38.4256C68.9792 38.5102 68.9228 38.6513 68.8099 38.7359C68.697 38.8205 68.556 38.877 68.4713 38.877C68.3867 38.877 68.302 38.8487 68.302 38.8487C68.302 38.7923 68.5277 38.7923 68.7253 38.6231C68.8946 38.4538 68.951 38.2281 69.0074 38.2563Z" fill="#263238"/>
<defs>
<filter id="filter0_d" x="23.4929" y="72.7247" width="88.9964" height="28.3631" filterUnits="userSpaceOnUse" color-interpolation-filters="sRGB">
<feFlood flood-opacity="0" result="BackgroundImageFix"/>
<feColorMatrix in="SourceAlpha" type="matrix" values="0 0 0 0 0 0 0 0 0 0 0 0 0 0 0 0 0 0 127 0"/>
<feOffset dy="4"/>
<feGaussianBlur stdDeviation="2"/>
<feColorMatrix type="matrix" values="0 0 0 0 0 0 0 0 0 0 0 0 0 0 0 0 0 0 0.08 0"/>
<feBlend mode="normal" in2="BackgroundImageFix" result="effect1_dropShadow"/>
<feBlend mode="normal" in="SourceGraphic" in2="effect1_dropShadow" result="shape"/>
</filter>
<filter id="filter1_d" x="23.4929" y="72.7247" width="88.9964" height="28.3631" filterUnits="userSpaceOnUse" color-interpolation-filters="sRGB">
<feFlood flood-opacity="0" result="BackgroundImageFix"/>
<feColorMatrix in="SourceAlpha" type="matrix" values="0 0 0 0 0 0 0 0 0 0 0 0 0 0 0 0 0 0 127 0"/>
<feOffset dy="4"/>
<feGaussianBlur stdDeviation="2"/>
<feColorMatrix type="matrix" values="0 0 0 0 0 0 0 0 0 0 0 0 0 0 0 0 0 0 0.2 0"/>
<feBlend mode="normal" in2="BackgroundImageFix" result="effect1_dropShadow"/>
<feBlend mode="normal" in="SourceGraphic" in2="effect1_dropShadow" result="shape"/>
</filter>
</defs>
</svg>
