<svg width="150" height="150" viewBox="0 0 150 150" fill="none" xmlns="http://www.w3.org/2000/svg">
<path d="M22.1019 29.9536L19.481 29.9677L20.0987 146.011L22.7197 145.997L22.1019 29.9536Z" fill="#E0E0E0"/>
<path d="M28.3976 29.9184L25.7766 29.9326L26.3943 145.976L29.0153 145.962L28.3976 29.9184Z" fill="#E0E0E0"/>
<path d="M83.5382 29.6255L80.9172 29.6396L81.5349 145.683L84.1559 145.669L83.5382 29.6255Z" fill="#E0E0E0"/>
<path d="M89.8585 29.6021L87.2375 29.6162L87.8524 145.66L90.4734 145.646L89.8585 29.6021Z" fill="#E0E0E0"/>
<path d="M89.8734 29.5665L19.4673 29.9437L19.4815 32.6046L89.8876 32.2274L89.8734 29.5665Z" fill="#E0E0E0"/>
<path d="M90.0106 53.4167L19.6045 53.7939L19.6087 54.5728L90.0148 54.1956L90.0106 53.4167Z" fill="#E0E0E0"/>
<path d="M90.1439 75.8757L19.7378 76.2529L19.742 77.0317L90.1481 76.6545L90.1439 75.8757Z" fill="#E0E0E0"/>
<path d="M90.2345 98.3312L19.8284 98.7084L19.8325 99.4872L90.2386 99.11L90.2345 98.3312Z" fill="#E0E0E0"/>
<path d="M90.3673 120.787L19.9612 121.164L19.9654 121.943L90.3715 121.566L90.3673 120.787Z" fill="#E0E0E0"/>
<path d="M60.9424 107.831L48.46 107.898L48.5302 121.008L61.0126 120.941L60.9424 107.831Z" fill="#EBEBEB"/>
<path d="M73.3557 107.773L60.8733 107.84L60.9436 120.95L73.426 120.883L73.3557 107.773Z" fill="#F5F5F5"/>
<path d="M48.4961 111.473C56.7849 111.537 65.1066 111.473 73.3954 111.343C73.5265 111.343 73.5265 111.149 73.3954 111.149C65.1066 111.116 56.7849 111.116 48.4961 111.278C48.3978 111.311 48.3978 111.473 48.4961 111.473Z" fill="#E0E0E0"/>
<path d="M57.3514 58.4884L48.2107 58.5374L48.2621 68.1427L57.4028 68.0938L57.3514 58.4884Z" fill="#EBEBEB"/>
<path d="M66.4239 58.4572L57.2832 58.5061L57.3346 68.1115L66.4753 68.0625L66.4239 58.4572Z" fill="#F5F5F5"/>
<path d="M48.2514 61.2089C54.3124 61.2737 60.4062 61.2089 66.4672 61.1118C66.5982 61.1118 66.5982 60.9174 66.4672 60.9174C60.4062 60.885 54.3124 60.9174 48.2514 61.0146C48.1203 61.047 48.1203 61.2089 48.2514 61.2089Z" fill="#E0E0E0"/>
<path d="M59.1205 67.9461L42.51 68.0351L42.5519 75.8557L59.1624 75.7667L59.1205 67.9461Z" fill="#EBEBEB"/>
<path d="M75.6363 67.8448L59.0259 67.9338L59.0678 75.7544L75.6782 75.6654L75.6363 67.8448Z" fill="#F5F5F5"/>
<path d="M42.5365 70.1969C53.5774 70.3265 64.6183 70.1969 75.6592 70.035C75.7902 70.035 75.7902 69.8406 75.6592 69.8406C64.6183 69.7758 53.5774 69.7758 42.5365 70.035C42.4055 70.035 42.4055 70.1969 42.5365 70.1969Z" fill="#E0E0E0"/>
<path d="M47.1071 37.5697L42.9463 37.5922L43.0319 53.6877L47.1927 53.6652L47.1071 37.5697Z" fill="#EBEBEB"/>
<path d="M42.8944 41.9529L38.7336 41.9753L38.7959 53.69L42.9567 53.6676L42.8944 41.9529Z" fill="#E0E0E0"/>
<path d="M53.7054 40.5469L47.2185 40.5819L47.288 53.6271L53.7749 53.592L53.7054 40.5469Z" fill="#E0E0E0"/>
<path d="M55.6387 40.5622L53.5747 40.5734L53.644 53.6185L55.7081 53.6074L55.6387 40.5622Z" fill="#EBEBEB"/>
<path d="M57.7122 43.5489L55.6482 43.56L55.7016 53.5872L57.7657 53.5761L57.7122 43.5489Z" fill="#E0E0E0"/>
<path d="M46.2503 84.7099L42.3997 83.1488L36.6105 97.1058L40.4611 98.6669L46.2503 84.7099Z" fill="#E0E0E0"/>
<path d="M49.8691 82.5471L45.7083 82.5695L45.7938 98.665L49.9546 98.6426L49.8691 82.5471Z" fill="#EBEBEB"/>
<path d="M58.4847 85.4884L51.9978 85.5234L52.0672 98.5685L58.5542 98.5335L58.4847 85.4884Z" fill="#E0E0E0"/>
<path d="M51.9864 80.7025L50.5776 80.7101L50.6733 98.5904L52.0821 98.5828L51.9864 80.7025Z" fill="#EBEBEB"/>
<path d="M50.5848 83.4929L49.864 83.4968L49.9444 98.5864L50.6652 98.5825L50.5848 83.4929Z" fill="#F5F5F5"/>
<path d="M58.6048 97.8906L58.6086 98.6045L73.8431 98.5221L73.8393 97.8082L58.6048 97.8906Z" fill="#F5F5F5"/>
<path d="M75.1483 93.6105L58.5378 93.6995L58.5603 97.8856L75.1707 97.7966L75.1483 93.6105Z" fill="#EBEBEB"/>
<path d="M71.8386 89.4332L58.5044 89.5051L58.5267 93.6913L71.8609 93.6193L71.8386 89.4332Z" fill="#E0E0E0"/>
<path d="M141.866 145.676C141.866 145.709 110.312 145.773 71.4196 145.773C32.5035 145.773 0.973389 145.741 0.973389 145.676C0.973389 145.644 32.5035 145.579 71.4196 145.579C110.336 145.611 141.866 145.644 141.866 145.676Z" fill="#263238"/>
<path d="M131.848 84.3749H87.9126V92.0212H131.848V84.3749Z" fill="#5958D4"/>
<path d="M94.2005 79.6235H127.347V78.0526H94.2005V79.6235Z" fill="#263238"/>
<path d="M132.425 79.62L138.663 56.5806H112.812L107.156 79.62H132.425Z" fill="#263238"/>
<path d="M108.685 77.8858H131.839L137.232 57.6216H113.971L108.685 77.8858Z" fill="#E0E0E0"/>
<path d="M86.8771 83.3798H85.5452V145.715H86.8771V83.3798Z" fill="#5958D4"/>
<path d="M88.2038 83.5443H86.8718V145.674H88.2038V83.5443Z" fill="#263238"/>
<path d="M132.935 83.3798H131.603V145.715H132.935V83.3798Z" fill="#5958D4"/>
<path d="M134.264 83.5443H132.932V145.674H134.264V83.5443Z" fill="#263238"/>
<path d="M144.834 79.748H74.4106V84.8602H144.834V79.748Z" fill="#5958D4"/>
<path d="M111.093 88.491C111.093 89.0269 110.636 89.4804 110.094 89.4804C109.553 89.4804 109.095 89.0269 109.095 88.491C109.095 87.955 109.553 87.5015 110.094 87.5015C110.636 87.5428 111.093 87.955 111.093 88.491Z" fill="#263238"/>
<path d="M52.8826 106.485L43.7953 69.7705C43.1613 67.1331 45.1478 64.5793 47.8951 64.5793H69.4086C71.3106 64.5793 73.0013 65.8771 73.5085 67.7192L83.0606 104.225C83.7369 106.862 81.7504 109.416 79.0031 109.458L57.0246 109.667C55.0804 109.709 53.3475 108.369 52.8826 106.485Z" fill="#5958D4"/>
<path d="M48.0297 64.5795C45.1134 64.5795 43 67.2588 43.6763 70.0637L53.3975 109.667H60.6251L48.0297 64.5795Z" fill="#5958D4"/>
<path d="M88.7741 109.704H67.3874C65.1473 109.704 63.3298 107.904 63.3298 105.685V102.252C63.3298 100.034 65.1473 98.2335 67.3874 98.2335H88.7741C91.0142 98.2335 92.8316 100.034 92.8316 102.252V105.685C92.8316 107.904 91.0142 109.704 88.7741 109.704Z" fill="#5958D4"/>
<g opacity="0.4">
<path opacity="0.4" d="M66.8804 109.428L64.2599 97.957H56.8633L47.4802 64.2982C44.5638 64.2982 42.4505 66.9775 43.1267 69.7824L52.848 109.386H53.1861H66.8804V109.428Z" fill="#0F0118"/>
</g>
<path d="M84.8928 98.2368C84.8928 98.2786 78.8064 98.3622 71.2831 98.3622C63.7597 98.3622 57.6733 98.3204 57.6733 98.2368C57.6733 98.195 63.7597 98.1115 71.2831 98.1115C78.8064 98.1115 84.8928 98.195 84.8928 98.2368Z" fill="#E0E0E0"/>
<path d="M89.9631 112.927H55.4316C54.5018 112.927 53.741 112.173 53.741 111.252C53.741 110.331 54.5018 109.578 55.4316 109.578H90.0054C90.9352 109.578 91.696 110.331 91.696 111.252C91.6538 112.173 90.893 112.927 89.9631 112.927Z" fill="#263238"/>
<path d="M57.8326 112.931L52.1267 145.669H53.6906L61.1717 112.931H57.8326Z" fill="#263238"/>
<path d="M71.2364 112.931L65.1924 145.669H66.7562L74.6177 112.931H71.2364Z" fill="#263238"/>
<path d="M86.0714 112.931L92.834 145.669H91.2702L82.7324 112.931H86.0714Z" fill="#263238"/>
<path d="M35.1182 78.0134C35.1182 78.0134 38.9954 86.4214 39.2598 86.7705C39.4947 87.0906 49.0765 92.4809 49.0765 92.4809L47.8996 87.4625L43.6657 84.2685L39.1423 75.3658L35.1182 78.0134Z" fill="#FFBE9D"/>
<path d="M23.4519 57.9998C23.5106 58.1744 23.4519 58.378 23.3344 58.4944C23.1875 58.6108 22.9819 58.6399 22.835 58.5817C22.5119 58.4362 22.4532 58.0289 22.5119 57.6798C22.5413 57.3307 22.6588 56.9815 22.4825 56.6615C22.3651 56.4288 22.1301 56.2833 21.9245 56.1087C21.572 55.7887 21.3957 55.3232 21.4545 54.8868C21.5132 54.4213 21.8363 54.014 22.2769 53.8685C22.7175 53.7231 23.2756 53.8394 23.5987 53.4903C23.8337 53.2285 23.8337 52.8502 24.0099 52.5593C24.2743 52.0938 24.8911 52.0065 25.4199 52.0356C25.9486 52.0647 26.4773 52.2102 27.006 52.0647C27.4172 51.9483 27.7697 51.6283 28.1515 51.4247C29.0034 50.9883 30.1195 51.1337 30.8245 51.8029C31.5294 52.4429 31.7351 53.5485 31.3532 54.4213C31.2063 54.7413 30.9714 55.0323 30.6776 55.1777" fill="#263238"/>
<path d="M23.982 66.8971L28.9754 66.4898C29.0048 65.9079 28.9754 63.6677 28.9754 63.6677C28.9754 63.6677 31.0609 63.3477 31.0902 61.282C31.1196 59.2164 30.7671 54.5032 30.7671 54.5032C28.3585 53.4849 25.5975 53.8341 23.512 55.4051L23.2183 55.6379L23.982 66.8971Z" fill="#FFBE9D"/>
<path d="M30.0365 58.0178C29.919 57.9014 29.8897 57.7268 30.0072 57.6104C30.1247 57.4941 30.3009 57.465 30.4184 57.5813C30.5359 57.6977 30.5653 57.8723 30.4478 57.9887C30.3596 58.105 30.154 58.1341 30.0365 58.0178Z" fill="#263238"/>
<path d="M30.7706 57.5789C30.7413 57.6079 30.5356 57.4627 30.2419 57.4627C29.9482 57.4627 29.7426 57.6079 29.7132 57.5789C29.6838 57.5499 29.7426 57.4918 29.8307 57.4337C29.9188 57.3756 30.0657 57.2885 30.2419 57.2885C30.4182 57.2885 30.565 57.3466 30.6531 57.4337C30.7413 57.5208 30.7706 57.5789 30.7706 57.5789Z" fill="#263238"/>
<path d="M27.2718 57.8502C27.4187 57.9375 27.4481 58.112 27.3599 58.2575C27.2718 58.403 27.0956 58.4321 26.9487 58.3448C26.8019 58.2575 26.7725 58.0829 26.8606 57.9375C26.9487 57.792 27.125 57.7629 27.2718 57.8502Z" fill="#263238"/>
<path d="M27.6539 57.8411C27.6246 57.8702 27.419 57.725 27.1252 57.725C26.8315 57.725 26.6259 57.8702 26.5965 57.8411C26.5671 57.8121 26.6259 57.754 26.714 57.6959C26.8021 57.6378 26.949 57.5507 27.1252 57.5507C27.3015 57.5507 27.4483 57.6088 27.5364 57.6959C27.6246 57.754 27.6833 57.8121 27.6539 57.8411Z" fill="#263238"/>
<path d="M28.805 60.1834C28.805 60.1543 28.9812 60.1252 29.275 60.0961C29.3631 60.0961 29.4218 60.067 29.4218 60.0379C29.4218 59.9797 29.3925 59.9215 29.3631 59.8342C29.275 59.6597 29.2162 59.456 29.1281 59.2524C28.805 58.4377 28.5994 57.7686 28.6288 57.7395C28.6581 57.7104 28.9519 58.3796 29.275 59.1942C29.3631 59.3978 29.4218 59.5724 29.4806 59.7761C29.51 59.8633 29.5687 59.9506 29.51 60.0961C29.4806 60.1543 29.4218 60.2125 29.3925 60.2125C29.3337 60.2415 29.3043 60.2415 29.275 60.2415C28.9812 60.2125 28.805 60.2125 28.805 60.1834Z" fill="#263238"/>
<path d="M27.8622 60.4979C28.2441 60.6433 28.6847 60.8179 29.2721 60.9052C29.2721 60.9052 28.949 61.4289 28.3322 61.2252C27.7153 60.9925 27.8622 60.4979 27.8622 60.4979Z" fill="white"/>
<path d="M28.9709 63.6725C28.9709 63.6725 27.6491 63.7889 26.2686 62.9161C26.2686 62.9161 26.9148 64.3998 28.9709 64.1962V63.6725Z" fill="#EB996E"/>
<path d="M30.7687 55.0635C30.7687 55.0635 29.5644 55.7618 27.8608 55.0635C26.7446 54.598 25.4816 54.4526 25.2172 54.6853C24.9528 54.9181 24.9822 56.0236 23.9248 56.4309C23.9248 56.4309 24.1598 58.5257 23.308 58.4966C22.4561 58.4966 22.7499 55.209 22.7499 55.209L24.7472 54.0744L26.9796 53.4925L29.1238 53.638L30.7981 53.958V55.0635H30.7687Z" fill="#263238"/>
<path d="M23.4153 57.7915C23.3859 57.7624 21.976 57.3842 22.0347 58.7807C22.0935 60.1772 23.5034 59.8572 23.5034 59.799C23.5034 59.7699 23.4153 57.7915 23.4153 57.7915Z" fill="#FFBE9D"/>
<path d="M23.0654 59.3027C23.0654 59.3027 23.036 59.3318 23.0066 59.3318C22.9773 59.3609 22.8891 59.3609 22.8304 59.3318C22.6835 59.2736 22.5367 59.0409 22.5367 58.8081C22.5367 58.6918 22.566 58.5463 22.5954 58.459C22.6248 58.3427 22.7129 58.2845 22.7716 58.2554C22.8598 58.2263 22.8891 58.2845 22.9185 58.3136C22.9479 58.3427 22.9185 58.3717 22.9479 58.3717C22.9479 58.3717 22.9772 58.3427 22.9772 58.2845C22.9772 58.2554 22.9479 58.2263 22.9185 58.1972C22.8891 58.1681 22.8304 58.1681 22.7716 58.1681C22.6541 58.1681 22.566 58.2845 22.5073 58.4008C22.4485 58.5172 22.4192 58.6627 22.4485 58.8081C22.4779 59.0991 22.6248 59.3609 22.8304 59.39C22.9185 59.4191 23.0066 59.39 23.0654 59.3318V59.3027Z" fill="#EB996E"/>
<path d="M22.459 53.4617C22.4297 53.4326 22.6646 53.3165 22.9584 53.4036C23.2521 53.4907 23.3696 53.694 23.3402 53.723C23.3108 53.7521 23.1346 53.6069 22.8996 53.5488C22.694 53.4617 22.4884 53.4907 22.459 53.4617Z" fill="#263238"/>
<path d="M23.2812 52.5575C23.3399 52.5575 23.3105 52.8484 23.3986 53.1976C23.4574 53.5467 23.6336 53.7794 23.6043 53.8085C23.5749 53.8376 23.3399 53.6049 23.2518 53.2266C23.1637 52.8484 23.2518 52.5575 23.2812 52.5575Z" fill="#263238"/>
<path d="M29.3573 57.1532C29.2985 57.0952 29.5629 56.8628 29.9741 56.8338C30.3853 56.8048 30.6791 57.008 30.6203 57.0952C30.5909 57.1823 30.2972 57.1242 29.9741 57.1532C29.6804 57.1532 29.416 57.2113 29.3573 57.1532Z" fill="#263238"/>
<path d="M26.18 56.8637C26.1213 56.8057 26.3856 56.5734 26.7969 56.5443C27.2081 56.5153 27.5018 56.7186 27.4431 56.8057C27.4137 56.8928 27.12 56.8347 26.7969 56.8637C26.5031 56.8928 26.2094 56.9509 26.18 56.8637Z" fill="#263238"/>
<path d="M14.4393 143.767L13.9399 145.833C13.9399 145.833 10.5327 150.197 9.50461 149.993C8.82904 149.848 9.65148 148.713 10.9439 145.396L11.2082 144.029L14.4393 143.767Z" fill="#5958D4"/>
<path d="M9.35547 149.319C9.35547 149.319 9.38484 149.406 9.53171 149.494C9.67857 149.581 9.94293 149.581 10.1779 149.406C10.6479 149.057 11.2353 148.475 11.8815 147.806C12.4984 147.166 13.0271 146.526 13.4089 146.061C13.5852 145.857 13.732 145.653 13.8495 145.508C13.8789 145.45 13.9377 145.391 13.967 145.362C13.9964 145.333 13.9964 145.304 14.0258 145.304C14.0258 145.304 14.0258 145.333 13.9964 145.362C13.967 145.42 13.9377 145.45 13.8789 145.508C13.7908 145.653 13.6439 145.828 13.4677 146.061C13.1152 146.526 12.5865 147.166 11.9403 147.835C11.2941 148.475 10.7066 149.057 10.2367 149.406C10.1192 149.494 9.9723 149.552 9.85481 149.552C9.73732 149.552 9.61983 149.523 9.56108 149.494C9.47296 149.464 9.44359 149.406 9.41421 149.348C9.35547 149.348 9.35547 149.319 9.35547 149.319Z" fill="#263238"/>
<path d="M9.85425 147.933C9.85425 147.933 9.97174 147.903 10.148 147.903C10.3242 147.903 10.5592 147.991 10.7942 148.136C11.0292 148.282 11.176 148.456 11.2642 148.631C11.3229 148.776 11.3523 148.893 11.3523 148.893C11.3523 148.893 11.3229 148.776 11.2348 148.631C11.1467 148.485 10.9998 148.311 10.7648 148.165C10.5592 148.02 10.3242 147.962 10.148 147.933C9.94237 147.903 9.85425 147.933 9.85425 147.933Z" fill="#263238"/>
<path d="M13.057 146.882C13.057 146.882 13.0277 146.852 13.0277 146.794C12.9983 146.736 12.9689 146.62 12.9689 146.503C12.9395 146.271 12.9395 145.892 13.1158 145.572C13.292 145.223 13.5857 145.02 13.7914 144.903C13.9088 144.845 13.997 144.816 14.0851 144.816C14.1438 144.816 14.2026 144.816 14.2026 144.816C14.2026 144.816 14.0557 144.845 13.8207 144.961C13.6151 145.078 13.3508 145.281 13.1745 145.601C12.9983 145.921 12.9689 146.271 12.9983 146.503C13.0277 146.736 13.057 146.882 13.057 146.882Z" fill="#263238"/>
<path d="M14.2386 144.11C14.2679 144.11 14.1798 144.401 14.1211 144.779C14.0623 145.157 13.9742 145.419 13.9448 145.419C13.9448 145.419 14.0036 145.128 14.0623 144.75C14.1211 144.372 14.2092 144.081 14.2386 144.11Z" fill="#263238"/>
<path d="M10.8892 145.663C10.8892 145.634 11.0948 145.605 11.3298 145.663C11.5647 145.721 11.741 145.837 11.7116 145.837C11.7116 145.866 11.5354 145.75 11.3004 145.721C11.0948 145.663 10.8892 145.692 10.8892 145.663Z" fill="#263238"/>
<path d="M10.8267 146.008C10.8267 145.979 11.0029 145.95 11.2085 146.008C11.4141 146.066 11.5316 146.182 11.5316 146.182C11.5316 146.211 11.3847 146.095 11.2085 146.066C10.9735 146.008 10.8267 146.037 10.8267 146.008Z" fill="#263238"/>
<path d="M10.5652 146.445C10.5652 146.445 10.7414 146.358 10.947 146.387C11.1526 146.445 11.2701 146.591 11.2701 146.591C11.2701 146.591 11.1233 146.474 10.947 146.445C10.712 146.416 10.5652 146.474 10.5652 146.445Z" fill="#263238"/>
<path d="M11.1279 145.51C11.1279 145.51 11.2748 145.481 11.5392 145.365C11.6566 145.307 11.8035 145.249 11.9504 145.161C12.0385 145.132 12.0972 145.074 12.1854 145.016C12.2441 144.958 12.3322 144.899 12.3322 144.812C12.3322 144.725 12.2147 144.696 12.156 144.696C12.0679 144.725 12.0091 144.783 11.9504 144.841C11.8329 144.958 11.7154 145.074 11.6273 145.161C11.451 145.365 11.3629 145.481 11.3629 145.481C11.3629 145.481 11.3923 145.452 11.4217 145.394C11.451 145.336 11.5392 145.249 11.5979 145.161C11.686 145.074 11.7741 144.958 11.921 144.812C11.9797 144.754 12.0385 144.696 12.156 144.667C12.2441 144.638 12.391 144.696 12.4203 144.812C12.4203 144.929 12.3322 145.016 12.2441 145.074C12.156 145.132 12.0972 145.161 12.0091 145.22C11.8623 145.307 11.7154 145.365 11.5979 145.394C11.4804 145.423 11.3629 145.452 11.3042 145.481C11.1867 145.51 11.1279 145.51 11.1279 145.51Z" fill="#263238"/>
<path d="M11.2924 145.481C11.2924 145.481 11.263 145.336 11.2336 145.103C11.2042 144.986 11.1749 144.841 11.1161 144.725C11.0868 144.666 11.028 144.579 10.9986 144.521C10.9399 144.463 10.8811 144.405 10.793 144.463C10.7343 144.492 10.7343 144.579 10.7343 144.666C10.7343 144.754 10.7637 144.812 10.793 144.899C10.8518 145.045 10.9399 145.161 11.028 145.248C11.1749 145.365 11.2924 145.452 11.2924 145.481C11.2924 145.481 11.263 145.481 11.2043 145.423C11.1455 145.394 11.0868 145.336 10.9986 145.248C10.9105 145.161 10.8224 145.045 10.7637 144.899C10.7343 144.812 10.7049 144.754 10.6755 144.666C10.6755 144.579 10.6755 144.463 10.7637 144.405C10.8811 144.346 10.9693 144.434 11.028 144.492C11.0868 144.55 11.1161 144.637 11.1749 144.696C11.2336 144.841 11.263 144.986 11.2924 145.103C11.3217 145.219 11.3217 145.306 11.3217 145.394C11.2924 145.423 11.2924 145.481 11.2924 145.481Z" fill="#263238"/>
<g opacity="0.4">
<path opacity="0.4" d="M13.9426 145.805L14.1776 144.816C14.1776 144.816 13.3551 144.961 13.1202 145.572C12.9145 146.183 12.9439 146.62 12.9439 146.62L11.1228 148.54C11.1228 148.54 10.6822 147.667 9.85975 147.871C9.85975 147.871 9.21354 149.267 9.24292 149.645C9.27229 150.024 9.68351 149.965 9.83038 149.878C9.88912 149.849 10.6822 149.413 11.4459 148.598C12.4152 147.667 13.4726 146.416 13.9426 145.805Z" fill="black"/>
</g>
<path d="M31.3214 144.799L31.3508 142.064L26.1518 142.006L26.093 146.021L26.4161 146.05C27.8554 146.137 33.7006 146.428 34.6699 146.166C35.7274 145.846 31.3214 144.799 31.3214 144.799Z" fill="#5958D4"/>
<g opacity="0.4">
<g opacity="0.4">
<g opacity="0.4">
<path opacity="0.4" d="M27.9729 145.979C27.9141 145.543 27.6792 145.136 27.3267 144.874C26.9742 144.612 26.563 144.467 26.1224 144.496L26.093 145.921L27.9729 145.979Z" fill="black"/>
</g>
</g>
</g>
<g opacity="0.4">
<path opacity="0.4" d="M33.4639 145.372C33.4639 145.372 34.9913 145.838 34.8151 146.071C34.6095 146.333 28.7055 146.245 26.0913 145.983V145.867L32.994 146.012C32.994 146.042 33.1702 145.402 33.4639 145.372Z" fill="black"/>
</g>
<path d="M26.001 145.896C26.001 145.896 26.0304 145.896 26.0891 145.896C26.1772 145.896 26.236 145.896 26.3535 145.925C26.6178 145.925 26.9115 145.954 27.2934 145.983C28.0865 146.012 29.2026 146.07 30.4069 146.07C31.6112 146.099 32.7274 146.07 33.5205 146.07C33.9023 146.07 34.1961 146.041 34.4604 146.041C34.5485 146.041 34.6366 146.041 34.7248 146.041C34.7835 146.041 34.8129 146.041 34.8129 146.041C34.8129 146.041 34.7835 146.041 34.7248 146.041C34.6366 146.041 34.5779 146.041 34.4604 146.041C34.1961 146.041 33.9023 146.041 33.5205 146.041C32.7274 146.041 31.6112 146.041 30.4069 146.041C29.2026 146.012 28.0865 145.983 27.2934 145.954C26.9115 145.954 26.6178 145.925 26.3535 145.925C26.2653 145.925 26.1772 145.925 26.0891 145.925C26.0304 145.896 26.001 145.896 26.001 145.896Z" fill="#263238"/>
<path d="M32.9948 146.119C33.0242 146.119 33.0242 145.886 33.1711 145.682C33.3179 145.449 33.4942 145.333 33.4942 145.333C33.4942 145.304 33.2592 145.42 33.1123 145.653C32.9655 145.886 32.9948 146.119 32.9948 146.119Z" fill="#263238"/>
<path d="M31.4744 145.349C31.4744 145.349 31.5625 145.262 31.6506 145.146C31.7387 145.03 31.7681 144.914 31.7681 144.914C31.7681 144.914 31.68 145.001 31.5919 145.117C31.5331 145.233 31.4744 145.32 31.4744 145.349Z" fill="#263238"/>
<path d="M31.0469 145.11C31.0469 145.11 31.135 145.081 31.2231 144.994C31.3112 144.907 31.37 144.849 31.37 144.82C31.37 144.82 31.2819 144.849 31.1937 144.936C31.1056 145.023 31.0469 145.081 31.0469 145.11Z" fill="#263238"/>
<path d="M30.8027 144.61C30.8027 144.639 30.9202 144.639 31.0671 144.639C31.214 144.639 31.3314 144.639 31.3314 144.61C31.3314 144.581 31.214 144.581 31.0671 144.581C30.9496 144.581 30.8027 144.581 30.8027 144.61Z" fill="#263238"/>
<path d="M30.699 144.252C30.699 144.281 30.8165 144.34 30.9927 144.34C31.1689 144.369 31.3158 144.311 31.3158 144.311C31.3158 144.281 31.1689 144.311 31.0221 144.281C30.8458 144.281 30.7283 144.252 30.699 144.252Z" fill="#263238"/>
<path d="M31.6792 144.881C31.6792 144.881 31.7967 144.91 32.0023 144.881C32.1198 144.881 32.2373 144.852 32.3548 144.794C32.4135 144.765 32.5016 144.765 32.5604 144.706C32.5898 144.677 32.6191 144.648 32.6485 144.619C32.6485 144.561 32.6485 144.503 32.5898 144.474C32.2667 144.299 31.9436 144.474 31.8261 144.648C31.7673 144.736 31.7379 144.823 31.7086 144.881C31.7086 144.939 31.7086 144.968 31.7086 144.968C31.7086 144.968 31.7379 144.852 31.8554 144.677C31.9142 144.59 32.0317 144.532 32.1492 144.503C32.2667 144.474 32.4429 144.474 32.5604 144.532C32.6191 144.561 32.5898 144.619 32.531 144.677C32.4723 144.706 32.4135 144.736 32.3548 144.765C32.2373 144.794 32.1198 144.823 32.0023 144.852C31.7967 144.881 31.6792 144.881 31.6792 144.881Z" fill="#263238"/>
<path d="M31.7575 144.893C31.7575 144.893 31.8162 144.805 31.7869 144.66C31.7869 144.572 31.7575 144.514 31.6987 144.427C31.64 144.34 31.5519 144.252 31.4344 144.252C31.3463 144.252 31.3169 144.34 31.3169 144.398C31.3169 144.456 31.3463 144.514 31.3756 144.543C31.4344 144.631 31.4931 144.689 31.5225 144.747C31.64 144.834 31.6987 144.893 31.7575 144.893C31.7281 144.893 31.6694 144.834 31.5812 144.718C31.5225 144.66 31.4931 144.602 31.4344 144.514C31.3756 144.456 31.3463 144.311 31.4344 144.311C31.5225 144.311 31.6106 144.398 31.64 144.456C31.6987 144.514 31.7281 144.602 31.7281 144.66C31.7575 144.805 31.7281 144.893 31.7575 144.893Z" fill="#263238"/>
<path d="M26.1223 144.467C26.1223 144.467 26.2692 144.467 26.5042 144.496C26.7391 144.525 27.0623 144.613 27.3266 144.845C27.591 145.078 27.7672 145.369 27.826 145.573C27.9141 145.805 27.9141 145.951 27.9141 145.951C27.9141 145.951 27.9141 145.922 27.9141 145.835C27.9141 145.776 27.8847 145.66 27.8553 145.544C27.7966 145.311 27.6203 145.02 27.3266 144.758C27.0329 144.525 26.7098 144.438 26.4454 144.409C26.3279 144.409 26.2398 144.409 26.1517 144.409C26.1811 144.467 26.1223 144.467 26.1223 144.467Z" fill="#263238"/>
<path d="M26.7117 142.342C26.6821 142.342 26.6821 142.807 26.6525 143.389C26.623 143.971 26.6525 144.437 26.6525 144.437C26.6821 144.437 26.6821 143.971 26.7117 143.389C26.7117 142.807 26.7117 142.342 26.7117 142.342Z" fill="#263238"/>
<path d="M28.6299 145.485C28.6299 145.514 28.953 145.572 29.3936 145.572C29.8048 145.572 30.1573 145.543 30.1573 145.514C30.1573 145.485 29.8048 145.514 29.3936 145.514C28.9824 145.514 28.6299 145.485 28.6299 145.485Z" fill="#263238"/>
<path d="M27.6245 145.485C27.6245 145.485 27.6539 145.544 27.6833 145.631C27.7126 145.718 27.742 145.776 27.742 145.776C27.7714 145.776 27.7714 145.689 27.742 145.602C27.6833 145.514 27.6245 145.456 27.6245 145.485Z" fill="#263238"/>
<path d="M27.229 144.988C27.229 144.988 27.2584 145.046 27.2877 145.104C27.3465 145.162 27.4052 145.191 27.4052 145.191C27.4052 145.191 27.3759 145.133 27.3465 145.075C27.2878 145.017 27.229 144.988 27.229 144.988Z" fill="#263238"/>
<path d="M26.6667 144.788C26.6667 144.817 26.7255 144.817 26.8136 144.846C26.9017 144.875 26.9311 144.904 26.9605 144.904C26.9605 144.904 26.9311 144.817 26.843 144.788C26.7549 144.73 26.6667 144.759 26.6667 144.788Z" fill="#263238"/>
<path d="M26.2883 144.671C26.2883 144.7 26.3177 144.7 26.3471 144.729C26.3764 144.758 26.4352 144.758 26.4352 144.729C26.4352 144.7 26.4058 144.7 26.3765 144.671C26.3471 144.671 26.2883 144.671 26.2883 144.671Z" fill="#263238"/>
<path d="M34.8478 90.2961L32.4392 143.625L24.3616 143.77L25.6834 99.1406L16.6071 144.119H8.91138L19.1919 90.2961" fill="#263238"/>
<path d="M17.0181 143.39L16.8125 144.176L8.91113 144.292L9.02862 143.07L17.0181 143.39Z" fill="#5958D4"/>
<path d="M10.8555 143.352C10.8849 143.352 10.9143 143.468 10.8849 143.584C10.8555 143.701 10.8262 143.788 10.7674 143.788C10.7087 143.788 10.7087 143.672 10.738 143.555C10.7674 143.439 10.8262 143.352 10.8555 143.352Z" fill="#5958D4"/>
<path d="M11.1481 141.607C11.1775 141.607 11.1775 141.81 11.1481 142.043C11.1188 142.276 11.0307 142.48 11.0013 142.48C10.9719 142.48 10.9719 142.276 11.0013 142.043C11.0307 141.781 11.1188 141.607 11.1481 141.607Z" fill="#5958D4"/>
<path d="M11.4399 139.86C11.4693 139.86 11.4693 140.064 11.4399 140.297C11.4105 140.53 11.3224 140.733 11.293 140.733C11.2637 140.733 11.2637 140.53 11.293 140.297C11.3518 140.035 11.4105 139.86 11.4399 139.86Z" fill="#5958D4"/>
<path d="M11.7338 138.12C11.7632 138.12 11.7632 138.323 11.7338 138.556C11.7045 138.789 11.6163 138.993 11.587 138.993C11.5576 138.993 11.5576 138.789 11.587 138.556C11.6457 138.294 11.7045 138.12 11.7338 138.12Z" fill="#5958D4"/>
<path d="M12.0285 136.375C12.0579 136.375 12.0579 136.579 12.0285 136.811C11.9991 137.044 11.911 137.248 11.8816 137.248C11.8523 137.248 11.8523 137.044 11.8816 136.811C11.9404 136.549 11.9991 136.375 12.0285 136.375Z" fill="#5958D4"/>
<path d="M12.3564 134.626C12.3858 134.626 12.3858 134.829 12.3564 135.062C12.327 135.295 12.2389 135.499 12.2095 135.499C12.1802 135.499 12.1802 135.295 12.2095 135.062C12.2389 134.8 12.2976 134.626 12.3564 134.626Z" fill="#5958D4"/>
<path d="M12.6477 132.879C12.677 132.879 12.677 133.082 12.6477 133.315C12.6183 133.548 12.5302 133.752 12.5008 133.752C12.4714 133.752 12.4714 133.548 12.5008 133.315C12.5302 133.053 12.5889 132.879 12.6477 132.879Z" fill="#5958D4"/>
<path d="M12.9362 131.13C12.9656 131.13 12.9656 131.334 12.9362 131.566C12.9069 131.799 12.8187 132.003 12.7894 132.003C12.76 132.003 12.76 131.799 12.7894 131.566C12.8187 131.304 12.9069 131.13 12.9362 131.13Z" fill="#5958D4"/>
<path d="M13.2333 129.384C13.2627 129.384 13.2627 129.588 13.2333 129.82C13.204 130.053 13.1159 130.257 13.0865 130.257C13.0571 130.257 13.0571 130.053 13.0865 129.82C13.1159 129.558 13.204 129.355 13.2333 129.384Z" fill="#5958D4"/>
<path d="M13.5217 127.647C13.5511 127.647 13.5511 127.85 13.5217 128.083C13.4923 128.316 13.4042 128.52 13.3748 128.52C13.3454 128.52 13.3454 128.316 13.3748 128.083C13.4336 127.821 13.4923 127.618 13.5217 127.647Z" fill="#5958D4"/>
<path d="M13.8496 125.898C13.8789 125.898 13.8789 126.101 13.8496 126.334C13.8202 126.567 13.7321 126.77 13.7027 126.77C13.6733 126.77 13.6733 126.567 13.7027 126.334C13.7321 126.072 13.7908 125.868 13.8496 125.898Z" fill="#5958D4"/>
<path d="M14.1423 124.151C14.1717 124.151 14.1717 124.354 14.1423 124.587C14.1129 124.82 14.0248 125.024 13.9954 125.024C13.966 125.024 13.966 124.82 13.9954 124.587C14.0248 124.325 14.1129 124.122 14.1423 124.151Z" fill="#5958D4"/>
<path d="M14.465 122.402C14.4944 122.402 14.4944 122.606 14.465 122.838C14.4357 123.071 14.3475 123.275 14.3182 123.275C14.2888 123.275 14.2888 123.071 14.3182 122.838C14.3475 122.577 14.4063 122.373 14.465 122.402Z" fill="#5958D4"/>
<path d="M14.7622 120.66C14.7915 120.66 14.7915 120.864 14.7622 121.097C14.7328 121.329 14.6447 121.533 14.6153 121.533C14.5859 121.533 14.5859 121.329 14.6153 121.097C14.6447 120.835 14.7328 120.631 14.7622 120.66Z" fill="#5958D4"/>
<path d="M15.0803 118.919C15.1096 118.919 15.1096 119.122 15.0803 119.355C15.0509 119.588 14.9628 119.791 14.9334 119.791C14.904 119.791 14.904 119.588 14.9334 119.355C14.9628 119.093 15.0215 118.89 15.0803 118.919Z" fill="#5958D4"/>
<path d="M15.3774 117.169C15.4068 117.169 15.4068 117.373 15.3774 117.606C15.348 117.839 15.2599 118.042 15.2305 118.042C15.2012 118.042 15.2012 117.839 15.2305 117.606C15.2599 117.344 15.348 117.14 15.3774 117.169Z" fill="#5958D4"/>
<path d="M15.6977 115.425C15.7271 115.425 15.7271 115.629 15.6977 115.861C15.6683 116.094 15.5802 116.298 15.5508 116.298C15.5215 116.298 15.5215 116.094 15.5508 115.861C15.5802 115.6 15.639 115.425 15.6977 115.425Z" fill="#5958D4"/>
<path d="M16.0249 113.676C16.0542 113.676 16.0542 113.879 16.0249 114.112C15.9955 114.345 15.9074 114.548 15.878 114.548C15.8486 114.548 15.8486 114.345 15.878 114.112C15.9074 113.85 15.9661 113.676 16.0249 113.676Z" fill="#5958D4"/>
<path d="M16.3156 111.934C16.345 111.934 16.345 112.137 16.3156 112.37C16.2569 112.603 16.1981 112.807 16.1688 112.807C16.1394 112.807 16.1394 112.603 16.1688 112.37C16.2275 112.108 16.2863 111.934 16.3156 111.934Z" fill="#5958D4"/>
<path d="M16.6396 110.185C16.669 110.185 16.669 110.388 16.6396 110.621C16.5809 110.854 16.5221 111.058 16.4927 111.058C16.4634 111.058 16.4634 110.854 16.4927 110.621C16.5515 110.359 16.6102 110.185 16.6396 110.185Z" fill="#5958D4"/>
<path d="M16.9594 108.443C16.9888 108.443 16.9888 108.647 16.9594 108.88C16.9007 109.112 16.8419 109.316 16.8126 109.287C16.7832 109.258 16.7832 109.083 16.8126 108.851C16.8713 108.618 16.93 108.443 16.9594 108.443Z" fill="#5958D4"/>
<path d="M17.3124 106.694C17.3418 106.694 17.3418 106.898 17.3124 107.13C17.2537 107.363 17.195 107.567 17.1656 107.538C17.1362 107.538 17.1362 107.334 17.1656 107.101C17.195 106.868 17.2537 106.694 17.3124 106.694Z" fill="#5958D4"/>
<path d="M17.6376 104.952C17.667 104.952 17.667 105.156 17.6376 105.389C17.5789 105.622 17.5202 105.825 17.4908 105.796C17.4614 105.796 17.4614 105.592 17.4908 105.36C17.5202 105.156 17.5789 104.952 17.6376 104.952Z" fill="#5958D4"/>
<path d="M17.9602 103.233C17.9895 103.233 17.9895 103.436 17.9602 103.669C17.9014 103.902 17.8427 104.105 17.8133 104.076C17.7839 104.076 17.7839 103.873 17.8133 103.64C17.8427 103.407 17.9308 103.204 17.9602 103.233Z" fill="#5958D4"/>
<path d="M18.3137 101.489C18.343 101.489 18.343 101.693 18.3137 101.925C18.2549 102.158 18.1962 102.362 18.1668 102.333C18.1374 102.333 18.1374 102.129 18.1668 101.896C18.1962 101.663 18.2549 101.489 18.3137 101.489Z" fill="#5958D4"/>
<path d="M18.6396 99.7395C18.669 99.7395 18.669 99.9432 18.6396 100.176C18.5809 100.409 18.5221 100.612 18.4927 100.583C18.4634 100.583 18.4634 100.38 18.4927 100.147C18.5221 99.9141 18.6102 99.7395 18.6396 99.7395Z" fill="#5958D4"/>
<path d="M18.9903 97.9969C19.0196 97.9969 19.0196 98.2006 18.9903 98.4334C18.9315 98.6661 18.8728 98.8698 18.814 98.8407C18.7846 98.8407 18.7846 98.637 18.814 98.4043C18.8728 98.1715 18.9609 97.9969 18.9903 97.9969Z" fill="#5958D4"/>
<path d="M19.3443 96.2866C19.3736 96.2866 19.3736 96.4902 19.3443 96.723C19.2855 96.9557 19.2268 97.1594 19.168 97.1303C19.1387 97.1303 19.1387 96.9266 19.168 96.6939C19.2268 96.4612 19.3149 96.2575 19.3443 96.2866Z" fill="#5958D4"/>
<path d="M19.6922 94.5344C19.7215 94.5344 19.7215 94.7381 19.6922 94.9708C19.6334 95.2036 19.5747 95.4072 19.5159 95.3781C19.4866 95.3781 19.4866 95.1745 19.5159 94.9417C19.5747 94.709 19.6628 94.5344 19.6922 94.5344Z" fill="#5958D4"/>
<path d="M20.0506 92.7896C20.08 92.7896 20.08 92.9932 20.0212 93.226C19.9625 93.4587 19.9037 93.6624 19.845 93.6333C19.8156 93.6333 19.8156 93.4296 19.8744 93.1969C19.9331 92.9641 20.0212 92.7896 20.0506 92.7896Z" fill="#5958D4"/>
<path d="M20.3081 91.507C20.3375 91.507 20.3669 91.6232 20.3375 91.7393C20.3081 91.8555 20.2494 91.9426 20.22 91.9426C20.1906 91.9426 20.1613 91.8265 20.1906 91.7103C20.22 91.5651 20.2788 91.478 20.3081 91.507Z" fill="#5958D4"/>
<path d="M25.7373 143.356C25.7667 143.356 25.796 143.443 25.796 143.589C25.796 143.705 25.7373 143.792 25.7079 143.792C25.6785 143.792 25.6492 143.705 25.6492 143.56C25.6492 143.443 25.7079 143.356 25.7373 143.356Z" fill="#5958D4"/>
<path d="M25.8301 141.583C25.8594 141.583 25.8888 141.787 25.8888 142.019C25.8888 142.252 25.8301 142.456 25.8007 142.456C25.7713 142.456 25.7419 142.252 25.7419 142.019C25.7419 141.787 25.7713 141.583 25.8301 141.583Z" fill="#5958D4"/>
<path d="M25.8921 139.807C25.9214 139.807 25.9508 140.01 25.9508 140.243C25.9508 140.476 25.8921 140.68 25.8627 140.68C25.8333 140.68 25.804 140.476 25.804 140.243C25.804 139.981 25.8333 139.807 25.8921 139.807Z" fill="#5958D4"/>
<path d="M25.9182 138.033C25.9476 138.033 25.9769 138.237 25.9769 138.47C25.9769 138.703 25.9182 138.906 25.8888 138.906C25.8595 138.906 25.8301 138.703 25.8301 138.47C25.8301 138.208 25.8888 138.033 25.9182 138.033Z" fill="#5958D4"/>
<path d="M25.9756 136.23C26.0049 136.23 26.0343 136.434 26.0343 136.666C26.0343 136.899 25.9756 137.103 25.9462 137.103C25.9168 137.103 25.8875 136.899 25.8875 136.666C25.8875 136.434 25.9168 136.23 25.9756 136.23Z" fill="#5958D4"/>
<path d="M26.0063 134.453C26.0357 134.453 26.0651 134.657 26.0651 134.89C26.0651 135.123 26.0063 135.326 25.977 135.326C25.9476 135.326 25.9182 135.123 25.9182 134.89C25.9182 134.657 25.977 134.453 26.0063 134.453Z" fill="#5958D4"/>
<path d="M26.0644 132.676C26.0938 132.676 26.1232 132.88 26.1232 133.112C26.1232 133.345 26.0644 133.549 26.0351 133.549C26.0057 133.549 25.9763 133.345 25.9763 133.112C25.9763 132.88 26.0351 132.676 26.0644 132.676Z" fill="#5958D4"/>
<path d="M26.1487 130.907C26.178 130.907 26.2074 131.111 26.2074 131.343C26.2074 131.576 26.1487 131.78 26.1193 131.78C26.0899 131.78 26.0605 131.576 26.0605 131.343C26.0605 131.111 26.0899 130.907 26.1487 130.907Z" fill="#5958D4"/>
<path d="M26.209 129.131C26.2383 129.131 26.2677 129.335 26.2677 129.567C26.2677 129.8 26.209 130.004 26.1796 130.004C26.1502 130.004 26.1208 129.8 26.1208 129.567C26.1208 129.335 26.1796 129.131 26.209 129.131Z" fill="#5958D4"/>
<path d="M26.269 127.354C26.2984 127.354 26.3278 127.558 26.3278 127.791C26.3278 128.024 26.269 128.227 26.2397 128.227C26.2103 128.227 26.1809 128.024 26.1809 127.791C26.1809 127.558 26.2397 127.354 26.269 127.354Z" fill="#5958D4"/>
<path d="M26.3303 125.581C26.3597 125.581 26.3891 125.785 26.3891 126.017C26.3891 126.25 26.3303 126.454 26.3009 126.454C26.2716 126.454 26.2422 126.25 26.2422 126.017C26.2422 125.755 26.3009 125.581 26.3303 125.581Z" fill="#5958D4"/>
<path d="M26.3906 123.803C26.42 123.803 26.4494 124.006 26.4494 124.239C26.4494 124.472 26.3906 124.676 26.3612 124.676C26.3319 124.676 26.3025 124.472 26.3025 124.239C26.3025 123.977 26.3319 123.774 26.3906 123.803Z" fill="#5958D4"/>
<path d="M26.4153 122C26.4446 122 26.474 122.204 26.474 122.436C26.474 122.669 26.4446 122.873 26.3859 122.873C26.3271 122.873 26.3271 122.669 26.3271 122.436C26.3271 122.204 26.3859 122 26.4153 122Z" fill="#5958D4"/>
<path d="M26.4502 120.223C26.4796 120.223 26.5089 120.427 26.5089 120.659C26.5089 120.892 26.4796 121.096 26.4208 121.096C26.3914 121.096 26.3621 120.892 26.3621 120.659C26.3621 120.427 26.4208 120.223 26.4502 120.223Z" fill="#5958D4"/>
<path d="M26.475 118.45C26.5044 118.45 26.5631 118.654 26.5338 118.887C26.5338 119.119 26.5044 119.323 26.4457 119.323C26.4163 119.323 26.3575 119.119 26.3869 118.887C26.3869 118.654 26.4163 118.45 26.475 118.45Z" fill="#5958D4"/>
<path d="M26.4768 116.678C26.5062 116.678 26.5649 116.882 26.5649 117.115C26.5649 117.347 26.5355 117.551 26.4768 117.551C26.4474 117.551 26.3887 117.347 26.3887 117.115C26.418 116.882 26.4474 116.678 26.4768 116.678Z" fill="#5958D4"/>
<path d="M26.4761 114.901C26.5054 114.901 26.5642 115.104 26.5642 115.337C26.5642 115.57 26.5348 115.773 26.4761 115.773C26.4467 115.773 26.3879 115.57 26.3879 115.337C26.4173 115.104 26.4467 114.901 26.4761 114.901Z" fill="#5958D4"/>
<path d="M26.4761 113.124C26.5054 113.124 26.5642 113.328 26.5642 113.56C26.5642 113.793 26.5348 113.997 26.4761 113.997C26.4467 113.997 26.3879 113.793 26.3879 113.56C26.4173 113.328 26.4467 113.124 26.4761 113.124Z" fill="#5958D4"/>
<path d="M26.4765 111.352C26.5059 111.352 26.5646 111.556 26.5646 111.788C26.5646 112.021 26.5353 112.225 26.5059 112.225C26.4765 112.225 26.4178 112.021 26.4178 111.788C26.3884 111.527 26.4178 111.352 26.4765 111.352Z" fill="#5958D4"/>
<path d="M26.4423 109.547C26.4717 109.547 26.5305 109.751 26.5305 109.983C26.5305 110.216 26.5011 110.42 26.4717 110.42C26.4423 110.42 26.3836 110.216 26.3836 109.983C26.3542 109.751 26.3836 109.547 26.4423 109.547Z" fill="#5958D4"/>
<path d="M26.4184 107.774C26.4478 107.774 26.5065 107.978 26.5065 108.21C26.5065 108.443 26.4772 108.647 26.4478 108.647C26.4184 108.647 26.3597 108.443 26.3597 108.21C26.3303 107.978 26.3597 107.774 26.4184 107.774Z" fill="#5958D4"/>
<path d="M26.36 106.002C26.3894 106.002 26.4481 106.206 26.4481 106.438C26.4481 106.671 26.4188 106.875 26.3894 106.875C26.36 106.875 26.3013 106.671 26.3013 106.438C26.3013 106.206 26.3306 106.002 26.36 106.002Z" fill="#5958D4"/>
<path d="M26.3014 104.224C26.3308 104.224 26.3895 104.428 26.3895 104.661C26.3895 104.894 26.3602 105.097 26.3308 105.097C26.3014 105.097 26.2427 104.894 26.2427 104.661C26.2427 104.428 26.272 104.224 26.3014 104.224Z" fill="#5958D4"/>
<path d="M26.2121 102.448C26.2414 102.448 26.3002 102.651 26.3296 102.884C26.3589 103.117 26.3296 103.32 26.2708 103.32C26.2414 103.32 26.1827 103.117 26.1533 102.884C26.1533 102.651 26.1533 102.448 26.2121 102.448Z" fill="#5958D4"/>
<path d="M26.0379 100.676C26.0673 100.676 26.126 100.879 26.1554 101.112C26.1847 101.345 26.1554 101.549 26.126 101.549C26.0966 101.549 26.0379 101.345 26.0085 101.112C25.9791 100.879 26.0085 100.676 26.0379 100.676Z" fill="#5958D4"/>
<path d="M25.8622 99.3638C25.8916 99.3638 25.9503 99.4509 25.9797 99.567C26.0091 99.6832 25.9797 99.7994 25.921 99.7994C25.8916 99.7994 25.8328 99.7122 25.8035 99.5961C25.8035 99.4799 25.8328 99.3638 25.8622 99.3638Z" fill="#5958D4"/>
<path d="M32.6459 143.886L24.0984 144.002L24.1571 142.606L32.6459 142.635V143.886Z" fill="#5958D4"/>
<path d="M27.0404 90.9619C27.0404 90.9619 27.0404 91.0783 27.0404 91.2819C27.0404 91.5147 27.0111 91.8347 27.0111 92.1838C26.9817 92.9403 26.9229 93.9876 26.8348 95.1223C26.8054 95.7042 26.7467 96.2569 26.7173 96.7515C26.688 97.2461 26.6586 97.7116 26.5117 98.0898C26.3648 98.4681 26.1005 98.6717 25.8949 98.759C25.7774 98.7881 25.7186 98.8172 25.6599 98.8172C25.6012 98.8172 25.5718 98.8172 25.5718 98.8172C25.5718 98.7881 25.6893 98.8172 25.8949 98.7299C26.0711 98.6426 26.3355 98.439 26.453 98.0898C26.5705 97.7407 26.5705 97.3043 26.5998 96.7806C26.6292 96.286 26.6586 95.7333 26.688 95.1514C26.7467 93.9876 26.8348 92.9694 26.8936 92.2129C26.9229 91.8638 26.9523 91.5729 26.9817 91.311C27.0111 91.0783 27.0404 90.9619 27.0404 90.9619Z" fill="#5958D4"/>
<path d="M26.2177 91.6583C26.2177 91.6292 26.3646 91.6583 26.3939 91.8329C26.4233 91.9202 26.4233 92.0365 26.3352 92.1238C26.2471 92.2402 26.1002 92.2402 25.9533 92.2111C25.8358 92.1529 25.7184 92.0365 25.7477 91.8911C25.7477 91.7747 25.8358 91.6874 25.924 91.6292C26.0708 91.5419 26.1883 91.6001 26.1883 91.6292C26.1883 91.6583 26.1002 91.6292 25.9827 91.7165C25.924 91.7456 25.8946 91.8329 25.8946 91.8911C25.8946 91.9493 25.9533 92.0365 26.0415 92.0656C26.1296 92.0947 26.2177 92.0947 26.2471 92.0365C26.3058 91.9783 26.3058 91.9202 26.3058 91.862C26.2764 91.7456 26.2177 91.6874 26.2177 91.6583Z" fill="#5958D4"/>
<path d="M18.605 92.9396C18.605 92.9105 18.8693 93.0269 19.2806 93.0851C19.6918 93.1433 20.3086 93.1142 20.9254 92.8523C21.5129 92.5905 21.9535 92.1541 22.1885 91.7759C22.4235 91.4268 22.5116 91.1649 22.541 91.1649C22.5703 91.1649 22.5116 91.4559 22.2766 91.8341C22.0416 92.2123 21.6304 92.7069 20.9842 92.9687C20.338 93.2597 19.6918 93.2597 19.2512 93.1724C18.84 93.1142 18.605 92.9396 18.605 92.9396Z" fill="#5958D4"/>
<path d="M32.0609 90.9619C32.0902 90.9619 32.0902 91.1947 32.2077 91.5147C32.2959 91.8347 32.5308 92.2711 32.9421 92.6202C33.3533 92.9694 33.7939 93.1148 34.1464 93.173C34.4988 93.2312 34.7044 93.2021 34.7044 93.2312C34.7044 93.2603 34.4988 93.3185 34.117 93.2894C33.7645 93.2603 33.2358 93.1148 32.8246 92.7366C32.4133 92.3584 32.1784 91.8929 32.0902 91.5438C32.0021 91.1947 32.0315 90.9619 32.0609 90.9619Z" fill="#5958D4"/>
<path d="M36.5874 92.1889L19.1986 91.0251L19.4042 82.5298V76.3911L17.4655 79.2131L12.2959 73.889L18.0824 68.3903C19.0811 67.372 20.2266 66.6447 21.6071 66.1501C22.2827 65.9174 22.9877 65.7719 23.8101 65.7428C25.5725 66.2956 27.3643 66.2956 29.1266 65.7428C29.3323 65.7719 29.6554 65.801 30.0078 65.8301C32.3283 66.0919 34.4725 67.1393 36.1468 68.7394L41.6983 76.7111L35.4418 79.9405L34.7075 77.4675C34.6781 77.4384 36.6168 90.5014 36.5874 92.1889Z" fill="#5958D4"/>
<path d="M19.2254 76.7059C19.196 76.6768 19.431 76.2404 19.7835 75.6876C20.1359 75.1639 20.4297 74.7275 20.459 74.7566C20.4884 74.7857 20.2534 75.2221 19.901 75.7749C19.5779 76.2986 19.2547 76.735 19.2254 76.7059Z" fill="#263238"/>
<path d="M88.7818 66.9281L136.53 39.7248L126.429 22.6403L78.7236 49.8288L78.0884 61.4047L88.7818 66.9281Z" fill="#5958D4"/>
<path d="M88.8453 65.1044L135.484 38.1868L125.383 21.1023L78.7722 47.9623L78.137 59.5382L88.8453 65.1044Z" fill="#5958D4"/>
<path d="M92.2764 47.877L92.8821 54.6165L92.0889 55.0435L86.6836 50.8981L87.5176 50.4389L91.9692 53.8137L91.4916 48.2312L92.2764 47.877Z" fill="white"/>
<path d="M98.569 49.7981L95.6336 51.3852L95.7769 53.06L94.9837 53.4869L94.4599 46.6829L95.253 46.2559L100.773 50.3772L99.9387 50.8365L98.569 49.7981ZM97.9167 49.3194L95.2834 47.2913L95.5373 50.6003L97.9167 49.3194Z" fill="white"/>
<path d="M99.5429 47.5093C98.6482 45.8976 99.2321 44.0464 100.933 43.1684C101.767 42.7092 102.674 42.5898 103.498 42.8667L103.259 43.6508C102.615 43.431 101.937 43.5023 101.34 43.8407C100.072 44.5094 99.6527 45.8998 100.336 47.0823C100.979 48.297 102.423 48.6804 103.65 48.044C104.247 47.7056 104.672 47.2374 104.862 46.5583L105.653 46.7946C105.447 47.6192 104.882 48.3299 104.048 48.7891C102.315 49.6266 100.438 49.1209 99.5429 47.5093Z" fill="white"/>
<path d="M109.794 43.7241L106.858 45.3112L107.001 46.986L106.208 47.413L105.685 40.6089L106.478 40.1819L111.997 44.3033L111.163 44.7625L109.794 43.7241ZM109.141 43.2454L106.508 41.2174L106.762 44.5264L109.141 43.2454Z" fill="white"/>
<path d="M114.488 35.8435L117.473 41.3021L116.835 41.6728L111.254 39.3876L113.507 43.4371L112.714 43.8641L109.729 38.4055L110.367 38.0348L115.915 40.2795L113.662 36.23L114.488 35.8435Z" fill="white"/> 
<path d="M117.64 35.0194L115.735 36.0587L115.369 35.3541L119.931 32.8808L120.297 33.5853L118.392 34.6246L121.011 39.3787L120.218 39.8057L117.64 35.0194Z" fill="white"/>
<path d="M10.2131 93.2243L10.5656 94.0389C10.5656 94.0389 10.6831 94.5626 11.0943 95.4354C11.2118 95.6681 11.3586 95.8718 11.5349 96.0464C11.7405 96.25 12.0342 96.5119 12.2692 96.6282C12.5336 96.7446 12.5042 97.1228 12.2398 97.1519C11.9755 97.2101 11.2705 96.8901 10.6831 96.1918C10.0956 95.4936 10.125 96.9192 10.125 97.4429C10.125 97.9665 10.0369 99.5667 9.88999 99.7122C9.655 99.8867 9.42002 99.6831 9.42002 99.1594C9.42002 98.6357 9.36127 97.0646 9.06754 97.0937C8.80319 97.0937 8.83256 99.7703 8.83256 99.7703C8.83256 99.7703 8.92068 100.323 8.59757 100.352C8.01011 100.41 8.18635 97.5592 8.21572 97.2974C8.2451 97.1228 7.92199 97.1228 7.92199 97.3265C7.92199 97.5301 8.01011 99.974 7.42265 100.032C6.98206 100.061 7.54014 97.7047 7.24641 97.2101C6.95268 96.7155 7.01143 99.043 6.57084 99.0721C6.42397 99.0721 6.27711 99.0721 6.45334 97.7047C6.62958 96.3373 7.68701 92.6715 7.68701 92.6715L10.2718 93.2825" fill="#FFBE9D"/>
<path d="M16.6438 78.479C16.6438 78.479 13.0016 81.4756 12.7666 82.4939C12.5316 83.5122 10.7692 94.8587 10.7692 94.8587L7.21509 94.335C7.21509 94.335 7.39133 80.2537 8.65437 78.8572C9.91741 77.4898 13.0016 74.2895 13.0016 74.2895L16.6438 78.479Z" fill="#FFBE9D"/>
<path d="M8.88383 80.3749C8.88383 80.3749 8.82509 80.3458 8.76634 80.2585C8.7076 80.1712 8.64885 80.0258 8.67822 79.8512C8.67822 79.6767 8.79571 79.4439 9.00133 79.2984C9.20694 79.153 9.53004 79.1239 9.76502 79.2693C9.88252 79.3275 10 79.4439 10.0294 79.5894C10.0588 79.7348 10.0588 79.8803 10 79.9967C9.88252 80.2294 9.55941 80.2876 9.41255 80.1712C9.23631 80.0549 9.23631 79.8512 9.29506 79.7639C9.32443 79.6767 9.41255 79.6476 9.41255 79.6476C9.41255 79.6476 9.38318 79.6767 9.3538 79.793C9.32443 79.8803 9.3538 80.0258 9.47129 80.1131C9.58879 80.2003 9.82377 80.1421 9.91189 79.9676C9.97064 79.8803 9.97064 79.7639 9.94126 79.6476C9.91189 79.5312 9.82377 79.4439 9.73565 79.3857C9.53004 79.2693 9.26568 79.2984 9.08945 79.4148C8.91321 79.5312 8.79572 79.7057 8.79572 79.8803C8.73697 80.1712 8.91321 80.3749 8.88383 80.3749Z" fill="#EB996E"/>
<path d="M9.94944 50.9474C10.5392 50.6878 10.9978 50.0712 10.9978 49.3573C10.9978 48.4163 10.2771 47.6375 9.35973 47.6375C8.44238 47.6375 7.72161 48.4163 7.72161 49.3573C7.72161 50.1037 8.14753 50.7203 8.77001 50.9799C6.24731 51.3693 6.37836 54.0627 6.37836 54.0627L12.3083 54.0951C12.2756 54.0627 12.4394 51.3368 9.94944 50.9474Z" fill="#5958D4"/>
<path d="M7.16674 50.2645C7.16674 50.2321 7.2978 50.2645 7.52713 50.1996C7.75647 50.1347 8.08409 50.0049 8.34619 49.6804C8.60829 49.3559 8.73934 48.8367 8.57553 48.3175C8.41172 47.7983 7.88752 47.3764 7.23227 47.3764C6.60979 47.344 6.05283 47.7658 5.85625 48.285C5.65968 48.8042 5.79073 49.3234 6.02006 49.648C6.2494 49.9725 6.57703 50.1347 6.80637 50.1996C7.00294 50.2645 7.16674 50.2645 7.16674 50.2645C7.16674 50.2645 7.13399 50.2645 7.06846 50.2645C7.00294 50.2645 6.90465 50.2645 6.7736 50.2321C6.54427 50.1672 6.18388 50.0374 5.92178 49.6804C5.65968 49.3234 5.49587 48.7718 5.69244 48.1877C5.88902 47.636 6.5115 47.1493 7.19951 47.1817C7.92028 47.1817 8.51 47.7009 8.67381 48.2526C8.87038 48.8367 8.67382 49.3883 8.41172 49.7129C8.11686 50.0698 7.75647 50.1996 7.52713 50.2321C7.39608 50.2645 7.2978 50.2645 7.23227 50.2645C7.19951 50.297 7.16674 50.297 7.16674 50.2645Z" fill="#5958D4"/>
<path d="M5.0097 51.6266C4.97693 51.5941 5.20626 51.2047 5.56665 50.7504C5.92703 50.2961 6.2219 49.9391 6.25466 49.9716C6.28742 50.004 6.05808 50.3934 5.6977 50.8478C5.37007 51.3021 5.04246 51.659 5.0097 51.6266Z" fill="#5958D4"/>
<path d="M15.5162 54.0283C15.5162 54.0283 15.5489 54.0932 15.6472 54.1905C15.7455 54.3203 15.8438 54.4826 16.0076 54.7098C16.3352 55.1641 16.7611 55.8131 17.3508 56.6568C17.3508 56.6892 17.3508 56.6892 17.3508 56.7217C17.3508 56.7217 17.3508 56.7217 17.3181 56.7217C16.3025 56.7217 15.0575 56.7217 13.5832 56.7217H13.5504C13.5177 56.7217 13.5177 56.6892 13.5177 56.6892V56.6568L13.6159 56.7217C12.6986 57.533 11.4864 58.2469 10.0121 58.6038C9.29133 58.7661 8.50503 58.8634 7.68598 58.7985C6.86692 58.7661 6.04786 58.6038 5.22881 58.2793C4.40975 57.9548 3.65622 57.533 2.93545 56.9488C2.24744 56.3647 1.62496 55.6508 1.13352 54.8396C0.150655 53.217 -0.242492 51.1726 0.150655 49.1932C0.51104 47.3435 1.55943 45.6885 2.93545 44.5527C4.31146 43.4169 6.0151 42.7679 7.65321 42.703C9.29133 42.5732 10.8639 42.9951 12.1416 43.709C13.4194 44.4229 14.4022 45.3964 15.0575 46.4349C15.7127 47.4733 16.0731 48.5441 16.2042 49.5177C16.2369 49.6475 16.2369 49.7448 16.2697 49.8746C16.2697 50.0044 16.2697 50.1018 16.3025 50.2316C16.3025 50.4587 16.3352 50.6859 16.3352 50.8806C16.3352 51.3024 16.2697 51.6918 16.2369 52.0164C16.1386 52.6978 15.9421 53.1846 15.811 53.5415C15.7455 53.7038 15.68 53.8336 15.6472 53.9309C15.5489 53.9958 15.5162 54.0283 15.5162 54.0283C15.5162 54.0283 15.5162 53.9958 15.5489 53.8985C15.5817 53.8011 15.6472 53.6713 15.68 53.5091C15.811 53.1846 15.9748 52.6654 16.0731 51.9839C16.1386 51.6594 16.1714 51.27 16.1714 50.8481C16.1714 50.6534 16.1386 50.4263 16.1386 50.1991C16.1386 50.1018 16.1386 49.972 16.1059 49.8746C16.0731 49.7448 16.0731 49.6475 16.0404 49.5177C15.8765 48.5766 15.5489 47.5057 14.8937 46.4998C14.2384 45.4613 13.2556 44.5203 12.0106 43.8064C10.7656 43.1249 9.22581 42.7355 7.62046 42.8328C6.01511 42.9302 4.37699 43.5468 3.00098 44.6501C1.65772 45.7534 0.67485 47.3759 0.281702 49.1932C-0.111445 51.1402 0.28171 53.1521 1.23182 54.7098C1.69049 55.521 2.31297 56.2025 3.00098 56.7866C3.68898 57.3383 4.44251 57.7926 5.22881 58.0846C6.0151 58.4091 6.83416 58.5714 7.62046 58.6038C8.40675 58.6687 9.19305 58.6038 9.91382 58.4416C11.3554 58.1171 12.5676 57.4032 13.4849 56.6243C13.5177 56.5919 13.5504 56.5919 13.5504 56.6243C13.5832 56.6568 13.5832 56.6568 13.5504 56.6892L13.4521 56.6243C13.5504 56.5919 13.5832 56.5919 13.6159 56.5919H13.747C13.8453 56.5919 13.9436 56.5919 14.0091 56.5919C14.1729 56.5919 14.3695 56.5919 14.5333 56.5919C14.8609 56.5919 15.1885 56.5919 15.5162 56.5919C16.1386 56.5919 16.7284 56.5919 17.2198 56.6243L17.187 56.6892C16.6301 55.8455 16.1714 55.1641 15.8765 54.7098C15.7455 54.4826 15.6144 54.3203 15.5489 54.1905C15.5489 54.0932 15.5162 54.0283 15.5162 54.0283Z" fill="#263238"/>
</svg>
