<svg width="150" height="150" viewBox="0 0 150 150" fill="none" xmlns="http://www.w3.org/2000/svg">
<path d="M74.8253 130.988C114.493 130.988 146.651 130.74 146.651 130.433C146.651 130.126 114.493 129.877 74.8253 129.877C35.1573 129.877 3 130.126 3 130.433C3 130.74 35.1573 130.988 74.8253 130.988Z" fill="#0D0E0E"/>
<path d="M100.285 129.858H101.1L101.1 37.5221H100.285L100.285 129.858Z" fill="#263238"/>
<path d="M100.113 128.248H101.334C102.223 128.248 102.926 128.952 102.926 129.84H98.4836C98.5207 128.989 99.2241 128.248 100.113 128.248Z" fill="#263238"/>
<path d="M73.8259 89.7071H111.775L112.96 37.282H75.0107L73.8259 89.7071Z" fill="#5958D4"/>
<path d="M73.1594 88.7074H110.849L112.737 37.282H75.0476L73.1594 88.7074Z" fill="white"/>
<path opacity="0.2" d="M73.1594 88.7074H110.849L112.737 37.282H75.0476L73.1594 88.7074Z" fill="#5958D4"/>
<path d="M75.0847 38.1335H112.923C113.404 38.1335 113.774 37.7633 113.774 37.282C113.774 36.8007 113.404 36.4304 112.923 36.4304H75.0847C74.6034 36.4304 74.2332 36.8007 74.2332 37.282C74.2332 37.7262 74.6034 38.1335 75.0847 38.1335Z" fill="#263238"/>
<path d="M80.157 64.6052C80.3421 59.533 80.5643 54.4608 80.7864 49.3886C80.8605 47.2783 80.9715 45.1309 81.0456 43.0206C81.0456 42.6504 80.4532 42.6504 80.4532 43.0206C80.2681 48.0928 80.046 53.165 79.8238 58.2372C79.7498 60.3475 79.6387 62.4949 79.5647 64.6052C79.5276 64.9755 80.12 64.9755 80.157 64.6052Z" fill="#FAFAFA"/>
<path d="M79.8241 44.0942C87.0436 44.0942 94.2632 44.0942 101.483 44.0202C103.519 43.9832 105.555 43.9832 107.592 43.9461C107.962 43.9461 107.962 43.3538 107.592 43.3538C100.372 43.4648 93.1525 43.5019 85.9329 43.5389C83.8966 43.5389 81.8603 43.5389 79.8241 43.5389C79.4538 43.5019 79.4538 44.0942 79.8241 44.0942Z" fill="#FAFAFA"/>
<path d="M106.888 43.5018C106.703 48.574 106.481 53.6462 106.258 58.7184C106.184 60.8287 106.073 62.9761 105.999 65.0864C105.999 65.4567 106.592 65.4567 106.592 65.0864C106.777 60.0142 106.999 54.942 107.221 49.8698C107.295 47.7595 107.406 45.6121 107.48 43.5018C107.517 43.1316 106.925 43.1316 106.888 43.5018Z" fill="#FAFAFA"/>
<path d="M106.962 63.7908C99.7424 63.7908 92.5228 63.7908 85.3033 63.8648C83.267 63.9018 81.2307 63.9018 79.1944 63.9389C78.8242 63.9389 78.8242 64.5312 79.1944 64.5312C86.414 64.4202 93.6335 64.3831 100.853 64.3461C102.889 64.3461 104.926 64.3461 106.962 64.3461C107.332 64.3831 107.332 63.7908 106.962 63.7908Z" fill="#FAFAFA"/>
<path d="M87.451 66.7898C91.7087 66.8639 95.9294 66.9379 100.187 67.012C101.298 67.049 102.445 67.049 103.556 67.086C103.926 67.086 103.926 66.4937 103.556 66.4937C99.1874 66.4196 94.8187 66.3456 90.4499 66.2345C89.4503 66.1975 88.4506 66.1975 87.451 66.1975C87.0808 66.1604 87.0808 66.7528 87.451 66.7898Z" fill="#FAFAFA"/>
<path d="M88.1915 80.9696C90.635 81.0066 93.0786 81.0436 95.4851 81.1177C95.8553 81.1177 95.8553 80.5253 95.4851 80.5253C93.0415 80.4883 90.598 80.4512 88.1915 80.3772C87.8213 80.3772 87.8213 80.9696 88.1915 80.9696Z" fill="#FAFAFA"/>
<path d="M90.2274 82.5247C91.9675 82.6728 93.7446 82.5617 95.5217 82.6358C95.892 82.6358 95.892 82.0434 95.5217 82.0434C93.7446 81.9694 92.0045 82.1174 90.2274 81.9323C89.8571 81.8953 89.8571 82.4877 90.2274 82.5247Z" fill="#FAFAFA"/>
<path d="M83.7486 47.0932C89.4132 46.9451 95.0778 47.2413 100.742 47.3153C102.149 47.3153 103.519 47.3524 104.926 47.3153C105.296 47.3153 105.296 46.723 104.926 46.723C99.2614 46.8711 93.5968 46.5749 87.9323 46.5008C86.5254 46.5008 85.1555 46.4638 83.7486 46.5008C83.3784 46.5008 83.3784 47.0932 83.7486 47.0932Z" fill="#FAFAFA"/>
<path d="M83.3045 61.4954C90.1908 61.6065 97.0401 61.7176 103.926 61.8656C104.075 61.8656 104.223 61.7176 104.223 61.5695C104.445 56.6824 104.704 51.7953 104.815 46.8712C104.815 46.5009 104.223 46.5009 104.223 46.8712C104.149 51.7583 103.852 56.6824 103.63 61.5695C103.741 61.4584 103.815 61.3843 103.926 61.2733C97.0401 61.0882 90.1908 61.0141 83.3045 60.903C82.8972 60.903 82.8972 61.4954 83.3045 61.4954Z" fill="#FAFAFA"/>
<path d="M83.6003 47.0562C88.9317 50.8696 94.115 54.8311 99.4093 58.7185C100.853 59.7922 102.297 60.8289 103.741 61.8655C104.037 62.0876 104.333 61.5693 104.037 61.3472C98.6318 57.5338 93.4115 53.5352 88.0801 49.6108C86.6733 48.5741 85.2664 47.5745 83.8595 46.5378C83.5633 46.3157 83.2671 46.834 83.6003 47.0562Z" fill="#FAFAFA"/>
<path d="M104.334 46.3528C98.632 50.0181 93.1896 54.0537 87.599 57.9041C86.0811 58.9408 84.5631 59.9774 83.0081 60.94C82.6749 61.1622 82.9711 61.6435 83.3043 61.4583C89.08 57.793 94.5594 53.7205 100.187 49.833C101.668 48.8334 103.149 47.8337 104.63 46.8711C104.963 46.686 104.667 46.1677 104.334 46.3528Z" fill="#FAFAFA"/>
<path d="M83.6744 61.7176C83.7114 56.7565 83.7485 51.7583 84.0076 46.7972C84.0446 46.427 83.4523 46.427 83.4153 46.7972C83.1561 51.7583 83.082 56.7565 83.082 61.7176C83.082 62.1249 83.6744 62.1249 83.6744 61.7176Z" fill="#FAFAFA"/>
<path d="M82.8968 68.5298C88.5614 68.4928 94.226 68.7149 99.8906 68.789C101.297 68.826 102.667 68.826 104.074 68.789C104.444 68.789 104.444 68.1966 104.074 68.1966C98.4096 68.2336 92.745 68.0115 87.0805 67.9374C85.6736 67.9004 84.3037 67.9004 82.8968 67.9374C82.5266 67.9374 82.5266 68.5298 82.8968 68.5298Z" fill="#FAFAFA"/>
<path d="M82.6748 77.4155C89.5612 77.5265 96.4105 77.6376 103.297 77.7857C103.445 77.7857 103.593 77.6376 103.593 77.4895C103.741 74.4536 103.926 71.4547 103.963 68.4188C103.963 68.0486 103.371 68.0486 103.371 68.4188C103.371 71.4547 103.149 74.4536 103.001 77.4895C103.112 77.3784 103.186 77.3044 103.297 77.1933C96.4105 77.0452 89.5612 76.9342 82.6748 76.8231C82.2676 76.8231 82.2676 77.4155 82.6748 77.4155Z" fill="#FAFAFA"/>
<path d="M83.0821 77.4523C83.045 74.3794 83.008 71.3064 83.1931 68.2335C83.2302 67.8633 82.6378 67.8633 82.6008 68.2335C82.4157 71.3064 82.4527 74.3794 82.4897 77.4523C82.4897 77.8225 83.0821 77.8225 83.0821 77.4523Z" fill="#FAFAFA"/>
<path d="M100.261 83.6723C99.5944 83.6723 98.965 83.228 98.7428 82.5616C98.5207 81.8582 98.7799 81.0066 99.3352 80.5253C99.8906 80.044 100.742 80.1181 101.334 80.4513C101.89 80.7845 102.334 81.3398 102.445 81.9692C102.519 82.4135 102.408 82.7837 102.038 83.0429C101.853 83.154 101.668 83.265 101.446 83.3391C101.223 83.4131 101.038 83.5242 100.779 83.4502C100.409 83.3391 100.261 83.8944 100.631 84.0055C101.112 84.1536 101.668 83.8944 102.075 83.6723C102.519 83.4502 102.889 83.1169 103.001 82.5986C103.186 81.673 102.667 80.7104 101.964 80.1551C101.223 79.5627 100.113 79.3406 99.2612 79.7848C98.3726 80.2661 97.9283 81.3768 98.0764 82.3395C98.2245 83.4131 99.1501 84.2276 100.224 84.2276C100.631 84.2647 100.631 83.6723 100.261 83.6723Z" fill="#FAFAFA"/>
<path d="M120.623 126.805L117.958 126.175L119.031 119.918L121.697 120.511L120.623 126.805Z" fill="#FFC3BD"/>
<path d="M117.884 125.842L120.883 126.545C120.994 126.582 121.068 126.656 121.031 126.768L120.623 129.174C120.586 129.433 120.29 129.618 120.031 129.544C118.994 129.285 118.513 129.1 117.18 128.804C116.366 128.619 113.219 127.952 112.071 127.693C110.96 127.434 111.219 126.323 111.738 126.323C113.959 126.36 116.44 126.286 117.328 125.879C117.55 125.805 117.736 125.805 117.884 125.842Z" fill="#263238"/>
<path opacity="0.2" d="M121.697 120.511L119.031 119.918L118.476 123.139L121.142 123.769L121.697 120.511Z" fill="black"/>
<path d="M125.363 58.6074C125.363 58.6074 121.66 80.9325 120.55 88.7444C119.365 97.2968 117.44 122.214 117.44 122.214L122.401 123.139C122.401 123.139 126.399 99.4072 128.362 91.1139C130.472 82.1173 135.174 58.6444 135.174 58.6444H125.363V58.6074Z" fill="#5958D4"/>
<path opacity="0.4" d="M125.363 58.6074C125.363 58.6074 121.66 80.9325 120.55 88.7444C119.365 97.2968 117.44 122.214 117.44 122.214L122.401 123.139C122.401 123.139 126.399 99.4072 128.362 91.1139C130.472 82.1173 135.174 58.6444 135.174 58.6444H125.363V58.6074Z" fill="black"/>
<path opacity="0.3" d="M131.323 67.7893C129.435 72.5283 129.213 80.5624 129.99 83.8575C131.138 78.4521 132.471 71.973 133.507 66.9378C133.137 65.642 132.471 64.9015 131.323 67.7893Z" fill="black"/>
<path d="M122.548 123.213L117.254 122.251L117.18 120.103L123.178 121.621L122.548 123.213Z" fill="#5958D4"/>
<path d="M116.81 126.101C117.069 126.175 117.328 126.175 117.55 126.175C117.587 126.175 117.587 126.175 117.624 126.138C117.624 126.101 117.624 126.101 117.624 126.064C117.55 125.99 116.921 125.287 116.551 125.361C116.477 125.361 116.403 125.435 116.366 125.509C116.292 125.657 116.292 125.768 116.366 125.879C116.44 125.953 116.625 126.027 116.81 126.101ZM117.402 126.027C116.884 126.027 116.551 125.916 116.44 125.768C116.403 125.694 116.403 125.62 116.44 125.546C116.477 125.509 116.477 125.472 116.514 125.472C116.736 125.435 117.143 125.768 117.402 126.027Z" fill="#5958D4"/>
<path d="M117.55 126.138C117.587 126.138 117.624 126.101 117.624 126.101C117.624 126.064 117.884 125.324 117.661 124.99C117.587 124.916 117.513 124.842 117.402 124.842C117.291 124.842 117.18 124.879 117.143 124.99C117.032 125.25 117.291 125.916 117.55 126.138C117.513 126.138 117.55 126.138 117.55 126.138ZM117.439 124.99C117.476 124.99 117.513 125.027 117.55 125.064C117.661 125.25 117.587 125.694 117.513 125.953C117.328 125.694 117.143 125.213 117.254 125.027C117.291 124.99 117.291 124.953 117.439 124.99C117.402 124.99 117.439 124.99 117.439 124.99Z" fill="#5958D4"/>
<path d="M128.213 37.6524C127.325 39.9108 126.399 42.0952 125.362 44.2796C124.844 45.3903 124.363 46.464 123.807 47.5376C123.289 48.6113 122.734 49.722 122.141 50.7957L121.919 51.2029L121.808 51.4251L121.66 51.6843C121.549 51.8694 121.475 52.0175 121.364 52.1656C121.253 52.3137 121.142 52.4617 121.031 52.6098C120.586 53.1652 120.068 53.6835 119.55 54.1278C118.513 55.0164 117.439 55.7198 116.329 56.3122C114.07 57.5339 111.812 58.3855 109.368 59.0149L108.702 57.0526C109.702 56.5713 110.775 56.016 111.775 55.4606C112.774 54.9053 113.737 54.2759 114.663 53.6465C115.588 53.0171 116.44 52.3136 117.143 51.5732C117.513 51.2029 117.81 50.8327 118.069 50.4255C118.143 50.3144 118.18 50.2403 118.254 50.1293C118.328 50.0182 118.365 49.9442 118.402 49.8331L118.476 49.685L118.55 49.4999L118.735 49.0926C119.735 46.9823 120.66 44.8349 121.586 42.6505L124.363 36.0974L128.213 37.6524Z" fill="#FFC3BD"/>
<path d="M123.659 36.5787C126.325 33.9501 129.694 34.1722 129.657 36.9119C129.287 40.9105 127.177 43.391 125.177 46.7602L119.957 42.7246C119.957 42.7246 120.994 39.2074 123.659 36.5787Z" fill="#263238"/>
<path d="M137.95 128.286H135.211L134.84 121.917H137.58L137.95 128.286Z" fill="#FFC3BD"/>
<path d="M135.063 127.989H138.135C138.247 127.989 138.321 128.063 138.321 128.174L138.469 130.618C138.469 130.877 138.247 131.099 137.987 131.099C136.914 131.099 136.395 131.025 135.063 131.025C134.211 131.025 132.064 131.099 130.916 131.099C129.805 131.099 129.805 129.951 130.287 129.84C132.471 129.396 133.804 128.73 134.581 128.137C134.729 128.026 134.877 127.989 135.063 127.989Z" fill="#263238"/>
<path opacity="0.2" d="M137.58 121.955H134.84L135.025 125.213H137.765L137.58 121.955Z" fill="black"/>
<path d="M130.731 58.4595C130.731 58.4595 130.472 79.4517 130.916 87.3007C131.397 95.8901 133.841 124.398 133.841 124.398H138.876C138.876 124.398 138.728 96.5935 139.024 88.0782C139.357 78.8223 140.209 58.4595 140.209 58.4595H130.731Z" fill="#5958D4"/>
<path opacity="0.4" d="M130.731 58.4595C130.731 58.4595 130.472 79.4517 130.916 87.3007C131.397 95.8901 133.841 124.398 133.841 124.398H138.876C138.876 124.398 138.728 96.5935 139.024 88.0782C139.357 78.8223 140.209 58.4595 140.209 58.4595H130.731Z" fill="black"/>
<path d="M139.061 124.435H133.656L133.36 122.51L139.32 122.806L139.061 124.435Z" fill="#5958D4"/>
<path d="M134.063 128.434C134.322 128.434 134.581 128.397 134.803 128.323C134.84 128.323 134.84 128.286 134.84 128.286C134.84 128.249 134.84 128.248 134.803 128.211C134.729 128.137 133.952 127.619 133.619 127.767C133.545 127.804 133.508 127.878 133.471 127.952C133.434 128.1 133.471 128.211 133.545 128.286C133.656 128.397 133.878 128.434 134.063 128.434ZM134.618 128.249C134.137 128.36 133.767 128.323 133.656 128.211C133.619 128.174 133.582 128.1 133.619 127.989C133.619 127.952 133.656 127.915 133.693 127.915C133.841 127.841 134.322 128.063 134.618 128.249Z" fill="#5958D4"/>
<path d="M134.803 128.36C134.84 128.36 134.877 128.323 134.877 128.286C134.877 128.249 134.951 127.471 134.655 127.212C134.581 127.138 134.507 127.101 134.396 127.138C134.285 127.138 134.174 127.212 134.174 127.323C134.063 127.619 134.47 128.174 134.803 128.36C134.766 128.36 134.766 128.36 134.803 128.36ZM134.433 127.249C134.47 127.249 134.544 127.249 134.581 127.323C134.729 127.471 134.766 127.952 134.766 128.211C134.544 128.026 134.248 127.582 134.285 127.36C134.285 127.286 134.285 127.249 134.433 127.249C134.396 127.249 134.396 127.249 134.433 127.249Z" fill="#5958D4"/>
<path opacity="0.3" d="M126.769 40.6142C127.658 39.8367 128.472 39.3925 129.25 39.1333C128.472 41.9101 126.806 44.0574 125.177 46.7231L123.4 45.3532C123.77 44.0574 125.288 41.873 126.769 40.6142Z" fill="black"/>
<path d="M109.739 56.6453L106.592 57.6819L108.258 60.94C108.258 60.94 109.961 59.385 110.294 58.4964L109.739 56.6453Z" fill="#FFC3BD"/>
<path d="M105.111 59.5331L106.814 60.9029L108.258 60.9399L106.592 57.6819L105.111 59.5331Z" fill="#FFC3BD"/>
<path d="M109.109 60.9771L92.782 51.0178L92.9671 50.6846L109.554 60.2366L109.109 60.9771Z" fill="#263238"/>
<path d="M125.363 58.6075H140.024C140.135 57.3117 139.839 53.017 140.061 47.6116C140.209 43.9463 140.616 39.7996 141.505 35.653C141.579 35.3568 141.653 35.0606 141.69 34.7645C141.69 34.7645 140.949 34.6164 139.876 34.4683C138.987 34.3202 137.877 34.2091 136.803 34.1351C134.915 34.061 132.212 33.987 130.583 34.1351C129.62 34.2091 128.695 34.3942 127.954 34.5423C126.992 34.7274 126.436 34.9126 126.436 34.9126C126.436 34.9126 122.845 43.1688 125.363 58.6075Z" fill="#263238"/>
<path opacity="0.3" d="M140.061 47.6116C140.209 43.9463 140.616 39.7997 141.505 35.6531C140.505 35.579 139.468 35.8382 139.172 37.4302C138.913 39.1333 138.691 42.9467 140.061 47.6116Z" fill="black"/>
<path d="M143.393 36.6897C143.615 37.134 143.837 37.5412 144.022 37.9855C144.207 38.4298 144.392 38.8371 144.577 39.2813C144.948 40.1699 145.244 41.0214 145.54 41.947C145.836 42.8356 146.095 43.7612 146.318 44.6867C146.54 45.6123 146.725 46.5749 146.836 47.5746L146.873 47.9448C146.873 48.0929 146.91 48.315 146.91 48.5001C146.91 48.8704 146.873 49.2036 146.799 49.4998C146.688 50.0922 146.503 50.6105 146.318 51.0918C145.947 52.0544 145.466 52.9059 144.948 53.7204C143.948 55.3495 142.837 56.8304 141.542 58.2003L139.875 57.0155C140.69 55.4605 141.467 53.8315 142.134 52.2765C142.467 51.499 142.763 50.6845 142.985 49.9441C143.096 49.5738 143.171 49.2036 143.171 48.9074C143.171 48.7593 143.171 48.6482 143.171 48.5372C143.171 48.5002 143.171 48.5001 143.171 48.5001V48.4631V48.4261L143.096 48.1299C142.763 46.5379 142.245 44.9089 141.653 43.2799C141.356 42.4653 141.023 41.6508 140.69 40.8733C140.357 40.0958 139.987 39.2443 139.653 38.5038L143.393 36.6897Z" fill="#FFC3BD"/>
<path d="M141.727 34.7644C144.578 35.727 146.17 40.0958 146.984 44.1313L141.431 47.2043C140.024 45.0199 139.135 42.6134 138.802 39.6885C138.247 36.2453 139.987 34.172 141.727 34.7644Z" fill="#263238"/>
<path d="M130.916 34.0981C132.73 33.6538 133.063 32.5431 132.915 31.3213C132.878 31.0252 132.841 30.6919 132.767 30.3958L135.026 28.5076L136.692 27.1377C136.21 29.137 135.692 32.8023 137.062 34.1351C137.062 34.1351 135.544 35.9863 131.916 35.7641C128.732 35.616 130.916 34.0981 130.916 34.0981Z" fill="#FFC3BD"/>
<path d="M136.951 33.6909C136.951 33.6909 136.284 35.2459 132.175 35.8013C133.915 36.1715 134.581 37.4673 134.581 37.4673C134.581 37.4673 137.58 37.3562 137.987 33.9501L136.951 33.6909Z" fill="white"/>
<path d="M131.212 33.802C131.212 33.802 129.657 35.2459 132.175 35.8013C130.435 36.1715 129.768 37.4673 129.768 37.4673C129.768 37.4673 128.324 35.8013 130.212 34.0982L131.212 33.802Z" fill="white"/>
<path opacity="0.2" d="M132.767 30.3958C132.841 30.692 132.878 31.0252 132.915 31.3214C133.767 31.1363 134.878 30.2478 135.026 29.3962C135.063 29.063 135.063 28.7668 135.063 28.5447L132.767 30.3958Z" fill="black"/>
<path d="M137.395 24.2499C136.803 26.9156 136.618 28.5076 135.026 29.7294C132.656 31.5435 129.509 29.9515 129.287 27.1748C129.065 24.6942 130.065 20.7327 132.878 19.9922C135.655 19.2147 137.988 21.5842 137.395 24.2499Z" fill="#FFC3BD"/>
<path d="M138.876 21.4361C134.988 21.9544 130.064 22.6578 129.435 21.2509C128.657 19.5108 129.99 19.8811 130.583 19.5109C131.656 18.8815 132.471 17.1784 133.767 18.4742C135.729 20.4735 140.431 18.5112 138.876 21.4361Z" fill="#263238"/>
<path d="M138.802 21.6581C138.765 21.6581 138.765 21.6581 138.728 21.6211C138.691 21.5841 138.691 21.51 138.728 21.473C139.246 20.9177 139.469 20.3993 139.32 20.0291C139.172 19.6219 138.58 19.3997 137.765 19.3997C137.728 19.3997 137.691 19.3627 137.691 19.2886C137.691 19.2516 137.728 19.2146 137.802 19.2146C138.728 19.2516 139.32 19.5108 139.543 19.9921C139.691 20.2883 139.654 20.8436 138.913 21.6211C138.839 21.6581 138.802 21.6581 138.802 21.6581Z" fill="#263238"/>
<path d="M135.063 21.0289C134.137 21.9174 135.063 24.5091 137.025 26.064C140.357 24.2869 139.617 20.5105 137.766 21.0289C135.951 21.5842 135.063 21.0289 135.063 21.0289Z" fill="#263238"/>
<path d="M138.024 27.0266C137.543 27.5819 136.877 27.9522 136.321 28.0262C135.47 28.1743 135.285 27.3968 135.729 26.6193C136.099 25.9529 137.025 25.0643 137.765 25.2494C138.506 25.4716 138.543 26.3601 138.024 27.0266Z" fill="#FFC3BD"/>
<path d="M133.174 24.509C133.137 24.7311 132.989 24.8792 132.841 24.8792C132.693 24.8792 132.619 24.6571 132.656 24.4349C132.693 24.2128 132.841 24.0647 132.989 24.0647C133.137 24.1017 133.212 24.2868 133.174 24.509Z" fill="#263238"/>
<path d="M130.694 24.2128C130.657 24.435 130.509 24.5831 130.361 24.5831C130.213 24.5831 130.139 24.3609 130.176 24.1388C130.213 23.9166 130.361 23.7686 130.509 23.7686C130.657 23.8056 130.731 23.9907 130.694 24.2128Z" fill="#263238"/>
<path d="M131.471 24.3979C131.471 24.3979 130.768 25.6197 130.138 26.138C130.472 26.5453 131.175 26.4713 131.175 26.4713L131.471 24.3979Z" fill="#ED847E"/>
<path d="M131.953 27.1747C132.841 27.1747 133.323 26.6194 133.323 26.6194C133.36 26.5824 133.36 26.5453 133.323 26.5453C133.286 26.5083 133.248 26.5083 133.248 26.5453C133.248 26.5453 132.693 27.1747 131.731 27.0637C131.694 27.0637 131.656 27.1007 131.656 27.1377C131.656 27.1747 131.694 27.2118 131.731 27.2118C131.805 27.1747 131.879 27.1747 131.953 27.1747Z" fill="#263238"/>
<path d="M134.063 23.8056C134.1 23.8056 134.1 23.8056 134.137 23.8056C134.211 23.7686 134.211 23.6946 134.174 23.6205C133.841 22.9911 133.211 22.9541 133.211 22.9541C133.137 22.9541 133.063 22.9911 133.063 23.0652C133.063 23.1392 133.1 23.2133 133.174 23.2133C133.211 23.2133 133.656 23.2503 133.915 23.7316C133.989 23.7686 134.026 23.8056 134.063 23.8056Z" fill="#263238"/>
<path d="M129.768 23.2132C129.805 23.2132 129.842 23.1762 129.879 23.1391C130.213 22.6578 130.694 22.6578 130.694 22.6578C130.768 22.6578 130.842 22.5838 130.805 22.5098C130.805 22.4357 130.731 22.3987 130.657 22.3987C130.62 22.3987 130.028 22.3987 129.62 22.9911C129.583 23.0651 129.583 23.1392 129.657 23.1762C129.731 23.2132 129.731 23.2132 129.768 23.2132Z" fill="#263238"/>
<path d="M140.616 56.3861L137.876 55.9048L139.283 59.0518C139.283 59.0518 141.764 59.0518 141.653 57.756L140.616 56.3861Z" fill="#FFC3BD"/>
<path d="M135.84 57.4968L137.136 60.0514L139.283 59.0888L137.876 55.9048L135.84 57.4968Z" fill="#FFC3BD"/>
<path d="M51.982 44.1685L51.8709 44.3166L51.7598 44.5387L51.5377 44.983C51.3896 45.2792 51.2415 45.5754 51.0934 45.9086C50.8342 46.538 50.5751 47.1674 50.3529 47.8338C49.9087 49.1666 49.5755 50.5365 49.3533 51.9064L49.3163 52.1655C49.3163 52.2026 49.3163 52.2396 49.3163 52.2766V52.3506C49.3163 52.4617 49.2793 52.5728 49.3163 52.6839C49.3163 52.943 49.3533 53.2022 49.4274 53.4613C49.5754 54.0167 49.8346 54.6091 50.1678 55.2014C50.8342 56.3862 51.7228 57.5339 52.6114 58.6076L51.5747 59.7923C50.2789 58.8668 49.1312 57.8301 48.1315 56.5343C47.6502 55.8679 47.1689 55.1644 46.8357 54.3129C46.6876 53.9056 46.5395 53.4243 46.4655 52.943C46.4285 52.6839 46.4285 52.4247 46.4285 52.1655V51.9804C46.4285 51.9064 46.4285 51.8323 46.4285 51.7953L46.4655 51.4991C46.6136 49.9441 46.8727 48.3891 47.3541 46.8712C47.5762 46.0937 47.8354 45.3532 48.1686 44.6128C48.3167 44.2425 48.5018 43.8723 48.6869 43.5021C48.798 43.3169 48.872 43.1318 48.9831 42.9467L49.1312 42.6875C49.2052 42.5765 49.2422 42.5024 49.3163 42.3914L51.982 44.1685Z" fill="#FF8B7B"/>
<path d="M52.8335 59.8293L51.5007 62.6431L50.427 60.2366C50.427 60.2366 51.3526 58.1633 52.6484 58.3484L52.8335 59.8293Z" fill="#FF8B7B"/>
<path d="M49.3535 62.6802L48.2798 60.9401L50.4271 60.2737L51.4638 62.6802H49.3535Z" fill="#FF8B7B"/>
<path d="M56.5359 128.138C56.2397 128.138 55.9435 128.064 55.7213 128.027C55.6843 128.027 55.6843 127.989 55.6843 127.952C55.6843 127.915 55.6843 127.878 55.7213 127.878C55.8324 127.804 56.758 127.212 57.1282 127.36C57.2023 127.397 57.2393 127.434 57.2763 127.582C57.3134 127.73 57.2763 127.878 57.1653 127.989C57.0172 128.101 56.795 128.138 56.5359 128.138ZM55.9435 127.915C56.4988 128.027 56.9061 127.989 57.0542 127.878C57.1282 127.804 57.1282 127.73 57.1282 127.619C57.1282 127.545 57.0912 127.545 57.0542 127.508C56.8691 127.397 56.3137 127.693 55.9435 127.915Z" fill="#5958D4"/>
<path d="M55.7584 128.027C55.7213 128.027 55.7213 128.027 55.7584 128.027C55.6843 127.989 55.6843 127.989 55.6843 127.952C55.6843 127.915 55.6843 127.027 56.0175 126.731C56.0916 126.657 56.2027 126.62 56.3137 126.62C56.4988 126.657 56.5359 126.768 56.5729 126.842C56.6469 127.175 56.0916 127.841 55.7584 128.027ZM56.2767 126.768C56.2027 126.768 56.1656 126.805 56.1286 126.842C55.9435 127.027 55.8694 127.508 55.8324 127.804C56.1286 127.582 56.4618 127.064 56.4248 126.842C56.4248 126.805 56.3878 126.768 56.2767 126.768Z" fill="#5958D4"/>
<path d="M75.8619 126.768C75.8249 126.768 75.8249 126.768 75.7878 126.731C75.7878 126.694 75.7878 126.657 75.7878 126.657C75.8989 126.545 76.7504 125.509 77.1947 125.509H77.2318C77.3058 125.509 77.3798 125.546 77.4169 125.657C77.4909 125.805 77.4909 125.916 77.4169 126.027C77.2318 126.434 76.3802 126.657 75.8619 126.768ZM77.1947 125.657C76.9356 125.657 76.4172 126.175 76.047 126.582C76.7134 126.434 77.1947 126.212 77.3058 125.99C77.3428 125.916 77.3428 125.842 77.3058 125.731C77.2688 125.657 77.2317 125.657 77.1947 125.657Z" fill="#5958D4"/>
<path d="M75.8622 126.768C75.8622 126.768 75.8251 126.768 75.8622 126.768C75.8251 126.768 75.7881 126.731 75.7881 126.731C75.7881 126.694 75.529 125.916 75.7511 125.435C75.8251 125.287 75.9362 125.213 76.0843 125.176C76.2694 125.102 76.3805 125.176 76.4175 125.25C76.6026 125.546 76.1954 126.434 75.8992 126.731L75.8622 126.768ZM76.1954 125.287C76.1584 125.287 76.1584 125.287 76.1213 125.287C76.0103 125.324 75.9362 125.398 75.8992 125.472C75.7511 125.768 75.8251 126.286 75.8992 126.509C76.1584 126.138 76.4175 125.472 76.3064 125.287C76.2694 125.287 76.2694 125.287 76.1954 125.287Z" fill="#5958D4"/>
<path d="M55.9805 31.5435C56.3507 33.3946 57.1652 37.3931 55.8694 38.6149C55.8694 38.6149 56.3877 40.4661 59.7939 40.4661C63.5702 40.4661 61.608 38.6149 61.608 38.6149C59.5717 38.1336 59.6087 36.6157 59.979 35.1717L55.9805 31.5435Z" fill="#FF8B7B"/>
<path d="M62.2376 27.2118C62.2005 27.2118 62.2005 27.2118 62.1635 27.2118C62.0895 27.1748 62.0525 27.1007 62.0895 27.0267C62.4597 26.2862 63.1261 26.2122 63.1632 26.2122C63.2372 26.2122 63.3112 26.2492 63.3112 26.3232C63.3112 26.3973 63.2742 26.4713 63.2002 26.4713C63.1632 26.4713 62.6448 26.5454 62.3486 27.1377C62.3486 27.1748 62.2746 27.2118 62.2376 27.2118Z" fill="#263238"/>
<path d="M63.3481 28.8037C63.3481 28.8037 63.9035 29.8033 64.4218 30.2846C64.1256 30.6179 63.5703 30.5438 63.5703 30.5438L63.3481 28.8037Z" fill="#FF5652"/>
<path d="M63.0892 28.3967C63.1262 28.6558 63.2743 28.8409 63.4224 28.8039C63.5705 28.7669 63.6816 28.5818 63.6446 28.3226C63.6075 28.0635 63.4594 27.8783 63.3113 27.9154C63.1633 27.9524 63.0522 28.1745 63.0892 28.3967Z" fill="#263238"/>
<path d="M63.2373 27.9523L63.8297 27.6931C63.8297 27.6931 63.5705 28.2114 63.2373 27.9523Z" fill="#263238"/>
<path d="M72.567 127.915L75.603 127.212L74.159 120.177L71.1602 120.881L72.567 127.915Z" fill="#FF8B7B"/>
<path d="M52.1301 127.952H55.2401L54.9809 120.77H51.908L52.1301 127.952Z" fill="#FF8B7B"/>
<path d="M55.4993 127.582H52.0191C51.908 127.582 51.7969 127.656 51.7599 127.804L51.3527 130.544C51.3156 130.84 51.5748 131.099 51.834 131.099C53.0557 131.062 53.6481 131.025 55.1661 131.025C56.0917 131.025 57.4985 131.136 58.7944 131.136C60.0532 131.136 60.1642 129.84 59.6089 129.729C57.1653 129.211 56.7951 128.471 55.9806 127.804C55.8695 127.656 55.6844 127.582 55.4993 127.582Z" fill="#263238"/>
<path d="M75.5289 126.434L72.3079 127.767C72.1968 127.804 72.1228 127.952 72.1598 128.063L72.8632 130.766C72.9373 131.062 73.2705 131.21 73.5296 131.099C74.6403 130.618 75.1587 130.322 76.5656 129.729C77.4541 129.359 79.2683 128.693 80.49 128.212C81.6748 127.73 81.2675 126.508 80.7122 126.582C78.2686 127.027 77.1209 126.731 76.0843 126.397C75.8991 126.36 75.714 126.36 75.5289 126.434Z" fill="#263238"/>
<path opacity="0.2" d="M74.159 120.177L74.9365 123.954L71.8636 124.509L71.1602 120.881L74.159 120.177Z" fill="black"/>
<path opacity="0.2" d="M51.9077 120.77H54.9806L55.1287 124.472H52.0188L51.9077 120.77Z" fill="black"/>
<path d="M50.5011 39.3183C49.2053 39.6145 47.8354 44.2424 47.8354 44.2424L51.4637 48.1298C51.4637 48.1298 54.4997 43.7611 53.8703 42.1691C53.2409 40.503 52.0191 38.9851 50.5011 39.3183Z" fill="#5958D4"/>
<path opacity="0.7" d="M50.5011 39.3183C49.2053 39.6145 47.8354 44.2424 47.8354 44.2424L51.4637 48.1298C51.4637 48.1298 54.4997 43.7611 53.8703 42.1691C53.2409 40.503 52.0191 38.9851 50.5011 39.3183Z" fill="white"/>
<path opacity="0.4" d="M52.5372 42.2804C53.2036 41.688 53.6479 41.8731 53.9441 42.3174C54.2403 43.6873 52.5002 46.5751 51.7597 47.6858C51.4265 46.39 51.0563 43.6132 52.5372 42.2804Z" fill="black"/>
<path d="M66.8284 39.4296C66.8284 39.4296 68.3093 39.9479 65.3474 58.1634C60.3493 58.1634 55.166 58.1634 52.7595 58.1634C52.9816 53.0542 52.9816 49.8701 50.5381 39.3555C50.5381 39.3555 53.1667 38.7631 55.8695 38.6521C57.9798 38.541 59.7199 38.4669 61.5711 38.6521C64.0146 38.8372 66.8284 39.4296 66.8284 39.4296Z" fill="#5958D4"/>
<path opacity="0.7" d="M66.8284 39.4296C66.8284 39.4296 68.3093 39.9479 65.3474 58.1634C60.3493 58.1634 55.166 58.1634 52.7595 58.1634C52.9816 53.0542 52.9816 49.8701 50.5381 39.3555C50.5381 39.3555 53.1667 38.7631 55.8695 38.6521C57.9798 38.541 59.7199 38.4669 61.5711 38.6521C64.0146 38.8372 66.8284 39.4296 66.8284 39.4296Z" fill="white"/>
<path opacity="0.4" d="M66.9396 46.3899C66.8655 47.2784 66.7544 48.2781 66.6064 49.3888C65.5697 48.4632 64.7182 45.8345 65.0514 44.2795C65.7548 44.8349 66.4212 45.6494 66.9396 46.3899Z" fill="black"/>
<path d="M68.5313 42.4653C69.1607 43.9833 69.8641 45.5012 70.5676 47.0192C70.9378 47.7597 71.308 48.5001 71.6783 49.2406C72.0485 49.9811 72.4558 50.6845 72.863 51.3139C72.9741 51.462 73.0852 51.6471 73.1962 51.7952L73.3443 52.0174L73.4184 52.1284L73.4554 52.2025L73.4924 52.2395C73.6035 52.3876 73.7886 52.5357 74.0107 52.6838C74.455 52.9429 75.1585 53.091 75.8989 53.1281C77.3799 53.2021 79.0459 52.9429 80.6009 52.6097L81.1563 54.0907C79.5272 54.8682 77.8242 55.4235 75.936 55.6086C74.9734 55.6827 73.9367 55.6457 72.863 55.2014C72.3077 54.9792 71.7893 54.609 71.3451 54.1277L71.271 54.0536L71.197 53.9796L71.0859 53.8315L70.8638 53.5723C70.7157 53.3872 70.5676 53.2021 70.4565 53.017C69.3828 51.5361 68.5313 50.0181 67.7538 48.4631C66.9763 46.9081 66.2358 45.3532 65.6064 43.7241L68.5313 42.4653Z" fill="#FF8B7B"/>
<path d="M66.8286 39.4294C68.3836 39.7996 70.2718 44.0203 70.2718 44.0203L67.0878 48.7223C67.0878 48.7223 62.8301 43.3539 63.3484 41.7248C63.8297 40.0218 64.9404 38.9481 66.8286 39.4294Z" fill="#5958D4"/>
<path opacity="0.7" d="M66.8286 39.4294C68.3836 39.7996 70.2718 44.0203 70.2718 44.0203L67.0878 48.7223C67.0878 48.7223 62.8301 43.3539 63.3484 41.7248C63.8297 40.0218 64.9404 38.9481 66.8286 39.4294Z" fill="white"/>
<path d="M80.3421 54.2758L83.1188 55.2754L83.1558 52.6097C83.1558 52.6097 80.8604 52.1654 79.8237 52.9059L80.3421 54.2758Z" fill="#FF8B7B"/>
<path d="M85.2662 55.6828L85.4513 53.4244L83.1188 52.6099L83.0818 55.2755L85.2662 55.6828Z" fill="#FF8B7B"/>
<path d="M54.6105 28.5816C55.1658 31.6175 55.3509 32.9133 57.091 34.2832C59.6827 36.3565 63.2739 34.9866 63.6442 31.8767C63.9774 29.0629 62.9778 24.5831 59.8678 23.7315C56.7578 22.88 54.0551 25.5457 54.6105 28.5816Z" fill="#FF8B7B"/>
<path d="M61.6452 29.1741C62.5337 30.692 60.8677 32.7283 62.5337 34.8386C64.1998 36.949 67.1617 40.0589 62.941 43.7243C58.7203 47.3896 51.5008 46.3159 50.1309 41.3177C48.761 36.3196 52.0561 36.5787 51.0935 32.9504C50.1309 29.3222 50.316 21.9175 55.4253 23.1763C57.4986 19.548 63.3112 19.7701 65.1254 22.5099C66.6804 24.7683 64.533 27.3599 61.6452 29.1741Z" fill="#263238"/>
<path d="M62.4227 29.174C62.6818 29.7294 62.7559 30.3588 62.6818 30.8771C62.5708 31.6176 61.9784 31.6176 61.5711 31.0622C61.2009 30.5809 60.8307 29.5813 61.1639 28.9889C61.4971 28.3595 62.1265 28.5446 62.4227 29.174Z" fill="#FF8B7B"/>
<path d="M62.0154 58.1262C62.0154 58.1262 60.2012 79.4147 58.3501 91.4102C56.8321 101.11 55.6473 123.732 55.6473 123.732H51.4267C51.4267 123.732 49.9087 101.777 50.6862 92.1877C52.6114 67.9374 48.3167 65.9752 52.7595 58.1262H62.0154Z" fill="#5958D4"/>
<path opacity="0.4" d="M57.7576 65.3088C58.8683 66.9008 60.3492 68.752 60.8305 70.7142C60.4603 74.3055 60.0531 78.267 59.6088 82.1174C58.387 78.9334 56.3877 72.5654 57.7576 65.3088Z" fill="black"/>
<path d="M65.3474 58.1264C65.3474 58.1264 68.8276 82.0064 70.0864 91.3734C71.3452 101.148 75.0845 122.991 75.0845 122.991L70.9379 123.621C70.9379 123.621 63.8665 102.851 62.5706 93.2616C61.1267 82.821 54.2034 58.0894 54.2034 58.0894H65.3474V58.1264Z" fill="#5958D4"/>
<path d="M75.6772 123.028L70.3828 123.954L69.7534 121.917L75.455 120.955L75.6772 123.028Z" fill="#263238"/>
<path d="M56.2027 123.843H50.8343L50.5381 121.955L56.2397 121.732L56.2027 123.843Z" fill="#263238"/>
<path d="M52.5374 57.3858L51.982 58.4965C51.945 58.5706 52.0561 58.6816 52.2042 58.6816H65.4215C65.5326 58.6816 65.6437 58.6076 65.6437 58.5706L65.7547 57.4599C65.7547 57.3858 65.6807 57.3118 65.5326 57.3118H52.7965C52.6484 57.3118 52.5744 57.3488 52.5374 57.3858Z" fill="#263238"/>
<path d="M54.2404 58.8297H53.9072C53.8332 58.8297 53.7961 58.7927 53.7961 58.7557L53.9442 57.2747C53.9442 57.2377 54.0183 57.2007 54.0923 57.2007H54.4255C54.4996 57.2007 54.5366 57.2377 54.5366 57.2747L54.3885 58.7557C54.3885 58.7927 54.3145 58.8297 54.2404 58.8297Z" fill="#5958D4"/>
<path d="M62.5336 58.8297H62.2004C62.1264 58.8297 62.0894 58.7927 62.0894 58.7557L62.2374 57.2747C62.2374 57.2377 62.3115 57.2007 62.3855 57.2007H62.7188C62.7928 57.2007 62.8298 57.2377 62.8298 57.2747L62.6817 58.7557C62.6817 58.7927 62.6077 58.8297 62.5336 58.8297Z" fill="#5958D4"/>
<path d="M18.4759 41.8731C18.1057 42.7246 17.6984 43.6872 17.3652 44.5758C16.995 45.5013 16.6618 46.4269 16.3285 47.3525C15.6992 49.2037 15.1068 51.0919 14.7736 52.906L14.6995 53.2392C14.6995 53.2022 14.7365 53.0541 14.5885 52.7209C14.5514 52.6469 14.5144 52.5728 14.4404 52.4617C14.3663 52.3507 14.2923 52.2766 14.2182 52.2026C14.1442 52.1285 14.0331 52.0545 13.9591 51.9804C13.848 51.9064 13.7739 51.8694 13.6999 51.8694C13.4037 51.7583 13.2926 51.7953 13.2556 51.7953C13.2186 51.8323 13.3667 51.7953 13.5148 51.7583C13.6629 51.7213 13.885 51.6472 14.0701 51.5732C14.8846 51.24 15.7732 50.7957 16.6247 50.3514C18.3648 49.4258 20.142 48.3892 21.8821 47.3525L23.2149 49.0926C21.6969 50.5735 20.1049 51.9064 18.4019 53.2022C17.5133 53.8316 16.6618 54.461 15.5881 54.9793C15.3289 55.1274 15.0327 55.2385 14.6995 55.3866C14.3663 55.4977 14.0331 55.6458 13.4407 55.6828C13.1445 55.6828 12.7743 55.7198 12.219 55.5347C12.0709 55.4977 11.9598 55.4236 11.7747 55.3125C11.6266 55.2385 11.4785 55.1274 11.3674 54.9793C11.1083 54.7202 10.9231 54.387 10.8121 54.1278C10.5899 53.5724 10.6269 53.1652 10.664 52.869L10.701 52.4247C10.8121 51.277 10.9972 50.2033 11.2193 49.1296C11.4415 48.056 11.7377 47.0193 12.0338 45.9826C12.33 44.946 12.7003 43.9464 13.0705 42.9467C13.2556 42.4654 13.4778 41.9471 13.6629 41.4658C13.885 40.9845 14.0701 40.5032 14.3293 39.9849L18.4759 41.8731Z" fill="#FFC3BD"/>
<path d="M21.438 47.5747L22.4746 45.6865L24.8812 48.5373C24.8812 48.5373 23.7334 49.7221 22.3265 49.4999L21.438 47.5747Z" fill="#7F3E3B"/>
<path d="M24.3255 43.8723L26.2137 46.3159L24.9179 48.5002L22.4744 45.6865L24.3255 43.8723Z" fill="#7F3E3B"/>
<path d="M19.3645 128.249C19.0313 128.249 18.6611 128.212 18.476 128.175C18.439 128.175 18.439 128.138 18.439 128.101C18.439 128.064 18.439 128.026 18.476 128.026C18.513 127.989 19.5867 127.434 20.068 127.545C20.1791 127.582 20.2161 127.619 20.2901 127.693C20.3642 127.841 20.3272 127.952 20.2531 127.989C20.105 128.212 19.7348 128.249 19.3645 128.249ZM18.6981 128.064C19.2165 128.138 19.9569 128.138 20.142 127.952C20.1791 127.915 20.1791 127.878 20.142 127.804C20.105 127.767 20.068 127.73 20.031 127.693C19.6978 127.619 19.0684 127.878 18.6981 128.064Z" fill="#5958D4"/>
<path d="M18.4759 128.174H18.4389C18.4019 128.174 18.4019 128.137 18.4019 128.1C18.4019 128.063 18.5499 127.286 18.9572 126.99C19.0683 126.879 19.2164 126.842 19.3645 126.879C19.5496 126.916 19.5866 126.99 19.5866 127.064C19.6236 127.397 18.8832 128.026 18.4759 128.174C18.5129 128.174 18.4759 128.174 18.4759 128.174ZM19.2904 126.99C19.2164 126.99 19.1053 127.027 19.0313 127.064C18.7721 127.249 18.624 127.73 18.5499 127.952C18.9202 127.73 19.4385 127.249 19.4385 127.027C19.4385 127.027 19.4385 126.953 19.3274 126.953C19.3274 126.99 19.3274 126.99 19.2904 126.99Z" fill="#5958D4"/>
<path d="M15.2551 128.101H18.18L19.1056 121.362H16.1807L15.2551 128.101Z" fill="#FFC3BD"/>
<path d="M18.2168 127.767H15.0328C14.9217 127.767 14.8106 127.841 14.7736 127.952L13.9591 130.544C13.885 130.803 14.0702 131.062 14.3293 131.062C15.477 131.025 17.1431 130.988 18.587 130.988C20.2901 130.988 19.8088 131.062 21.808 131.062C22.9928 131.062 23.4371 129.841 22.9558 129.73C20.7344 129.211 20.7714 129.174 18.9202 127.952C18.6981 127.878 18.4759 127.767 18.2168 127.767Z" fill="#263238"/>
<path opacity="0.2" d="M19.1051 121.362L18.6238 124.842H15.699L16.1803 121.362H19.1051Z" fill="black"/>
<path d="M25.7323 63.0505C25.7323 63.0505 24.8807 82.0805 24.3624 90.9662C23.8071 100.962 19.7715 124.176 19.7715 124.176H14.8474C14.8474 124.176 16.2173 100.407 16.8467 91.3364C17.5131 81.4141 16.1803 68.1968 16.4764 63.0505C19.8085 63.0505 25.7323 63.0505 25.7323 63.0505Z" fill="#263238"/>
<path d="M20.5862 121.77C20.6232 121.77 20.179 124.25 20.179 124.25H14.4403L14.2922 122.325L20.5862 121.77Z" fill="#5958D4"/>
<g opacity="0.3">
<path opacity="0.3" d="M20.5862 121.77C20.6232 121.77 20.179 124.25 20.179 124.25H14.4403L14.2922 122.325L20.5862 121.77Z" fill="black"/>
</g>
<path d="M28.5464 27.2858C28.5464 27.508 28.6945 27.6931 28.8426 27.6931C28.9907 27.6931 29.1018 27.471 29.1018 27.2488C29.1018 27.0267 28.9537 26.8416 28.8056 26.8416C28.6204 26.8416 28.5094 27.0267 28.5464 27.2858Z" fill="#263238"/>
<path d="M28.6572 27.6931C28.6572 27.6931 29.2866 29.026 29.916 29.6183C29.5458 30.0256 28.8053 29.9145 28.8053 29.9145L28.6572 27.6931Z" fill="#ED847E"/>
<path d="M27.6208 26.0271C27.5837 26.0271 27.5467 26.0271 27.5097 25.9901C27.4727 25.9161 27.4727 25.842 27.5097 25.805C28.1021 25.3237 28.6945 25.4718 28.7315 25.5088C28.8055 25.5458 28.8425 25.6199 28.8055 25.6939C28.7685 25.768 28.6944 25.805 28.6204 25.805C28.5834 25.805 28.1021 25.6569 27.6578 26.0642C27.6578 26.0271 27.6208 26.0271 27.6208 26.0271Z" fill="#263238"/>
<path d="M21.4008 29.5073C21.8081 31.6547 22.2523 35.5792 20.7344 36.986C20.7344 36.986 21.3267 39.1704 25.2882 39.1704C29.657 39.1704 27.3616 36.986 27.3616 36.986C24.9921 36.4307 25.0291 34.6536 25.4363 32.9875L21.4008 29.5073Z" fill="#FFC3BD"/>
<path d="M19.9567 35.6162C19.6235 35.7272 20.0678 37.6895 20.0678 37.6895C20.0678 37.6895 20.6231 39.0593 27.3984 38.578C27.9167 38.541 27.7316 36.6528 27.2133 36.3936C25.6213 35.5421 21.0304 35.2829 19.9567 35.6162Z" fill="#263238"/>
<path d="M35.6176 128.249C35.2843 128.249 34.9141 128.212 34.692 128.175C34.6549 128.175 34.6549 128.138 34.6179 128.101C34.6179 128.064 34.6179 128.026 34.6549 128.026C34.692 127.989 35.6176 127.434 36.1359 127.545C36.247 127.582 36.321 127.619 36.395 127.693C36.5061 127.841 36.4691 127.952 36.4691 127.989C36.321 128.212 35.9878 128.249 35.6176 128.249ZM34.9141 128.064C35.4695 128.138 36.2099 128.138 36.321 127.952C36.321 127.915 36.358 127.878 36.284 127.804C36.2469 127.767 36.2099 127.73 36.1359 127.693C35.8027 127.619 35.2473 127.878 34.9141 128.064Z" fill="#5958D4"/>
<path d="M34.7292 128.174H34.6922C34.6552 128.174 34.6552 128.137 34.6552 128.1C34.6552 128.063 34.5812 127.286 34.9144 126.99C35.0254 126.879 35.1365 126.842 35.2846 126.879C35.4697 126.916 35.5438 126.99 35.5808 127.064C35.6548 127.397 35.0625 128.026 34.7292 128.174ZM35.2106 126.99C35.1365 126.99 35.0625 127.027 34.9884 127.064C34.7663 127.249 34.7663 127.73 34.7663 127.952C35.0995 127.73 35.4697 127.249 35.3957 127.027C35.3957 127.027 35.3587 126.953 35.2476 126.953C35.2476 126.99 35.2476 126.99 35.2106 126.99Z" fill="#5958D4"/>
<path d="M31.3971 128.101H34.2849L33.8036 121.362H30.9158L31.3971 128.101Z" fill="#FFC3BD"/>
<path d="M34.3219 127.767H31.1379C31.0268 127.767 30.9158 127.841 30.9158 127.952L30.8047 130.544C30.8047 130.803 31.0268 131.062 31.323 131.062C32.4707 131.025 34.1368 130.988 35.5807 130.988C37.2838 130.988 37.2468 131.062 39.209 131.062C40.3937 131.062 40.5418 129.841 39.9865 129.73C37.617 129.211 37.2468 129.174 35.0624 127.952C34.8402 127.878 34.5811 127.767 34.3219 127.767Z" fill="#263238"/>
<path d="M14.9958 37.8375C12.4782 39.0593 11.4045 47.2044 11.4045 47.2044L17.2172 49.4999C17.2172 49.4999 18.6241 46.2048 19.4016 42.6876C20.2531 38.9853 17.5874 36.6158 14.9958 37.8375Z" fill="#5958D4"/>
<path opacity="0.2" d="M18.7723 40.2441C18.9944 40.133 19.1795 40.059 19.4017 40.022C19.6238 40.7995 19.6608 41.688 19.4387 42.6877C18.6612 46.2049 17.2543 49.5 17.2543 49.5L15.3291 48.7595C15.6623 46.6121 16.736 41.2067 18.7723 40.2441Z" fill="black"/>
<path d="M31.8785 37.8004C31.8785 37.8004 34.9885 41.3176 32.0636 63.0503C27.3616 63.0503 18.7352 63.0503 16.4397 63.0503C16.3287 60.6438 17.8466 48.9444 15.5142 37.6523C15.5142 37.6523 18.1798 37.0969 20.7345 36.9859C22.7337 36.8748 25.6215 36.8378 27.3616 36.9859C29.6941 37.171 31.8785 37.8004 31.8785 37.8004Z" fill="#5958D4"/>
<path opacity="0.2" d="M28.7313 42.4281C29.4348 40.3178 31.1379 39.6144 32.878 40.8732C33.2112 42.9465 33.4703 46.2415 33.1741 51.5359L30.1382 51.4989C30.1382 51.5359 27.6947 45.6121 28.7313 42.4281Z" fill="black"/>
<path d="M33.6924 40.9104L34.8401 47.3895C35.2104 49.5368 35.6176 51.7212 36.0249 53.8316L36.173 54.609L36.247 55.0163C36.284 55.0904 36.247 55.1274 36.284 55.2384C36.3951 55.5717 36.5802 56.0159 36.8024 56.4232C37.2466 57.2747 37.839 58.2003 38.4314 59.0889C39.6161 60.866 40.912 62.6431 42.2078 64.4202L40.6158 65.9382C38.8757 64.4573 37.2466 62.9023 35.7287 61.1992C34.9512 60.3477 34.2107 59.4221 33.5443 58.4225C33.2111 57.9041 32.8779 57.3488 32.5817 56.6453C32.5077 56.4972 32.4336 56.2751 32.3596 56.053L32.2485 55.6457L32.0263 54.8312C31.434 52.6468 30.9156 50.4624 30.4714 48.2781C30.0271 46.0937 29.6198 43.9093 29.2866 41.6879L33.6924 40.9104Z" fill="#FFC3BD"/>
<path d="M27.991 39.9108C27.1765 42.5765 30.5086 50.5365 30.5086 50.5365L36.8396 48.9445C36.8396 48.9445 36.8766 44.7239 35.3587 41.4658C33.1002 36.5047 28.9536 36.7268 27.991 39.9108Z" fill="#5958D4"/>
<path d="M41.8006 64.1241L44.096 65.7161L41.8006 67.7154C41.8006 67.7154 40.3566 67.3451 40.3196 65.1978L40.0234 63.4207L41.3193 63.8649C41.4673 63.976 41.6525 64.05 41.8006 64.1241Z" fill="#FFC3BD"/>
<path d="M45.8363 67.4933L43.0966 68.8261L41.8008 67.7524L44.0962 65.7532L45.8363 67.4933Z" fill="#FFC3BD"/>
<path opacity="0.2" d="M33.8036 121.362L34.0628 124.842H31.1379L30.9158 121.362H33.8036Z" fill="black"/>
<path d="M20.6603 27.3598C21.0675 30.2476 21.1416 31.9507 22.6965 33.3206C25.066 35.3939 28.5092 33.8019 28.9905 30.877C29.3978 28.2484 28.6943 23.9907 25.7695 23.0651C22.9187 22.1025 20.253 24.472 20.6603 27.3598Z" fill="#FFC3BD"/>
<path d="M26.584 27.9893C26.5099 27.7301 27.2874 27.4339 27.2874 27.4339C27.2874 27.4339 27.2134 26.2121 26.8802 25.8419C26.9912 25.1014 26.8802 24.435 26.584 24.1018C26.8802 24.1388 27.4725 23.2873 27.4725 23.2873C27.4725 23.2873 27.2504 21.8804 25.6954 21.5102C24.1775 21.1029 20.7343 21.4731 20.1419 22.3987C19.2163 22.5468 18.4018 23.9907 18.5869 24.6942C18.0316 25.6198 18.3278 26.8415 18.0686 27.3969C18.4018 27.6561 18.8461 27.8041 19.0682 27.7671C18.9942 28.0633 18.9572 28.3965 18.698 28.6187C18.9201 28.8038 19.2163 28.9889 19.6236 28.9519C19.5866 29.3221 19.5125 29.7294 19.6236 30.0255C20.5121 29.9885 20.1419 30.729 21.6599 31.6546C23.1408 32.6172 27.3244 30.4698 26.584 27.9893Z" fill="#263238"/>
<path d="M26.7691 22.0656C26.2878 21.14 25.1031 20.8808 24.1404 20.9179C23.1778 20.9549 22.6965 20.7698 22.6965 20.7698C22.6965 20.7698 22.8076 21.8435 23.9553 21.9545C25.066 22.1026 26.7691 22.0656 26.7691 22.0656Z" fill="#263238"/>
<path d="M24.2886 21.8806C23.6221 21.1031 22.6595 20.992 21.734 21.2512C20.8084 21.5104 20.29 21.4733 20.29 21.4733C20.29 21.4733 20.6603 22.51 21.808 22.3249C22.8817 22.1398 24.2886 21.8806 24.2886 21.8806Z" fill="#263238"/>
<path d="M25.029 28.1744C25.1401 28.9148 25.5474 29.6183 25.9917 30.0626C26.6951 30.729 27.3245 30.2107 27.3615 29.3591C27.3985 28.5816 27.1024 27.3228 26.2878 26.9896C25.5103 26.6564 24.918 27.3228 25.029 28.1744Z" fill="#FFC3BD"/>
<path d="M32.0637 63.0505C32.0637 63.0505 33.5076 81.4141 33.989 90.2997C34.5443 100.296 35.1737 124.176 35.1737 124.176H30.2126C30.2126 124.176 27.8061 101.185 26.8064 92.1139C25.6957 82.2657 21.7712 63.0505 21.7712 63.0505H32.0637Z" fill="#263238"/>
<path d="M35.7285 121.77C35.7656 121.77 35.5434 124.25 35.5434 124.25H29.7678L29.4346 122.325L35.7285 121.77Z" fill="#5958D4"/>
<g opacity="0.3">
<path opacity="0.3" d="M35.7285 121.77C35.7656 121.77 35.5434 124.25 35.5434 124.25H29.7678L29.4346 122.325L35.7285 121.77Z" fill="black"/>
</g>
</svg>
