<svg width="16" height="16" viewBox="0 0 16 16" fill="none" xmlns="http://www.w3.org/2000/svg">
<g clip-path="url(#clip0)">
<mask id="path-2-outside-1" maskUnits="userSpaceOnUse" x="-1.0625" y="1.60217" width="18" height="12" fill="black">
<rect fill="white" x="-1.0625" y="1.60217" width="18" height="12"/>
<path d="M13.4006 9.77248C13.0385 9.01752 11.743 7.9696 10.4914 6.95706C9.79333 6.39274 9.13369 5.85919 8.71315 5.43866C8.60781 5.33256 8.45022 5.29872 8.31107 5.34871C8.05199 5.44252 7.89206 5.51477 7.766 5.57088C7.5738 5.65698 7.50922 5.68621 7.25011 5.71233C7.13554 5.72387 7.03254 5.78538 6.96872 5.88071C6.42515 6.69333 5.86238 6.62414 5.48643 6.49808C5.36649 6.45811 5.34498 6.40658 5.33344 6.35738C5.25272 6.01989 5.6579 5.23414 6.18298 4.70903C7.43232 3.45893 8.07657 3.14601 9.43738 3.75416C10.9812 4.44454 12.528 4.98504 12.5434 4.99041C12.7456 5.06036 12.9632 4.95427 13.0331 4.75361C13.1023 4.55295 12.997 4.33383 12.7963 4.26388C12.7809 4.25851 11.2648 3.72878 9.75182 3.05144C7.98893 2.26339 7.02173 2.78235 5.64017 4.1647C5.1143 4.69058 4.40005 5.75461 4.58457 6.53498C4.66374 6.86711 4.89749 7.11314 5.24497 7.22767C6.11605 7.51522 6.91099 7.23996 7.50299 6.45426C7.74747 6.4166 7.88049 6.36124 8.08036 6.27129C8.15261 6.239 8.2372 6.20134 8.34946 6.15597C8.78923 6.56882 9.38275 7.04932 10.0078 7.55443C11.138 8.46855 12.4196 9.50494 12.7079 10.1046C12.8501 10.4006 12.6971 10.5936 12.5933 10.682C12.4411 10.8127 12.2328 10.8542 12.1198 10.775C11.9952 10.6897 11.833 10.6843 11.7046 10.7612C11.5754 10.838 11.5032 10.9833 11.5193 11.1325C11.5454 11.377 11.3217 11.5169 11.2248 11.5654C10.9788 11.6899 10.722 11.6684 10.6259 11.5792C10.5183 11.4793 10.3637 11.45 10.2269 11.5008C10.0901 11.5523 9.99471 11.6784 9.98088 11.8244C9.95781 12.0766 9.77099 12.3188 9.52726 12.4133C9.40963 12.4579 9.23895 12.4848 9.08597 12.3449C8.99065 12.2588 8.85839 12.2257 8.73463 12.2557C8.60933 12.2864 8.5086 12.3772 8.46478 12.4979C8.45018 12.5363 8.4171 12.6286 8.05729 12.6286C7.80128 12.6286 7.34074 12.4556 7.1155 12.3064C6.84565 12.1289 5.15347 10.8665 3.69197 9.64249C3.4867 9.46951 3.1315 9.09893 2.81783 8.77141C2.5395 8.4808 2.28503 8.21711 2.15432 8.1064C1.99057 7.96801 1.74839 7.98877 1.61231 8.15177C1.47547 8.31398 1.49543 8.55695 1.65768 8.69378C1.77686 8.79451 2.0075 9.0382 2.26197 9.30345C2.60487 9.6617 2.95928 10.0323 3.19763 10.2322C4.62918 11.4308 6.3498 12.7247 6.69267 12.9499C6.9756 13.136 7.58526 13.3974 8.05733 13.3974C8.43634 13.3974 8.72775 13.3105 8.92993 13.1406C9.20054 13.246 9.50809 13.2467 9.80407 13.1314C10.1539 12.9961 10.4414 12.7232 10.6044 12.3926C10.9073 12.4572 11.2541 12.4118 11.5693 12.2534C11.8776 12.0981 12.1005 11.8606 12.2112 11.583C12.5172 11.5992 12.8324 11.4908 13.093 11.267C13.5344 10.8896 13.6558 10.3022 13.4006 9.77248Z"/>
<path fill-rule="evenodd" clip-rule="evenodd" d="M14.5889 3.40022C14.7212 3.46286 14.8195 3.58036 14.8577 3.72172L16.1077 8.34672C16.1698 8.57639 16.0614 8.81799 15.8486 8.92439L13.8486 9.92439C13.6016 10.0479 13.3013 9.94777 13.1778 9.70078C13.0543 9.45379 13.1544 9.15345 13.4014 9.02996L15.0356 8.21285L14.0454 4.54881L13.3302 4.87063C13.0784 4.98395 12.7824 4.87168 12.6691 4.61986C12.5557 4.36804 12.668 4.07203 12.9198 3.95871L14.1698 3.39621C14.3034 3.33612 14.4565 3.33759 14.5889 3.40022Z"/>
<path fill-rule="evenodd" clip-rule="evenodd" d="M1.23282 2.646C1.37542 2.58201 1.53973 2.58838 1.67694 2.66323L3.05194 3.41323C3.29437 3.54546 3.3837 3.84918 3.25147 4.0916C3.11923 4.33402 2.81552 4.42335 2.57309 4.29112L1.77591 3.8563L0.995008 7.22396L2.44085 8.40206C2.65493 8.57649 2.68707 8.89143 2.51263 9.10551C2.3382 9.31958 2.02326 9.35172 1.80918 9.17729L0.121681 7.80229C-0.0262269 7.68177 -0.0926569 7.48759 -0.049559 7.30173L0.950441 2.98923C0.985747 2.83697 1.09022 2.70998 1.23282 2.646Z"/>
<path d="M6.40564 3.45068H2.94596C2.73377 3.45068 2.56154 3.62291 2.56154 3.83511C2.56154 4.0473 2.73377 4.21953 2.94596 4.21953H6.40564C6.61783 4.21953 6.79006 4.0473 6.79006 3.83511C6.79006 3.62291 6.61783 3.45068 6.40564 3.45068Z"/>
<path d="M14.4134 9.00226C14.2943 8.82621 14.0559 8.77778 13.8799 8.89771L12.7559 9.65268C12.5798 9.77106 12.5329 10.0102 12.6513 10.1862C12.7259 10.2962 12.8474 10.3561 12.9712 10.3561C13.0442 10.3561 13.1188 10.3354 13.1849 10.2908L14.3089 9.53584C14.4849 9.41742 14.5318 9.17834 14.4134 9.00226Z"/>
<path d="M12.0266 10.8367C11.7514 10.6199 10.5205 9.35981 9.75934 8.56639C9.61248 8.41261 9.36879 8.40724 9.21577 8.55485C9.06199 8.70171 9.05738 8.9454 9.20424 9.09842C9.40184 9.30445 11.1447 11.1212 11.5499 11.441C11.6198 11.4964 11.7044 11.5233 11.7875 11.5233C11.9005 11.5233 12.0135 11.4726 12.0904 11.3764C12.2219 11.2103 12.1934 10.9682 12.0266 10.8367Z"/>
<path d="M10.4908 11.6078C10.0302 11.2395 8.87318 10.0102 8.61176 9.72574C8.46721 9.5689 8.22503 9.55967 8.06819 9.70267C7.91211 9.84643 7.90137 10.0902 8.04513 10.2462C8.05897 10.2608 9.43978 11.7516 10.0102 12.2083C10.081 12.2644 10.1663 12.2921 10.2501 12.2921C10.3624 12.2921 10.4746 12.2421 10.5507 12.1483C10.683 11.9822 10.6561 11.74 10.4908 11.6078Z"/>
<path d="M8.9607 12.3821C8.41252 11.92 7.29083 10.7261 7.07171 10.4916C6.92641 10.3363 6.68268 10.3278 6.52815 10.4731C6.37286 10.6184 6.36515 10.8614 6.5097 11.0167C6.82492 11.3542 7.89818 12.492 8.46481 12.9702C8.53707 13.031 8.62471 13.061 8.71236 13.061C8.82152 13.061 8.93072 13.0141 9.00683 12.9241C9.14367 12.7611 9.12291 12.5189 8.9607 12.3821Z"/>
</mask>
<path d="M13.4006 9.77248C13.0385 9.01752 11.743 7.9696 10.4914 6.95706C9.79333 6.39274 9.13369 5.85919 8.71315 5.43866C8.60781 5.33256 8.45022 5.29872 8.31107 5.34871C8.05199 5.44252 7.89206 5.51477 7.766 5.57088C7.5738 5.65698 7.50922 5.68621 7.25011 5.71233C7.13554 5.72387 7.03254 5.78538 6.96872 5.88071C6.42515 6.69333 5.86238 6.62414 5.48643 6.49808C5.36649 6.45811 5.34498 6.40658 5.33344 6.35738C5.25272 6.01989 5.6579 5.23414 6.18298 4.70903C7.43232 3.45893 8.07657 3.14601 9.43738 3.75416C10.9812 4.44454 12.528 4.98504 12.5434 4.99041C12.7456 5.06036 12.9632 4.95427 13.0331 4.75361C13.1023 4.55295 12.997 4.33383 12.7963 4.26388C12.7809 4.25851 11.2648 3.72878 9.75182 3.05144C7.98893 2.26339 7.02173 2.78235 5.64017 4.1647C5.1143 4.69058 4.40005 5.75461 4.58457 6.53498C4.66374 6.86711 4.89749 7.11314 5.24497 7.22767C6.11605 7.51522 6.91099 7.23996 7.50299 6.45426C7.74747 6.4166 7.88049 6.36124 8.08036 6.27129C8.15261 6.239 8.2372 6.20134 8.34946 6.15597C8.78923 6.56882 9.38275 7.04932 10.0078 7.55443C11.138 8.46855 12.4196 9.50494 12.7079 10.1046C12.8501 10.4006 12.6971 10.5936 12.5933 10.682C12.4411 10.8127 12.2328 10.8542 12.1198 10.775C11.9952 10.6897 11.833 10.6843 11.7046 10.7612C11.5754 10.838 11.5032 10.9833 11.5193 11.1325C11.5454 11.377 11.3217 11.5169 11.2248 11.5654C10.9788 11.6899 10.722 11.6684 10.6259 11.5792C10.5183 11.4793 10.3637 11.45 10.2269 11.5008C10.0901 11.5523 9.99471 11.6784 9.98088 11.8244C9.95781 12.0766 9.77099 12.3188 9.52726 12.4133C9.40963 12.4579 9.23895 12.4848 9.08597 12.3449C8.99065 12.2588 8.85839 12.2257 8.73463 12.2557C8.60933 12.2864 8.5086 12.3772 8.46478 12.4979C8.45018 12.5363 8.4171 12.6286 8.05729 12.6286C7.80128 12.6286 7.34074 12.4556 7.1155 12.3064C6.84565 12.1289 5.15347 10.8665 3.69197 9.64249C3.4867 9.46951 3.1315 9.09893 2.81783 8.77141C2.5395 8.4808 2.28503 8.21711 2.15432 8.1064C1.99057 7.96801 1.74839 7.98877 1.61231 8.15177C1.47547 8.31398 1.49543 8.55695 1.65768 8.69378C1.77686 8.79451 2.0075 9.0382 2.26197 9.30345C2.60487 9.6617 2.95928 10.0323 3.19763 10.2322C4.62918 11.4308 6.3498 12.7247 6.69267 12.9499C6.9756 13.136 7.58526 13.3974 8.05733 13.3974C8.43634 13.3974 8.72775 13.3105 8.92993 13.1406C9.20054 13.246 9.50809 13.2467 9.80407 13.1314C10.1539 12.9961 10.4414 12.7232 10.6044 12.3926C10.9073 12.4572 11.2541 12.4118 11.5693 12.2534C11.8776 12.0981 12.1005 11.8606 12.2112 11.583C12.5172 11.5992 12.8324 11.4908 13.093 11.267C13.5344 10.8896 13.6558 10.3022 13.4006 9.77248Z" fill="white"/>
<path fill-rule="evenodd" clip-rule="evenodd" d="M14.5889 3.40022C14.7212 3.46286 14.8195 3.58036 14.8577 3.72172L16.1077 8.34672C16.1698 8.57639 16.0614 8.81799 15.8486 8.92439L13.8486 9.92439C13.6016 10.0479 13.3013 9.94777 13.1778 9.70078C13.0543 9.45379 13.1544 9.15345 13.4014 9.02996L15.0356 8.21285L14.0454 4.54881L13.3302 4.87063C13.0784 4.98395 12.7824 4.87168 12.6691 4.61986C12.5557 4.36804 12.668 4.07203 12.9198 3.95871L14.1698 3.39621C14.3034 3.33612 14.4565 3.33759 14.5889 3.40022Z" fill="white"/>
<path fill-rule="evenodd" clip-rule="evenodd" d="M1.23282 2.646C1.37542 2.58201 1.53973 2.58838 1.67694 2.66323L3.05194 3.41323C3.29437 3.54546 3.3837 3.84918 3.25147 4.0916C3.11923 4.33402 2.81552 4.42335 2.57309 4.29112L1.77591 3.8563L0.995008 7.22396L2.44085 8.40206C2.65493 8.57649 2.68707 8.89143 2.51263 9.10551C2.3382 9.31958 2.02326 9.35172 1.80918 9.17729L0.121681 7.80229C-0.0262269 7.68177 -0.0926569 7.48759 -0.049559 7.30173L0.950441 2.98923C0.985747 2.83697 1.09022 2.70998 1.23282 2.646Z" fill="white"/>
<path d="M6.40564 3.45068H2.94596C2.73377 3.45068 2.56154 3.62291 2.56154 3.83511C2.56154 4.0473 2.73377 4.21953 2.94596 4.21953H6.40564C6.61783 4.21953 6.79006 4.0473 6.79006 3.83511C6.79006 3.62291 6.61783 3.45068 6.40564 3.45068Z" fill="white"/>
<path d="M14.4134 9.00226C14.2943 8.82621 14.0559 8.77778 13.8799 8.89771L12.7559 9.65268C12.5798 9.77106 12.5329 10.0102 12.6513 10.1862C12.7259 10.2962 12.8474 10.3561 12.9712 10.3561C13.0442 10.3561 13.1188 10.3354 13.1849 10.2908L14.3089 9.53584C14.4849 9.41742 14.5318 9.17834 14.4134 9.00226Z" fill="white"/>
<path d="M12.0266 10.8367C11.7514 10.6199 10.5205 9.35981 9.75934 8.56639C9.61248 8.41261 9.36879 8.40724 9.21577 8.55485C9.06199 8.70171 9.05738 8.9454 9.20424 9.09842C9.40184 9.30445 11.1447 11.1212 11.5499 11.441C11.6198 11.4964 11.7044 11.5233 11.7875 11.5233C11.9005 11.5233 12.0135 11.4726 12.0904 11.3764C12.2219 11.2103 12.1934 10.9682 12.0266 10.8367Z" fill="white"/>
<path d="M10.4908 11.6078C10.0302 11.2395 8.87318 10.0102 8.61176 9.72574C8.46721 9.5689 8.22503 9.55967 8.06819 9.70267C7.91211 9.84643 7.90137 10.0902 8.04513 10.2462C8.05897 10.2608 9.43978 11.7516 10.0102 12.2083C10.081 12.2644 10.1663 12.2921 10.2501 12.2921C10.3624 12.2921 10.4746 12.2421 10.5507 12.1483C10.683 11.9822 10.6561 11.74 10.4908 11.6078Z" fill="white"/>
<path d="M8.9607 12.3821C8.41252 11.92 7.29083 10.7261 7.07171 10.4916C6.92641 10.3363 6.68268 10.3278 6.52815 10.4731C6.37286 10.6184 6.36515 10.8614 6.5097 11.0167C6.82492 11.3542 7.89818 12.492 8.46481 12.9702C8.53707 13.031 8.62471 13.061 8.71236 13.061C8.82152 13.061 8.93072 13.0141 9.00683 12.9241C9.14367 12.7611 9.12291 12.5189 8.9607 12.3821Z" fill="white"/>
<path d="M13.4006 9.77248L13.3105 9.81573L13.3105 9.81589L13.4006 9.77248ZM10.4914 6.95706L10.5543 6.87932L10.5543 6.87929L10.4914 6.95706ZM8.71315 5.43866L8.64219 5.50912L8.64244 5.50937L8.71315 5.43866ZM8.31107 5.34871L8.27727 5.2546L8.27703 5.25468L8.31107 5.34871ZM7.766 5.57088L7.72533 5.47952L7.72511 5.47962L7.766 5.57088ZM7.25011 5.71233L7.26012 5.81183L7.26014 5.81183L7.25011 5.71233ZM6.96872 5.88071L6.88563 5.82507L6.8856 5.82511L6.96872 5.88071ZM5.48643 6.49808L5.51822 6.40327L5.51804 6.40321L5.48643 6.49808ZM5.33344 6.35738L5.43081 6.33456L5.4307 6.33412L5.33344 6.35738ZM6.18298 4.70903L6.25369 4.77974L6.25371 4.77972L6.18298 4.70903ZM9.43738 3.75416L9.47821 3.66287L9.47818 3.66286L9.43738 3.75416ZM12.5434 4.99041L12.5105 5.08483L12.5107 5.08492L12.5434 4.99041ZM13.0331 4.75361L13.1276 4.78652L13.1277 4.78621L13.0331 4.75361ZM12.7963 4.26388L12.7634 4.3583L12.7634 4.35831L12.7963 4.26388ZM9.75182 3.05144L9.79268 2.96017L9.79263 2.96015L9.75182 3.05144ZM5.64017 4.1647L5.71088 4.23541L5.7109 4.23539L5.64017 4.1647ZM4.58457 6.53498L4.48725 6.55799L4.48729 6.55817L4.58457 6.53498ZM5.24497 7.22767L5.27632 7.13271L5.27627 7.1327L5.24497 7.22767ZM7.50299 6.45426L7.48776 6.35542L7.44758 6.36161L7.42312 6.39408L7.50299 6.45426ZM8.08036 6.27129L8.03956 6.17999L8.03932 6.1801L8.08036 6.27129ZM8.34946 6.15597L8.4179 6.08306L8.37127 6.03929L8.31198 6.06325L8.34946 6.15597ZM10.0078 7.55443L10.0707 7.47668L10.0706 7.47666L10.0078 7.55443ZM12.7079 10.1046L12.798 10.0613L12.798 10.0613L12.7079 10.1046ZM12.5933 10.682L12.5285 10.6059L12.5282 10.6061L12.5933 10.682ZM12.1198 10.775L12.1771 10.6931L12.1763 10.6925L12.1198 10.775ZM11.7046 10.7612L11.7557 10.8471L11.756 10.847L11.7046 10.7612ZM11.5193 11.1325L11.6187 11.1219L11.6187 11.1217L11.5193 11.1325ZM11.2248 11.5654L11.1801 11.4759L11.1797 11.4761L11.2248 11.5654ZM10.6259 11.5792L10.5579 11.6525L10.5579 11.6525L10.6259 11.5792ZM10.2269 11.5008L10.1921 11.407L10.1917 11.4072L10.2269 11.5008ZM9.98088 11.8244L9.88132 11.815L9.88129 11.8153L9.98088 11.8244ZM9.52726 12.4133L9.5627 12.5069L9.56343 12.5066L9.52726 12.4133ZM9.08597 12.3449L9.15347 12.2711L9.153 12.2707L9.08597 12.3449ZM8.73463 12.2557L8.71109 12.1585L8.71081 12.1586L8.73463 12.2557ZM8.46478 12.4979L8.55828 12.5334L8.55877 12.532L8.46478 12.4979ZM7.1155 12.3064L7.17072 12.2231L7.17048 12.2229L7.1155 12.3064ZM3.69197 9.64249L3.62753 9.71896L3.62777 9.71916L3.69197 9.64249ZM2.81783 8.77141L2.7456 8.84058L2.74561 8.84058L2.81783 8.77141ZM2.15432 8.1064L2.21895 8.03009L2.21887 8.03002L2.15432 8.1064ZM1.61231 8.15177L1.68874 8.21625L1.68907 8.21586L1.61231 8.15177ZM1.65768 8.69378L1.72223 8.61741L1.72215 8.61734L1.65768 8.69378ZM2.26197 9.30345L2.33421 9.2343L2.33413 9.23422L2.26197 9.30345ZM3.19763 10.2322L3.13337 10.3088L3.13344 10.3089L3.19763 10.2322ZM6.69267 12.9499L6.74761 12.8664L6.74757 12.8664L6.69267 12.9499ZM8.92993 13.1406L8.9662 13.0474L8.91097 13.0259L8.86559 13.0641L8.92993 13.1406ZM9.80407 13.1314L9.76799 13.0381L9.76777 13.0382L9.80407 13.1314ZM10.6044 12.3926L10.6253 12.2948L10.5491 12.2785L10.5147 12.3484L10.6044 12.3926ZM11.5693 12.2534L11.6142 12.3428L11.6142 12.3427L11.5693 12.2534ZM12.2112 11.583L12.2165 11.4832L12.1449 11.4794L12.1183 11.546L12.2112 11.583ZM13.093 11.267L13.028 11.191L13.0279 11.1912L13.093 11.267ZM14.8577 3.72172L14.9542 3.69563L14.9542 3.69563L14.8577 3.72172ZM14.5889 3.40022L14.5461 3.49061L14.5461 3.49061L14.5889 3.40022ZM16.1077 8.34672L16.0112 8.37281L16.0112 8.37281L16.1077 8.34672ZM15.8486 8.92439L15.8039 8.83494L15.8039 8.83494L15.8486 8.92439ZM13.8486 9.92439L13.8933 10.0138L13.8933 10.0138L13.8486 9.92439ZM13.4014 9.02996L13.4461 9.1194L13.4461 9.1194L13.4014 9.02996ZM15.0356 8.21285L15.0804 8.30229C15.1229 8.28101 15.1446 8.23269 15.1322 8.18675L15.0356 8.21285ZM14.0454 4.54881L14.1419 4.52272C14.1343 4.49445 14.1146 4.47095 14.0881 4.45842C14.0617 4.4459 14.031 4.4456 14.0043 4.45762L14.0454 4.54881ZM13.3302 4.87063L13.3712 4.96183L13.3712 4.96183L13.3302 4.87063ZM12.6691 4.61986L12.7602 4.57882L12.7602 4.57882L12.6691 4.61986ZM12.9198 3.95871L12.8788 3.86752L12.9198 3.95871ZM14.1698 3.39621L14.2109 3.4874L14.2109 3.4874L14.1698 3.39621ZM1.67694 2.66323L1.62906 2.75101L1.62906 2.75101L1.67694 2.66323ZM1.23282 2.646L1.27376 2.73723L1.27376 2.73723L1.23282 2.646ZM3.05194 3.41323L3.09983 3.32544L3.09983 3.32544L3.05194 3.41323ZM3.25147 4.0916L3.16368 4.04371L3.16368 4.04371L3.25147 4.0916ZM2.57309 4.29112L2.52521 4.37891L2.52521 4.37891L2.57309 4.29112ZM1.77591 3.8563L1.8238 3.76851C1.79636 3.75354 1.76349 3.75226 1.73497 3.76506C1.70645 3.77786 1.68556 3.80326 1.6785 3.83371L1.77591 3.8563ZM0.995008 7.22396L0.897592 7.20137C0.888973 7.23854 0.902259 7.27738 0.93184 7.30148L0.995008 7.22396ZM2.44085 8.40206L2.50402 8.32453L2.50402 8.32453L2.44085 8.40206ZM2.51263 9.10551L2.59016 9.16868L2.59016 9.16868L2.51263 9.10551ZM1.80918 9.17729L1.87235 9.09977L1.87235 9.09977L1.80918 9.17729ZM0.121681 7.80229L0.0585135 7.87981L0.0585135 7.87981L0.121681 7.80229ZM-0.049559 7.30173L0.0478562 7.32432L0.0478563 7.32432L-0.049559 7.30173ZM0.950441 2.98923L0.853026 2.96664L0.853026 2.96664L0.950441 2.98923ZM14.4134 9.00226L14.4964 8.94646L14.4962 8.9462L14.4134 9.00226ZM13.8799 8.89771L13.9356 8.98073L13.9362 8.98036L13.8799 8.89771ZM12.7559 9.65268L12.7001 9.56967L12.7001 9.5697L12.7559 9.65268ZM12.6513 10.1862L12.5684 10.242L12.5686 10.2424L12.6513 10.1862ZM13.1849 10.2908L13.1292 10.2078L13.129 10.2079L13.1849 10.2908ZM14.3089 9.53584L14.3647 9.61886L14.3647 9.61881L14.3089 9.53584ZM12.0266 10.8367L12.0885 10.7581L12.0885 10.7581L12.0266 10.8367ZM9.75934 8.56639L9.68702 8.63545L9.68717 8.63561L9.75934 8.56639ZM9.21577 8.55485L9.28484 8.62717L9.2852 8.62682L9.21577 8.55485ZM9.20424 9.09842L9.27641 9.0292L9.27639 9.02918L9.20424 9.09842ZM11.5499 11.441L11.612 11.3626L11.6119 11.3625L11.5499 11.441ZM12.0904 11.3764L12.1685 11.4389L12.1688 11.4385L12.0904 11.3764ZM10.4908 11.6078L10.5532 11.5297L10.5532 11.5297L10.4908 11.6078ZM8.61176 9.72574L8.68539 9.65807L8.68529 9.65797L8.61176 9.72574ZM8.06819 9.70267L8.00082 9.62878L8.00045 9.62912L8.06819 9.70267ZM8.04513 10.2462L7.97157 10.314L7.97256 10.315L8.04513 10.2462ZM10.0102 12.2083L9.94773 12.2863L9.94808 12.2866L10.0102 12.2083ZM10.5507 12.1483L10.6283 12.2113L10.6289 12.2106L10.5507 12.1483ZM8.9607 12.3821L9.02518 12.3057L9.02515 12.3056L8.9607 12.3821ZM7.07171 10.4916L7.14478 10.4233L7.14473 10.4232L7.07171 10.4916ZM6.52815 10.4731L6.59647 10.5461L6.59665 10.546L6.52815 10.4731ZM6.5097 11.0167L6.43649 11.0848L6.43661 11.0849L6.5097 11.0167ZM8.46481 12.9702L8.40032 13.0467L8.40047 13.0468L8.46481 12.9702ZM9.00683 12.9241L9.08317 12.9887L9.08342 12.9884L9.00683 12.9241ZM13.4908 9.72924C13.3005 9.33258 12.8726 8.87046 12.3472 8.38772C11.8189 7.90226 11.1795 7.38506 10.5543 6.87932L10.4285 7.03481C11.055 7.5416 11.6891 8.05463 12.2119 8.535C12.7377 9.0181 13.1386 9.45742 13.3105 9.81573L13.4908 9.72924ZM10.5543 6.87929C9.85444 6.31355 9.19977 5.78385 8.78387 5.36795L8.64244 5.50937C9.06761 5.93453 9.73222 6.47192 10.4286 7.03483L10.5543 6.87929ZM8.78412 5.3682C8.65093 5.23405 8.45231 5.19171 8.27727 5.2546L8.34488 5.44282C8.44812 5.40573 8.5647 5.43107 8.64219 5.50912L8.78412 5.3682ZM8.27703 5.25468C8.01442 5.34977 7.85177 5.42324 7.72533 5.47953L7.80666 5.66224C7.93234 5.6063 8.08957 5.53526 8.34512 5.44273L8.27703 5.25468ZM7.72511 5.47962C7.62752 5.52334 7.56977 5.5491 7.50494 5.56816C7.44103 5.58695 7.36714 5.60003 7.24007 5.61284L7.26014 5.81183C7.39219 5.79851 7.48015 5.78391 7.56136 5.76004C7.64164 5.73643 7.71227 5.70452 7.80688 5.66215L7.72511 5.47962ZM7.24009 5.61284C7.09607 5.62733 6.96617 5.70477 6.88563 5.82507L7.05181 5.93634C7.09891 5.866 7.17501 5.8204 7.26012 5.81183L7.24009 5.61284ZM6.8856 5.82511C6.6237 6.21665 6.36547 6.38406 6.13883 6.44481C5.91047 6.50602 5.69783 6.46349 5.51822 6.40327L5.45464 6.59289C5.65098 6.65873 5.9077 6.71382 6.19061 6.63799C6.47523 6.5617 6.77018 6.35739 7.05184 5.9363L6.8856 5.82511ZM5.51804 6.40321C5.46786 6.38648 5.44974 6.37104 5.44333 6.36398C5.43816 6.35828 5.43498 6.35235 5.4308 6.33456L5.23608 6.38021C5.24345 6.41161 5.25679 6.45604 5.29524 6.4984C5.33245 6.5394 5.38506 6.5697 5.45481 6.59295L5.51804 6.40321ZM5.4307 6.33412C5.41623 6.27361 5.4217 6.18034 5.45485 6.0573C5.48735 5.93662 5.54377 5.7971 5.61992 5.64938C5.77229 5.35379 5.99885 5.03459 6.25369 4.77974L6.11226 4.63832C5.84202 4.90858 5.60346 5.24481 5.44215 5.55774C5.36146 5.71428 5.2989 5.8673 5.26173 6.00528C5.2252 6.1409 5.2103 6.27241 5.23619 6.38065L5.4307 6.33412ZM6.25371 4.77972C6.87891 4.15414 7.33728 3.78009 7.7993 3.62985C8.25321 3.48224 8.72707 3.54625 9.39658 3.84545L9.47818 3.66286C8.78689 3.35392 8.25821 3.27031 7.73745 3.43965C7.22481 3.60636 6.73639 4.01382 6.11224 4.63834L6.25371 4.77972ZM9.39656 3.84544C10.9443 4.5376 12.4944 5.07921 12.5105 5.08483L12.5764 4.896C12.5617 4.89088 11.018 4.35149 9.47821 3.66287L9.39656 3.84544ZM12.5107 5.08492C12.7651 5.17291 13.0395 5.0392 13.1276 4.78652L12.9387 4.72069C12.8869 4.86933 12.7262 4.94782 12.5761 4.89591L12.5107 5.08492ZM13.1277 4.78621C13.2147 4.5338 13.0823 4.25766 12.8292 4.16945L12.7634 4.35831C12.9117 4.41 12.99 4.57209 12.9386 4.72101L13.1277 4.78621ZM12.8293 4.16946C12.8146 4.16435 11.3017 3.63574 9.79268 2.96017L9.71096 3.14272C11.228 3.82183 12.7473 4.35268 12.7634 4.3583L12.8293 4.16946ZM9.79263 2.96015C8.89672 2.55966 8.18794 2.48508 7.5224 2.69897C6.86304 2.91087 6.26143 3.40163 5.56944 4.09401L5.7109 4.23539C6.40047 3.54542 6.97324 3.08553 7.58359 2.88937C8.18776 2.69521 8.84402 2.75518 9.71101 3.14274L9.79263 2.96015ZM5.56946 4.09399C5.3 4.36345 4.98353 4.76917 4.75708 5.2086C4.53235 5.64467 4.38667 6.1326 4.48725 6.55799L4.68188 6.51197C4.59795 6.15699 4.71713 5.72271 4.93486 5.30021C5.15087 4.88106 5.45446 4.49183 5.71088 4.23541L5.56946 4.09399ZM4.48729 6.55817C4.57514 6.92666 4.83586 7.19812 5.21367 7.32265L5.27627 7.1327C4.95912 7.02816 4.75235 6.80756 4.68184 6.51179L4.48729 6.55817ZM5.21362 7.32263C5.66752 7.47247 6.10658 7.47697 6.51112 7.33801C6.91509 7.19925 7.27727 6.92001 7.58285 6.51443L7.42312 6.39408C7.13671 6.77421 6.80542 7.02545 6.44615 7.14886C6.08745 7.27207 5.6935 7.27043 5.27632 7.13271L5.21362 7.32263ZM7.51821 6.55309C7.77574 6.51342 7.91828 6.45389 8.1214 6.36248L8.03932 6.1801C7.8427 6.26859 7.7192 6.31977 7.48776 6.35542L7.51821 6.55309ZM8.12116 6.36259C8.19318 6.3304 8.27641 6.29335 8.38693 6.24868L8.31198 6.06325C8.19798 6.10933 8.11205 6.14759 8.03956 6.17999L8.12116 6.36259ZM8.28101 6.22887C8.72407 6.64481 9.32083 7.12785 9.94494 7.63221L10.0706 7.47666C9.44467 6.97079 8.85439 6.49283 8.4179 6.08306L8.28101 6.22887ZM9.94491 7.63218C10.5105 8.08968 11.1113 8.57554 11.6066 9.02174C11.8542 9.24478 12.0741 9.45667 12.2494 9.64905C12.4258 9.84271 12.5521 10.0113 12.6178 10.1479L12.798 10.0613C12.7195 9.89806 12.5775 9.71225 12.3972 9.51436C12.2158 9.31519 11.9906 9.09841 11.7405 8.87314C11.2404 8.42269 10.6352 7.9333 10.0707 7.47668L9.94491 7.63218ZM12.6178 10.1479C12.678 10.2733 12.6728 10.3682 12.6484 10.4383C12.6229 10.5119 12.5726 10.5683 12.5285 10.6059L12.6582 10.7581C12.7179 10.7073 12.796 10.623 12.8373 10.504C12.8799 10.3815 12.88 10.2319 12.798 10.0613L12.6178 10.1479ZM12.5282 10.6061C12.4646 10.6607 12.39 10.6958 12.3225 10.7091C12.253 10.7228 12.2036 10.7116 12.1771 10.6931L12.0624 10.8569C12.1489 10.9176 12.2602 10.9252 12.3612 10.9053C12.4641 10.885 12.5699 10.8339 12.6585 10.7579L12.5282 10.6061ZM12.1763 10.6925C12.0198 10.5853 11.8155 10.5782 11.6532 10.6754L11.756 10.847C11.8505 10.7904 11.9706 10.794 12.0632 10.8575L12.1763 10.6925ZM11.6534 10.6752C11.4906 10.7722 11.3996 10.9553 11.4199 11.1433L11.6187 11.1217C11.6068 11.0114 11.6603 10.9039 11.7557 10.8471L11.6534 10.6752ZM11.4199 11.1431C11.4291 11.2293 11.3957 11.2983 11.344 11.3554C11.291 11.414 11.2232 11.4544 11.1801 11.4759L11.2696 11.6548C11.3234 11.6279 11.4158 11.5741 11.4924 11.4895C11.5703 11.4034 11.6357 11.2802 11.6187 11.1219L11.4199 11.1431ZM11.1797 11.4761C11.0709 11.5312 10.961 11.5532 10.8701 11.5524C10.7749 11.5516 10.716 11.5263 10.6939 11.5059L10.5579 11.6525C10.632 11.7212 10.7495 11.7514 10.8683 11.7524C10.9913 11.7535 11.1328 11.724 11.27 11.6546L11.1797 11.4761ZM10.694 11.5059C10.5581 11.3798 10.3637 11.3434 10.1921 11.407L10.2617 11.5945C10.3638 11.5567 10.4784 11.5787 10.5579 11.6525L10.694 11.5059ZM10.1917 11.4072C10.0186 11.4723 9.89871 11.6314 9.88132 11.815L10.0804 11.8339C10.0907 11.7253 10.1616 11.6322 10.2621 11.5944L10.1917 11.4072ZM9.88129 11.8153C9.86183 12.028 9.70099 12.2387 9.49109 12.3201L9.56343 12.5066C9.84098 12.3989 10.0538 12.1251 10.0805 11.8335L9.88129 11.8153ZM9.49182 12.3198C9.38997 12.3584 9.26598 12.374 9.15347 12.2711L9.01848 12.4187C9.21192 12.5956 9.4293 12.5574 9.5627 12.5068L9.49182 12.3198ZM9.153 12.2707C9.03305 12.1624 8.86686 12.1208 8.71109 12.1585L8.75818 12.3529C8.84992 12.3307 8.94825 12.3553 9.01894 12.4191L9.153 12.2707ZM8.71081 12.1586C8.553 12.1973 8.42599 12.3117 8.37078 12.4638L8.55877 12.532C8.59122 12.4427 8.66565 12.3756 8.75846 12.3528L8.71081 12.1586ZM8.37129 12.4624C8.36781 12.4716 8.36726 12.4723 8.36619 12.4737C8.36543 12.4747 8.36085 12.4806 8.34533 12.4884C8.31107 12.5058 8.23152 12.5286 8.05729 12.5286V12.7286C8.24288 12.7286 8.35977 12.7053 8.43565 12.6669C8.4752 12.6469 8.50412 12.6225 8.52491 12.5954C8.54539 12.5687 8.55445 12.5434 8.55827 12.5334L8.37129 12.4624ZM8.05729 12.5286C7.94649 12.5286 7.78021 12.4899 7.60815 12.4292C7.43764 12.369 7.27431 12.2917 7.17072 12.2231L7.06029 12.3898C7.18193 12.4704 7.3615 12.5542 7.54156 12.6178C7.72009 12.6808 7.91208 12.7286 8.05729 12.7286V12.5286ZM7.17048 12.2229C6.90528 12.0484 5.21647 10.7888 3.75618 9.56583L3.62777 9.71916C5.09047 10.9441 6.78601 12.2093 7.06053 12.39L7.17048 12.2229ZM3.75641 9.56603C3.55632 9.39741 3.20583 9.03196 2.89005 8.70224L2.74561 8.84058C3.05718 9.1659 3.41707 9.54161 3.62753 9.71896L3.75641 9.56603ZM2.89005 8.70224C2.61384 8.41385 2.35473 8.14509 2.21895 8.03009L2.08969 8.1827C2.21534 8.28912 2.46516 8.54775 2.7456 8.84058L2.89005 8.70224ZM2.21887 8.03002C2.01313 7.85615 1.70749 7.88172 1.53554 8.08768L1.68907 8.21586C1.78929 8.09581 1.968 8.07986 2.08978 8.18278L2.21887 8.03002ZM1.53587 8.08729C1.36362 8.29148 1.3885 8.59758 1.59321 8.77023L1.72215 8.61734C1.60237 8.51631 1.58732 8.33648 1.68874 8.21625L1.53587 8.08729ZM1.59313 8.77016C1.70708 8.86647 1.93225 9.10421 2.18981 9.37268L2.33413 9.23422C2.08276 8.9722 1.84664 8.72256 1.72223 8.61741L1.59313 8.77016ZM2.18973 9.37259C2.53068 9.72881 2.88974 10.1045 3.13337 10.3088L3.26189 10.1556C3.02882 9.96009 2.67907 9.5946 2.33421 9.2343L2.18973 9.37259ZM3.13344 10.3089C4.56602 11.5083 6.29008 12.8051 6.63776 13.0335L6.74757 12.8664C6.40951 12.6443 4.69235 11.3533 3.26183 10.1555L3.13344 10.3089ZM6.63772 13.0335C6.78698 13.1317 7.01751 13.2468 7.27028 13.3376C7.52244 13.4281 7.80513 13.4974 8.05733 13.4974V13.2974C7.83747 13.2974 7.57929 13.236 7.33787 13.1493C7.09706 13.0629 6.88129 12.9543 6.74761 12.8664L6.63772 13.0335ZM8.05733 13.4974C8.45028 13.4974 8.76788 13.4074 8.99426 13.2172L8.86559 13.0641C8.68762 13.2136 8.42241 13.2974 8.05733 13.2974V13.4974ZM8.89365 13.2338C9.18853 13.3486 9.522 13.3486 9.84037 13.2246L9.76777 13.0382C9.49418 13.1448 9.21255 13.1433 8.9662 13.0474L8.89365 13.2338ZM9.84015 13.2247C10.2145 13.0799 10.5205 12.7888 10.6941 12.4368L10.5147 12.3484C10.3623 12.6575 10.0933 12.9123 9.76799 13.0381L9.84015 13.2247ZM10.5836 12.4904C10.9103 12.5601 11.2802 12.5106 11.6142 12.3428L11.5244 12.1641C11.228 12.313 10.9043 12.3543 10.6253 12.2948L10.5836 12.4904ZM11.6142 12.3427C11.9419 12.1777 12.1834 11.9228 12.3041 11.6201L12.1183 11.546C12.0177 11.7984 11.8133 12.0186 11.5243 12.1641L11.6142 12.3427ZM12.2059 11.6829C12.5394 11.7005 12.8794 11.5822 13.1582 11.3429L13.0279 11.1912C12.7854 11.3993 12.4951 11.4979 12.2165 11.4832L12.2059 11.6829ZM13.158 11.343C13.6344 10.9356 13.7653 10.2991 13.4907 9.72908L13.3105 9.81589C13.5463 10.3053 13.4344 10.8435 13.028 11.191L13.158 11.343ZM14.9542 3.69563C14.9084 3.526 14.7905 3.38499 14.6317 3.30983L14.5461 3.49061C14.652 3.54072 14.7306 3.63472 14.7612 3.74781L14.9542 3.69563ZM16.2042 8.32063L14.9542 3.69563L14.7612 3.74781L16.0112 8.37281L16.2042 8.32063ZM15.8933 9.01383C16.1487 8.88615 16.2787 8.59623 16.2042 8.32063L16.0112 8.37281C16.0608 8.55655 15.9741 8.74983 15.8039 8.83494L15.8933 9.01383ZM13.8933 10.0138L15.8933 9.01383L15.8039 8.83494L13.8039 9.83494L13.8933 10.0138ZM13.0884 9.7455C13.2366 10.0419 13.597 10.162 13.8933 10.0138L13.8039 9.83494C13.6063 9.93374 13.366 9.85365 13.2672 9.65606L13.0884 9.7455ZM13.3567 8.94052C13.0603 9.08871 12.9402 9.44911 13.0884 9.7455L13.2672 9.65606C13.1685 9.45847 13.2485 9.2182 13.4461 9.1194L13.3567 8.94052ZM14.9909 8.1234L13.3567 8.94052L13.4461 9.1194L15.0804 8.30229L14.9909 8.1234ZM13.9488 4.5749L14.9391 8.23894L15.1322 8.18675L14.1419 4.52272L13.9488 4.5749ZM13.3712 4.96183L14.0864 4.64L14.0043 4.45762L13.2892 4.77944L13.3712 4.96183ZM12.5779 4.66089C12.7138 4.96308 13.0691 5.09781 13.3712 4.96183L13.2892 4.77944C13.0877 4.8701 12.8509 4.78028 12.7602 4.57882L12.5779 4.66089ZM12.8788 3.86752C12.5766 4.0035 12.4419 4.35871 12.5779 4.66089L12.7602 4.57882C12.6696 4.37736 12.7594 4.14056 12.9609 4.0499L12.8788 3.86752ZM14.1288 3.30502L12.8788 3.86752L12.9609 4.0499L14.2109 3.4874L14.1288 3.30502ZM14.6317 3.30983C14.4728 3.23467 14.289 3.23291 14.1288 3.30502L14.2109 3.4874C14.3177 3.43933 14.4402 3.44051 14.5461 3.49061L14.6317 3.30983ZM1.72483 2.57544C1.56017 2.48562 1.36299 2.47797 1.19188 2.55476L1.27376 2.73723C1.38784 2.68604 1.51929 2.69114 1.62906 2.75101L1.72483 2.57544ZM3.09983 3.32544L1.72483 2.57544L1.62906 2.75101L3.00406 3.50101L3.09983 3.32544ZM3.33925 4.13948C3.49793 3.84858 3.39074 3.48411 3.09983 3.32544L3.00406 3.50101C3.198 3.6068 3.26946 3.84977 3.16368 4.04371L3.33925 4.13948ZM2.52521 4.37891C2.81612 4.53759 3.18058 4.43039 3.33925 4.13948L3.16368 4.04371C3.05789 4.23765 2.81492 4.30912 2.62098 4.20333L2.52521 4.37891ZM1.72803 3.94409L2.52521 4.37891L2.62098 4.20333L1.8238 3.76851L1.72803 3.94409ZM1.09242 7.24655L1.87333 3.87889L1.6785 3.83371L0.897592 7.20137L1.09242 7.24655ZM2.50402 8.32453L1.05817 7.14644L0.93184 7.30148L2.37769 8.47958L2.50402 8.32453ZM2.59016 9.16868C2.79948 8.91179 2.76091 8.53385 2.50402 8.32453L2.37769 8.47958C2.54895 8.61912 2.57466 8.87108 2.43511 9.04234L2.59016 9.16868ZM1.74601 9.25481C2.0029 9.46413 2.38084 9.42557 2.59016 9.16868L2.43511 9.04234C2.29557 9.2136 2.04361 9.23931 1.87235 9.09977L1.74601 9.25481ZM0.0585135 7.87981L1.74601 9.25481L1.87235 9.09977L0.184848 7.72477L0.0585135 7.87981ZM-0.146974 7.27914C-0.198692 7.50217 -0.118976 7.73519 0.0585135 7.87981L0.184848 7.72477C0.0665219 7.62835 0.013378 7.473 0.0478562 7.32432L-0.146974 7.27914ZM0.853026 2.96664L-0.146974 7.27914L0.0478563 7.32432L1.04786 3.01182L0.853026 2.96664ZM1.19188 2.55476C1.02076 2.63155 0.895393 2.78393 0.853026 2.96664L1.04786 3.01182C1.0761 2.89001 1.15968 2.78842 1.27376 2.73723L1.19188 2.55476ZM6.40564 3.35068H2.94596V3.55068H6.40564V3.35068ZM2.94596 3.35068C2.67854 3.35068 2.46154 3.56768 2.46154 3.83511H2.66154C2.66154 3.67814 2.789 3.55068 2.94596 3.55068V3.35068ZM2.46154 3.83511C2.46154 4.10253 2.67854 4.31953 2.94596 4.31953V4.11953C2.789 4.11953 2.66154 3.99207 2.66154 3.83511H2.46154ZM2.94596 4.31953H6.40564V4.11953H2.94596V4.31953ZM6.40564 4.31953C6.67306 4.31953 6.89006 4.10253 6.89006 3.83511H6.69006C6.69006 3.99207 6.5626 4.11953 6.40564 4.11953V4.31953ZM6.89006 3.83511C6.89006 3.56768 6.67306 3.35068 6.40564 3.35068V3.55068C6.5626 3.55068 6.69006 3.67814 6.69006 3.83511H6.89006ZM14.4962 8.9462C14.3468 8.7254 14.0464 8.66325 13.8236 8.81507L13.9362 8.98036C14.0654 8.89231 14.2417 8.92703 14.3306 9.05832L14.4962 8.9462ZM13.8241 8.8147L12.7001 9.56967L12.8116 9.73569L13.9356 8.98073L13.8241 8.8147ZM12.7001 9.5697C12.4782 9.71888 12.4191 10.0201 12.5684 10.242L12.7343 10.1304C12.6467 10.0002 12.6814 9.82325 12.8117 9.73566L12.7001 9.5697ZM12.5686 10.2424C12.6624 10.3806 12.8153 10.4561 12.9712 10.4561V10.2561C12.8794 10.2561 12.7894 10.2117 12.7341 10.1301L12.5686 10.2424ZM12.9712 10.4561C13.0632 10.4561 13.1574 10.4299 13.2408 10.3737L13.129 10.2079C13.0801 10.2408 13.0252 10.2561 12.9712 10.2561V10.4561ZM13.2407 10.3738L14.3647 9.61886L14.2532 9.45283L13.1292 10.2078L13.2407 10.3738ZM14.3647 9.61881C14.5865 9.46959 14.6456 9.1684 14.4964 8.94646L14.3304 9.05805C14.418 9.18829 14.3833 9.36526 14.2531 9.45287L14.3647 9.61881ZM12.0885 10.7581C11.9569 10.6545 11.5858 10.2911 11.1462 9.84738C10.7094 9.40657 10.2118 8.8936 9.8315 8.49716L9.68717 8.63561C10.068 9.03259 10.5664 9.54637 11.0041 9.98815C11.4391 10.4271 11.821 10.802 11.9647 10.9152L12.0885 10.7581ZM9.83165 8.49732C9.64665 8.3036 9.33938 8.29666 9.14634 8.48288L9.2852 8.62682C9.39819 8.51782 9.57831 8.52163 9.68702 8.63545L9.83165 8.49732ZM9.1467 8.48253C8.95275 8.66777 8.94709 8.9749 9.13209 9.16766L9.27639 9.02918C9.16767 8.9159 9.17124 8.73565 9.28483 8.62717L9.1467 8.48253ZM9.13206 9.16764C9.23092 9.27071 9.71639 9.77677 10.2279 10.2971C10.7365 10.8145 11.2791 11.3546 11.4879 11.5195L11.6119 11.3625C11.4155 11.2075 10.8841 10.6794 10.3705 10.1569C9.85992 9.63748 9.37515 9.13216 9.27641 9.0292L9.13206 9.16764ZM11.4878 11.5194C11.5763 11.5895 11.683 11.6233 11.7875 11.6233V11.4233C11.7258 11.4233 11.6634 11.4033 11.612 11.3626L11.4878 11.5194ZM11.7875 11.6233C11.9302 11.6233 12.0722 11.5593 12.1685 11.4389L12.0123 11.314C11.9548 11.3858 11.8708 11.4233 11.7875 11.4233V11.6233ZM12.1688 11.4385C12.3347 11.229 12.2987 10.9238 12.0885 10.7581L11.9647 10.9152C12.0882 11.0125 12.1091 11.1917 12.012 11.3144L12.1688 11.4385ZM10.5532 11.5297C10.1001 11.1673 8.94885 9.94475 8.68539 9.65807L8.53813 9.79341C8.79751 10.0756 9.9604 11.3117 10.4283 11.6859L10.5532 11.5297ZM8.68529 9.65797C8.50316 9.46035 8.19798 9.44901 8.00082 9.62878L8.13557 9.77657C8.25208 9.67034 8.43127 9.67745 8.53823 9.79351L8.68529 9.65797ZM8.00045 9.62912C7.80399 9.81006 7.79017 10.117 7.97157 10.314L8.11868 10.1785C8.01258 10.0633 8.02023 9.8828 8.13594 9.77623L8.00045 9.62912ZM7.97256 10.315C7.97241 10.3149 7.97261 10.3151 7.97362 10.3162C7.97446 10.3171 7.97564 10.3183 7.97716 10.32C7.98018 10.3232 7.9845 10.3279 7.99001 10.3338C8.00105 10.3457 8.01691 10.3627 8.03705 10.3842C8.07733 10.4274 8.13473 10.4887 8.20501 10.5633C8.34553 10.7125 8.5376 10.9148 8.74714 11.1311C9.16435 11.5616 9.65666 12.0533 9.94773 12.2863L10.0727 12.1302C9.79335 11.9066 9.31003 11.4245 8.89076 10.9919C8.47294 10.5607 8.1258 10.186 8.1177 10.1774L7.97256 10.315ZM9.94808 12.2866C10.0371 12.3572 10.1445 12.3921 10.2501 12.3921V12.1921C10.1882 12.1921 10.1249 12.1716 10.0724 12.1299L9.94808 12.2866ZM10.2501 12.3921C10.3916 12.3921 10.5327 12.3291 10.6283 12.2113L10.4731 12.0853C10.4165 12.155 10.3331 12.1921 10.2501 12.1921V12.3921ZM10.6289 12.2106C10.7954 12.0016 10.7618 11.6965 10.5532 11.5297L10.4283 11.6859C10.5504 11.7835 10.5706 11.9629 10.4725 12.086L10.6289 12.2106ZM9.02515 12.3056C8.48263 11.8484 7.36571 10.6597 7.14478 10.4233L6.99865 10.5598C7.21594 10.7924 8.34241 11.9917 8.89625 12.4586L9.02515 12.3056ZM7.14473 10.4232C6.96191 10.2279 6.65478 10.2168 6.45964 10.4003L6.59665 10.546C6.71057 10.4388 6.8909 10.4447 6.99869 10.5599L7.14473 10.4232ZM6.45982 10.4001C6.2641 10.5832 6.25456 10.8893 6.43649 11.0848L6.5829 10.9486C6.47573 10.8334 6.48161 10.6536 6.59647 10.5461L6.45982 10.4001ZM6.43661 11.0849C6.75034 11.4208 7.82813 12.5638 8.40032 13.0467L8.52931 12.8938C7.96823 12.4203 6.89951 11.2875 6.58278 10.9484L6.43661 11.0849ZM8.40047 13.0468C8.49116 13.123 8.60172 13.161 8.71236 13.161V12.961C8.6477 12.961 8.58297 12.9389 8.52915 12.8937L8.40047 13.0468ZM8.71236 13.161C8.84988 13.161 8.98738 13.1019 9.08317 12.9887L8.93049 12.8595C8.87405 12.9262 8.79316 12.961 8.71236 12.961V13.161ZM9.08342 12.9884C9.25561 12.7833 9.22964 12.4781 9.02518 12.3057L8.89622 12.4585C9.01618 12.5597 9.03172 12.7389 8.93024 12.8598L9.08342 12.9884Z" fill="white" mask="url(#path-2-outside-1)"/>
</g>
<defs>
<clipPath id="clip0">
<rect y="-0.000183105" width="16" height="16" fill="white"/>
</clipPath>
</defs>
</svg>
