<svg width="28" height="28" viewBox="0 0 28 28" fill="none" xmlns="http://www.w3.org/2000/svg">
<path d="M27.5573 26.0384L19.8795 18.3606C23.3776 14.1045 23.1396 7.78648 19.1646 3.81151C14.9359 -0.41715 8.05543 -0.41715 3.82677 3.81151C-0.401891 8.04017 -0.401891 14.9206 3.82677 19.1493C7.80067 23.1232 14.1179 23.3638 18.3759 19.8642L26.0537 27.542C26.4689 27.9573 27.142 27.9573 27.5573 27.542C27.9725 27.1268 27.9725 26.4536 27.5573 26.0384ZM17.661 17.6457C14.2614 21.0452 8.72997 21.0452 5.33042 17.6457C1.93086 14.2461 1.93086 8.71466 5.33042 5.3151C8.72986 1.91571 14.2613 1.91545 17.661 5.3151C21.0605 8.71466 21.0605 14.2461 17.661 17.6457Z" fill="#727272"/>
<path d="M16.701 10.4131H12.5584V6.27045C12.5584 5.68324 12.0824 5.20721 11.4952 5.20721C10.9079 5.20721 10.4319 5.68324 10.4319 6.27045V10.4131H6.28931C5.7021 10.4131 5.22607 10.8891 5.22607 11.4763C5.22607 12.0635 5.7021 12.5395 6.28931 12.5395H10.4319V16.6821C10.4319 17.2694 10.9079 17.7454 11.4952 17.7454C12.0824 17.7454 12.5584 17.2694 12.5584 16.6821V12.5395H16.701C17.2882 12.5395 17.7642 12.0635 17.7642 11.4763C17.7642 10.8891 17.2882 10.4131 16.701 10.4131Z" fill="#727272"/>
</svg>
